<?xml version="1.0" encoding="UTF-8"?>
<!DOCTYPE svg PUBLIC "-//W3C//DTD SVG 1.1//EN" "http://www.w3.org/Graphics/SVG/1.1/DTD/svg11.dtd">
<!-- Creator: CorelDRAW 2019 (64-Bit) -->
<svg xmlns="http://www.w3.org/2000/svg" xml:space="preserve" width="115.814mm" height="112.728mm" version="1.1" style="shape-rendering:geometricPrecision; text-rendering:geometricPrecision; image-rendering:optimizeQuality; fill-rule:evenodd; clip-rule:evenodd"
viewBox="0 0 4001.74 3895.11"
 xmlns:xlink="http://www.w3.org/1999/xlink">
 <defs>
  <style type="text/css">
   <![CDATA[
    .fil2 {fill:#34B36E}
    .fil0 {fill:#A13941}
    .fil1 {fill:#FFD31A}
    .fil3 {fill:#4871B3;fill-rule:nonzero}
   ]]>
  </style>
 </defs>
 <g id="Layer_x0020_1">
  <metadata id="CorelCorpID_0Corel-Layer"/>
  <g id="_2246112287008">
   <path class="fil0" d="M2071.26 0c953.09,0 1725.72,772.63 1725.72,1725.72 0,953.09 -772.63,1725.72 -1725.72,1725.72 -953.09,0 -1725.72,-772.63 -1725.72,-1725.72 0,-953.09 772.63,-1725.72 1725.72,-1725.72zm1185.79 539.93c-303.47,-303.47 -722.71,-491.17 -1185.79,-491.17 -463.08,0 -882.33,187.7 -1185.79,491.17 -303.47,303.46 -491.17,722.71 -491.17,1185.79 0,463.08 187.7,882.33 491.17,1185.8 303.46,303.46 722.71,491.17 1185.79,491.17 463.08,0 882.33,-187.7 1185.79,-491.17 303.47,-303.47 491.17,-722.72 491.17,-1185.8 0,-463.08 -187.7,-882.33 -491.17,-1185.79z"/>
   <path class="fil1" d="M1725.72 312.36c953.09,0 1725.72,772.63 1725.72,1725.72 0,953.09 -772.63,1725.72 -1725.72,1725.72 -953.09,0 -1725.72,-772.63 -1725.72,-1725.72 0,-953.09 772.63,-1725.72 1725.72,-1725.72zm1185.8 539.93c-303.47,-303.47 -722.72,-491.17 -1185.8,-491.17 -463.08,0 -882.33,187.7 -1185.79,491.17 -303.47,303.46 -491.17,722.71 -491.17,1185.79 0,463.08 187.7,882.33 491.17,1185.8 303.46,303.46 722.71,491.17 1185.79,491.17 463.08,0 882.33,-187.7 1185.8,-491.17 303.46,-303.47 491.17,-722.72 491.17,-1185.8 0,-463.08 -187.7,-882.33 -491.17,-1185.79z"/>
   <path class="fil2" d="M1055.75 949.12c673.94,-673.94 1766.6,-673.94 2440.54,0 673.94,673.94 673.94,1766.6 0,2440.54 -673.94,673.94 -1766.6,673.94 -2440.54,0 -673.94,-673.94 -673.94,-1766.6 0,-2440.54zm1220.27 -456.69c-429.17,0 -858.35,163.72 -1185.79,491.17 -327.44,327.44 -491.17,756.62 -491.17,1185.79 0,429.17 163.72,858.35 491.17,1185.79 327.44,327.44 756.62,491.17 1185.79,491.17 429.18,0 858.35,-163.72 1185.8,-491.17 327.44,-327.44 491.17,-756.62 491.17,-1185.79 0,-429.17 -163.73,-858.35 -491.17,-1185.79 -327.44,-327.44 -756.62,-491.17 -1185.8,-491.17z"/>
   <path class="fil3" d="M1156.77 2624.97l-268.8 0 505.35 -1354.83 236.57 0 370.97 994.51 370.96 -994.51 236.58 0 505.38 1354.83 -268.83 0c-234.87,-678.51 -69.55,-202.44 -354.84,-1010.74l-354.83 1010.74 -268.81 0 -0.02 0 -96.78 -279.58 -516.12 0 -96.78 279.58zm526.87 -516.13l-172.03 -494.61 -172.03 494.61 344.07 0z"/>
  </g>
 </g>
</svg>
