<?xml version="1.0" encoding="UTF-8"?>
<!DOCTYPE svg PUBLIC "-//W3C//DTD SVG 1.1//EN" "http://www.w3.org/Graphics/SVG/1.1/DTD/svg11.dtd">
<!-- Creator: CorelDRAW 2019 (64-Bit) -->
<svg xmlns="http://www.w3.org/2000/svg" xml:space="preserve" width="335.059mm" height="112.728mm" version="1.1" style="shape-rendering:geometricPrecision; text-rendering:geometricPrecision; image-rendering:optimizeQuality; fill-rule:evenodd; clip-rule:evenodd"
viewBox="0 0 33494.28 11268.87"
 xmlns:xlink="http://www.w3.org/1999/xlink">
 <defs>
  <style type="text/css">
   <![CDATA[
    .fil0 {fill:white}
    .fil1 {fill:white;fill-rule:nonzero}
   ]]>
  </style>
 </defs>
 <g id="Слой_x0020_1">
  <metadata id="CorelCorpID_0Corel-Layer"/>
  <g id="_2246116537168">
   <g>
    <path class="fil0" d="M5992.32 0c2757.36,0 4992.65,2235.29 4992.65,4992.65 0,2757.37 -2235.29,4992.66 -4992.65,4992.66 -2757.36,0 -4992.65,-2235.29 -4992.65,-4992.66 0,-2757.36 2235.29,-4992.65 4992.65,-4992.65zm3430.6 1562.05c-877.96,-877.96 -2090.87,-1420.99 -3430.6,-1420.99 -1339.74,0 -2552.66,543.03 -3430.6,1420.99 -877.96,877.95 -1420.99,2090.87 -1420.99,3430.6 0,1339.74 543.03,2552.66 1420.99,3430.61 877.95,877.95 2090.87,1420.99 3430.6,1420.99 1339.74,0 2552.66,-543.04 3430.6,-1420.99 877.96,-877.96 1420.99,-2090.88 1420.99,-3430.61 0,-1339.74 -543.04,-2552.66 -1420.99,-3430.6z"/>
    <path class="fil0" d="M4992.65 903.69c2757.37,0 4992.66,2235.29 4992.66,4992.65 0,2757.37 -2235.29,4992.66 -4992.66,4992.66 -2757.36,0 -4992.65,-2235.29 -4992.65,-4992.66 0,-2757.36 2235.29,-4992.65 4992.65,-4992.65zm3430.61 1562.05c-877.96,-877.96 -2090.88,-1420.99 -3430.61,-1420.99 -1339.74,0 -2552.66,543.03 -3430.6,1420.99 -877.96,877.95 -1420.99,2090.87 -1420.99,3430.6 0,1339.74 543.03,2552.66 1420.99,3430.61 877.95,877.95 2090.87,1420.99 3430.6,1420.99 1339.74,0 2552.66,-543.03 3430.61,-1420.99 877.95,-877.96 1420.99,-2090.88 1420.99,-3430.61 0,-1339.74 -543.04,-2552.66 -1420.99,-3430.6z"/>
    <path class="fil0" d="M3054.36 2745.87c1949.75,-1949.75 5110.93,-1949.75 7060.68,0 1949.75,1949.75 1949.75,5110.92 0,7060.67 -1949.75,1949.75 -5110.93,1949.75 -7060.68,0 -1949.75,-1949.75 -1949.75,-5110.92 0,-7060.67zm3530.34 -1321.25c-1241.63,0 -2483.29,473.67 -3430.6,1420.99 -947.32,947.31 -1420.99,2188.97 -1420.99,3430.6 0,1241.63 473.67,2483.28 1420.99,3430.6 947.31,947.32 2188.97,1420.99 3430.6,1420.99 1241.64,0 2483.29,-473.67 3430.61,-1420.99 947.31,-947.32 1420.99,-2188.97 1420.99,-3430.6 0,-1241.63 -473.68,-2483.29 -1420.99,-3430.6 -947.32,-947.32 -2188.97,-1420.99 -3430.61,-1420.99z"/>
    <path class="fil1" d="M3346.63 7594.26l-777.67 0 1462.03 -3919.64 684.42 0 1073.26 2877.21 1073.21 -2877.21 684.43 0 1462.1 3919.64 -777.75 0c-679.5,-1962.98 -201.2,-585.68 -1026.57,-2924.15l-1026.56 2924.15 -777.68 0 -0.07 0 -279.98 -808.84 -1493.18 0 -279.98 808.84zm1524.28 -1493.2l-497.71 -1430.94 -497.71 1430.94 995.42 0z"/>
   </g>
   <path class="fil1" d="M14320.8 4871.94l-321.58 0 771.05 -2022.07 255.76 0 771.05 2022.07 -321.05 0 -177.11 -465.52 -802.62 0 -175.51 465.52zm866.83 -753.93l-290.01 -802.62 -288.41 802.62 578.42 0z"/>
   <path id="1" class="fil1" d="M16148.09 3860.64c0,108.62 19.26,209.22 56.72,301.25 37.46,92.04 86.68,171.76 148.22,239.19 61,67.42 131.09,119.86 209.75,157.31 79.19,37.46 160.52,56.72 244,56.72 77.05,0 147.15,-11.24 209.22,-33.71 62.07,-22.47 116.65,-54.04 163.73,-93.64 47.09,-39.6 86.15,-85.61 116.65,-138.05 31.04,-51.9 54.58,-108.08 71.71,-167.48l321.04 0c-24.07,96.32 -61.53,187.29 -112.9,272.9 -50.83,85.61 -114.5,160.52 -190.48,224.73 -75.44,64.21 -162.13,115.04 -259.51,151.97 -96.86,37.45 -203.33,55.64 -319.45,55.64 -128.42,0 -250.95,-26.22 -367.59,-78.12 -116.65,-52.43 -218.85,-125.21 -306.6,-217.77 -87.75,-93.1 -157.85,-201.72 -210.29,-326.4 -51.9,-124.14 -78.12,-258.98 -78.12,-404.52 0,-142.87 26.22,-277.17 78.12,-402.92 52.44,-125.21 122.54,-234.36 210.29,-327.47 87.75,-93.1 189.95,-165.33 306.6,-217.77 116.64,-52.44 239.18,-78.65 367.59,-78.65 110.76,0 214.57,18.72 310.88,55.64 96.85,37.46 181.93,87.76 255.77,152.5 73.83,64.22 136.44,139.12 187.81,224.73 51.9,85.62 89.36,176.58 112.36,272.9l-321.58 0c-16.59,-59.93 -40.67,-116.11 -71.71,-168.55 -31.57,-52.97 -70.1,-98.99 -116.11,-138.05 -46.01,-39.06 -98.99,-70.1 -158.39,-92.57 -59.39,-22.47 -125.75,-33.71 -199.05,-33.71 -83.47,0 -164.8,18.73 -244,55.65 -78.65,36.92 -148.75,89.36 -209.75,156.78 -61.54,67.42 -110.76,147.15 -148.22,239.72 -37.46,92.57 -56.72,193.16 -56.72,301.79z"/>
   <path id="2" class="fil1" d="M18170.16 3860.64c0,108.62 19.26,209.22 56.72,301.25 37.46,92.04 86.68,171.76 148.22,239.19 61,67.42 131.09,119.86 209.75,157.31 79.19,37.46 160.52,56.72 244,56.72 77.05,0 147.15,-11.24 209.22,-33.71 62.07,-22.47 116.65,-54.04 163.73,-93.64 47.09,-39.6 86.15,-85.61 116.65,-138.05 31.04,-51.9 54.58,-108.08 71.71,-167.48l321.04 0c-24.07,96.32 -61.53,187.29 -112.9,272.9 -50.83,85.61 -114.5,160.52 -190.48,224.73 -75.44,64.21 -162.13,115.04 -259.51,151.97 -96.86,37.45 -203.33,55.64 -319.45,55.64 -128.42,0 -250.95,-26.22 -367.59,-78.12 -116.65,-52.43 -218.85,-125.21 -306.6,-217.77 -87.75,-93.1 -157.85,-201.72 -210.29,-326.4 -51.9,-124.14 -78.12,-258.98 -78.12,-404.52 0,-142.87 26.22,-277.17 78.12,-402.92 52.44,-125.21 122.54,-234.36 210.29,-327.47 87.75,-93.1 189.95,-165.33 306.6,-217.77 116.64,-52.44 239.18,-78.65 367.59,-78.65 110.76,0 214.57,18.72 310.88,55.64 96.85,37.46 181.93,87.76 255.77,152.5 73.83,64.22 136.44,139.12 187.81,224.73 51.9,85.62 89.36,176.58 112.36,272.9l-321.58 0c-16.59,-59.93 -40.67,-116.11 -71.71,-168.55 -31.57,-52.97 -70.1,-98.99 -116.11,-138.05 -46.01,-39.06 -98.99,-70.1 -158.39,-92.57 -59.39,-22.47 -125.75,-33.71 -199.05,-33.71 -83.47,0 -164.8,18.73 -244,55.65 -78.65,36.92 -148.75,89.36 -209.75,156.78 -61.54,67.42 -110.76,147.15 -148.22,239.72 -37.46,92.57 -56.72,193.16 -56.72,301.79z"/>
   <path id="3" class="fil1" d="M21509.07 3860.64c0,-108.62 -18.73,-209.22 -56.18,-301.79 -37.46,-92.57 -86.69,-172.3 -147.69,-239.72 -60.46,-67.42 -130.55,-119.86 -209.75,-156.78 -79.73,-36.92 -161.06,-55.65 -244.54,-55.65 -83.47,0 -164.8,18.73 -244,55.65 -78.65,36.92 -148.75,89.36 -209.75,156.78 -61.54,67.42 -110.76,147.15 -148.22,239.18 -37.46,92.04 -56.72,192.63 -56.72,302.33 0,108.62 19.26,209.22 56.72,301.25 37.46,92.04 86.68,171.76 148.22,239.19 61,67.42 131.09,119.86 209.75,157.31 79.19,37.46 160.52,56.72 244,56.72 83.47,0 164.8,-19.26 244.54,-56.72 79.19,-37.45 149.29,-89.89 209.75,-157.31 61,-67.43 110.23,-147.15 147.69,-239.19 37.45,-92.03 56.18,-192.62 56.18,-301.25zm304.45 0c0,145.54 -26.21,280.38 -78.65,404.52 -52.44,124.68 -122,233.3 -209.75,326.4 -88.29,92.57 -189.95,165.34 -306.6,217.77 -116.65,51.9 -239.18,78.12 -367.6,78.12 -128.42,0 -250.95,-26.22 -367.59,-78.12 -116.65,-52.43 -218.85,-125.21 -306.6,-217.77 -87.75,-93.1 -157.85,-201.72 -210.29,-326.4 -51.9,-124.14 -78.12,-258.98 -78.12,-404.52 0,-142.87 26.22,-277.17 78.12,-402.92 52.44,-125.21 122.54,-234.36 210.29,-327.47 87.75,-93.1 189.95,-165.33 306.6,-217.77 116.64,-52.44 239.18,-78.65 367.59,-78.65 128.43,0 250.95,26.21 367.6,78.65 116.65,52.44 218.31,124.68 306.6,217.77 87.75,93.11 157.31,202.26 209.75,327.47 52.44,125.75 78.65,260.05 78.65,402.92z"/>
   <polygon id="4" class="fil1" points="23884.28,4583.53 23884.28,5273.25 23595.88,5273.25 23595.88,4871.94 22167.75,4871.94 22167.75,2849.87 22472.21,2849.87 22472.21,4583.53 23354.56,4583.53 23354.56,2849.87 23660.09,2849.87 23660.09,4583.53 "/>
   <polygon id="5" class="fil1" points="25425.32,4871.94 25425.32,3426.69 24445.59,4871.94 24189.82,4871.94 24189.82,2849.87 24494.28,2849.87 24494.28,4293.52 25474.01,2849.87 25730.85,2849.87 25730.85,4871.94 "/>
   <path id="6" class="fil1" d="M26292.15 4871.94l-321.58 0 771.05 -2022.07 255.76 0 771.05 2022.07 -321.05 0 -177.11 -465.52 -802.62 0 -175.51 465.52zm866.83 -753.93l-290.01 -802.62 -288.41 802.62 578.42 0z"/>
   <polygon id="7" class="fil1" points="29724.68,4583.53 29724.68,5273.25 29436.28,5273.25 29436.28,4871.94 28008.15,4871.94 28008.15,2849.87 28312.61,2849.87 28312.61,4583.53 29194.95,4583.53 29194.95,2849.87 29500.49,2849.87 29500.49,4583.53 "/>
   <polygon id="8" class="fil1" points="31265.72,4871.94 31265.72,3426.69 30285.99,4871.94 30030.21,4871.94 30030.21,2849.87 30334.68,2849.87 30334.68,4293.52 31314.41,2849.87 31571.25,2849.87 31571.25,4871.94 "/>
   <path id="9" class="fil1" d="M32243.85 4871.94l-337.1 0 498.16 -834.19c-81.33,-25.68 -154.1,-65.82 -217.77,-118.79 -55.11,-42.81 -105.41,-102.19 -149.82,-177.11 -44.41,-75.44 -66.36,-169.62 -66.36,-282.52 0,-83.47 16.05,-162.66 48.69,-237.04 32.11,-74.91 75.45,-139.66 130.02,-194.77 54.04,-54.58 118.79,-97.92 194.23,-130.02 75.45,-32.1 154.65,-47.62 238.12,-47.62l785.5 0 0 2022.07 -303.92 0 0 -802.62 -354.23 0 -465.52 802.62zm819.75 -1733.66l-481.57 0c-40.67,0 -79.19,8.57 -115.58,25.68 -36.92,17.12 -69.03,40.14 -96.85,69.03 -27.29,28.9 -49.76,62.61 -67.43,101.13 -17.12,38.53 -25.68,80.26 -25.68,125.21 0,44.94 8.56,86.68 25.68,125.75 17.66,38.53 40.14,72.23 67.43,101.12 27.82,28.36 59.93,51.37 96.85,69.03 36.39,17.12 74.91,25.68 115.58,25.68l481.57 0 0 -642.63z"/>
   <path id="10" class="fil1" d="M15781.57 6060.35l0 2022.07 -305.53 0 0 -1733.66 -705.77 0 -81.33 1123.67c-14.45,201.72 -73.3,356.36 -176.58,464.45 -102.73,107.55 -231.16,161.05 -384.73,161.05 -18.72,0 -36.38,-0.53 -52.43,-1.6 -16.05,-1.07 -29.43,-2.68 -40.14,-4.29 -12.31,-2.14 -24.07,-5.35 -35.85,-9.63l0 -256.84 31.57 0c95.78,0 177.11,-33.17 242.93,-98.46 65.82,-65.28 102.73,-149.82 111.3,-254.69l111.29 -1412.08 1285.26 0z"/>
   <polygon id="11" class="fil1" points="17770.52,8082.42 17770.52,6637.17 16790.79,8082.42 16535.02,8082.42 16535.02,6060.35 16839.49,6060.35 16839.49,7504 17819.22,6060.35 18076.06,6060.35 18076.06,8082.42 "/>
   <polygon id="12" class="fil1" points="20546.04,7794.01 20546.04,8483.73 20257.64,8483.73 20257.64,8082.42 18829.51,8082.42 18829.51,6060.35 19133.97,6060.35 19133.97,7794.01 20016.31,7794.01 20016.31,6060.35 20321.85,6060.35 20321.85,7794.01 "/>
   <polygon id="13" class="fil1" points="22487.92,7794.01 22487.92,8082.42 21123.99,8082.42 21123.99,6060.35 22456.34,6060.35 22456.34,6348.76 21428.45,6348.76 21428.45,6894.01 22375.01,6894.01 22375.01,7184.02 21428.45,7184.02 21428.45,7794.01 "/>
   <polygon id="14" class="fil1" points="24397.14,8082.42 24397.14,6637.17 23417.41,8082.42 23161.63,8082.42 23161.63,6060.35 23466.1,6060.35 23466.1,7504 24445.83,6060.35 24702.67,6060.35 24702.67,8082.42 "/>
   <path id="15" class="fil1" d="M25631.63 7071.12c0,108.62 19.26,209.22 56.72,301.25 37.46,92.04 86.68,171.76 148.22,239.19 61,67.42 131.09,119.86 209.75,157.31 79.19,37.46 160.52,56.72 244,56.72 77.05,0 147.15,-11.24 209.22,-33.71 62.07,-22.47 116.65,-54.04 163.73,-93.64 47.09,-39.6 86.15,-85.61 116.65,-138.05 31.04,-51.9 54.58,-108.08 71.71,-167.48l321.04 0c-24.07,96.32 -61.53,187.29 -112.9,272.9 -50.83,85.61 -114.5,160.52 -190.48,224.73 -75.44,64.21 -162.13,115.04 -259.51,151.97 -96.86,37.45 -203.33,55.64 -319.45,55.64 -128.42,0 -250.95,-26.22 -367.59,-78.12 -116.65,-52.43 -218.85,-125.21 -306.6,-217.77 -87.75,-93.1 -157.85,-201.72 -210.29,-326.4 -51.9,-124.14 -78.12,-258.98 -78.12,-404.52 0,-142.87 26.22,-277.17 78.12,-402.92 52.44,-125.21 122.54,-234.36 210.29,-327.47 87.75,-93.1 189.95,-165.33 306.6,-217.77 116.64,-52.44 239.18,-78.65 367.59,-78.65 110.76,0 214.57,18.72 310.88,55.64 96.85,37.46 181.93,87.76 255.77,152.5 73.83,64.22 136.44,139.12 187.81,224.73 51.9,85.62 89.36,176.58 112.36,272.9l-321.58 0c-16.59,-59.93 -40.67,-116.11 -71.71,-168.55 -31.57,-52.97 -70.1,-98.99 -116.11,-138.05 -46.01,-39.06 -98.99,-70.1 -158.39,-92.57 -59.39,-22.47 -125.75,-33.71 -199.05,-33.71 -83.47,0 -164.8,18.73 -244,55.65 -78.65,36.92 -148.75,89.36 -209.75,156.78 -61.54,67.42 -110.76,147.15 -148.22,239.72 -37.46,92.57 -56.72,193.16 -56.72,301.79z"/>
   <polygon id="16" class="fil1" points="27589.55,6060.35 29114.52,6060.35 29114.52,6348.76 28503.46,6348.76 28503.46,8082.42 28199.01,8082.42 28199.01,6348.76 27589.55,6348.76 "/>
   <path id="17" class="fil1" d="M31103.48 7071.12c0,-108.62 -18.73,-209.22 -56.18,-301.79 -37.46,-92.57 -86.69,-172.3 -147.69,-239.72 -60.46,-67.42 -130.55,-119.86 -209.75,-156.78 -79.73,-36.92 -161.06,-55.65 -244.54,-55.65 -83.47,0 -164.8,18.73 -244,55.65 -78.65,36.92 -148.75,89.36 -209.75,156.78 -61.54,67.42 -110.76,147.15 -148.22,239.18 -37.46,92.04 -56.72,192.63 -56.72,302.33 0,108.62 19.26,209.22 56.72,301.25 37.46,92.04 86.68,171.76 148.22,239.19 61,67.42 131.09,119.86 209.75,157.31 79.19,37.46 160.52,56.72 244,56.72 83.47,0 164.8,-19.26 244.54,-56.72 79.19,-37.45 149.29,-89.89 209.75,-157.31 61,-67.43 110.23,-147.15 147.69,-239.19 37.45,-92.03 56.18,-192.62 56.18,-301.25zm304.45 0c0,145.54 -26.21,280.38 -78.65,404.52 -52.44,124.68 -122,233.3 -209.75,326.4 -88.29,92.57 -189.95,165.34 -306.6,217.77 -116.65,51.9 -239.18,78.12 -367.6,78.12 -128.42,0 -250.95,-26.22 -367.59,-78.12 -116.65,-52.43 -218.85,-125.21 -306.6,-217.77 -87.75,-93.1 -157.85,-201.72 -210.29,-326.4 -51.9,-124.14 -78.12,-258.98 -78.12,-404.52 0,-142.87 26.22,-277.17 78.12,-402.92 52.44,-125.21 122.54,-234.36 210.29,-327.47 87.75,-93.1 189.95,-165.33 306.6,-217.77 116.64,-52.44 239.18,-78.65 367.59,-78.65 128.43,0 250.95,26.21 367.6,78.65 116.65,52.44 218.31,124.68 306.6,217.77 87.75,93.11 157.31,202.26 209.75,327.47 52.44,125.75 78.65,260.05 78.65,402.92z"/>
   <path id="18" class="fil1" d="M33205.87 7006.91c52.97,30.5 101.12,69.03 143.94,116.11 36.92,40.67 70.1,92.04 99.53,153.57 29.96,61.54 44.94,137.51 44.94,227.41 0,77.05 -16.05,150.89 -48.16,220.45 -31.57,69.03 -76.51,130.55 -134.83,183 -57.79,52.97 -125.75,95.25 -203.33,127.35 -78.12,31.57 -163.2,47.62 -255.24,47.62l-818.14 0 0 -2022.07 802.62 0c79.73,0 154.64,14.45 225.27,44.41 70.1,29.97 131.62,70.64 184.07,121.47 51.9,51.36 93.11,110.76 123.07,178.18 29.97,67.42 44.41,139.65 44.41,217.24 0,63.67 -11.24,119.86 -33.71,168.01 -22.48,48.69 -46.02,88.82 -71.17,120.39 -30.5,38.53 -64.75,70.64 -103.27,96.86zm-866.83 -112.9l498.16 0c81.87,0 149.83,-27.29 205.47,-81.33 55.65,-54.58 82.94,-118.26 82.94,-191.02 0,-73.3 -27.82,-136.98 -83.47,-191.56 -56.18,-54.58 -124.14,-81.33 -204.94,-81.33l-498.16 0 0 545.25zm513.67 900c47.09,0 91.51,-8.56 133.24,-25.68 42.27,-17.65 78.11,-40.67 107.54,-69.03 29.97,-28.89 53.51,-62.61 70.64,-101.12 17.12,-39.07 25.68,-80.8 25.68,-125.75 0,-44.94 -8.56,-86.69 -25.68,-125.21 -17.12,-38.53 -40.67,-72.23 -70.64,-101.13 -29.43,-28.89 -65.28,-51.9 -107.54,-69.03 -41.74,-17.12 -86.15,-25.68 -133.24,-25.68l-513.67 0 0 642.63 513.67 0z"/>
  </g>
 </g>
</svg>
