<?xml version="1.0" encoding="UTF-8"?>
<!DOCTYPE svg PUBLIC "-//W3C//DTD SVG 1.1//EN" "http://www.w3.org/Graphics/SVG/1.1/DTD/svg11.dtd">
<!-- Creator: CorelDRAW 2019 (64-Bit) -->
<svg xmlns="http://www.w3.org/2000/svg" xml:space="preserve" width="71.1262mm" height="71.0519mm" version="1.1" style="shape-rendering:geometricPrecision; text-rendering:geometricPrecision; image-rendering:optimizeQuality; fill-rule:evenodd; clip-rule:evenodd"
viewBox="0 0 2349.71 2347.26"
 xmlns:xlink="http://www.w3.org/1999/xlink">
 <defs>
  <style type="text/css">
   <![CDATA[
    .fil0 {fill:#34B36E;fill-rule:nonzero}
    .fil2 {fill:#4871B3;fill-rule:nonzero}
    .fil1 {fill:#FFD31A;fill-rule:nonzero}
   ]]>
  </style>
 </defs>
 <g id="Слой_x0020_1">
  <metadata id="CorelCorpID_0Corel-Layer"/>
  <g id="_2468986413040">
   <polygon class="fil0" points="1240.51,179.49 1074,0 907.5,179.49 1001.75,179.49 1001.75,2347.26 1143.38,2347.26 1143.38,179.49 "/>
   <path class="fil1" d="M2349.71 738.06l-179.49 -166.5 0 91.85 -506.29 0c-421.16,0 -630.47,201 -732.28,368.92 -109.39,180.44 -118.61,360.89 -118.94,368.45l0.19 1.55 0 944.93 141.63 0 0 -941.31c0,-14.94 12.89,-162.27 100.96,-304.8 121.01,-195.85 325.64,-296.11 608.43,-296.11l506.29 0 0 99.53 179.49 -166.5z"/>
   <path class="fil2" d="M1244.78 1399.22c-82.52,-163.46 -257.63,-358.12 -626.84,-358.12l-438.44 0 0 -99.4 -179.49 166.51 179.49 166.5 0 -91.97 438.44 0c236.66,0 403.87,92.9 498.19,276.19 73.51,142.85 74.47,290.12 74.47,291.43l0 596.91 141.63 0 0 -596.91c0,-7.21 -0.23,-178.36 -87.45,-351.13z"/>
  </g>
 </g>
</svg>
