<?xml version="1.0" encoding="UTF-8"?>
<!DOCTYPE svg PUBLIC "-//W3C//DTD SVG 1.1//EN" "http://www.w3.org/Graphics/SVG/1.1/DTD/svg11.dtd">
<!-- Creator: CorelDRAW 2019 (64-Bit) -->
<svg xmlns="http://www.w3.org/2000/svg" xml:space="preserve" width="215.184mm" height="90.6335mm" version="1.1" style="shape-rendering:geometricPrecision; text-rendering:geometricPrecision; image-rendering:optimizeQuality; fill-rule:evenodd; clip-rule:evenodd"
viewBox="0 0 21506.81 9058.46"
 xmlns:xlink="http://www.w3.org/1999/xlink">
 <defs>
  <style type="text/css">
   <![CDATA[
    .fil0 {fill:#34B36E;fill-rule:nonzero}
    .fil3 {fill:#3F3D41;fill-rule:nonzero}
    .fil2 {fill:#4871B3;fill-rule:nonzero}
    .fil1 {fill:#FFD31A;fill-rule:nonzero}
   ]]>
  </style>
 </defs>
 <g id="Слой_x0020_1">
  <metadata id="CorelCorpID_0Corel-Layer"/>
  <g id="_2246122718192">
   <g>
    <polygon class="fil0" points="3753.01,543.04 3249.27,0 2745.53,543.04 3030.68,543.04 3030.68,7101.36 3459.17,7101.36 3459.17,543.04 "/>
    <path class="fil1" d="M7108.78 2232.93l-543.04 -503.74 0 277.87 -1531.71 0c-1274.18,0 -1907.41,608.09 -2215.41,1116.14 -330.94,545.9 -358.84,1091.82 -359.84,1114.69l0.58 4.69 0 2858.79 428.49 0 0 -2847.83c0,-45.21 39.01,-490.94 305.44,-922.12 366.1,-592.53 985.18,-895.86 1840.75,-895.86l1531.71 0 0 301.11 543.04 -503.73z"/>
    <path class="fil2" d="M3765.93 4233.17c-249.65,-494.52 -779.42,-1083.47 -1896.45,-1083.47l-1326.44 0 0 -300.74 -543.04 503.75 543.04 503.73 0 -278.24 1326.44 0c715.98,0 1221.87,281.06 1507.23,835.57 222.4,432.17 225.3,877.74 225.3,881.69l0 1805.9 428.49 0 0 -1805.89c0,-21.81 -0.71,-539.62 -264.57,-1062.31z"/>
   </g>
   <polygon class="fil3" points="5755.58,5151.38 5755.58,6044.65 5620.61,6044.65 5620.61,5491.29 5365.79,6044.65 5280.7,6044.65 5025.18,5491.29 5025.18,6044.65 4890.67,6044.65 4890.67,5151.38 5003.66,5151.38 5322.77,5839 5642.12,5151.38 "/>
   <polygon id="1" class="fil3" points="6514.12,6044.65 6514.12,5406.19 6081.31,6044.65 5968.32,6044.65 5968.32,5151.38 6102.83,5151.38 6102.83,5789.13 6535.63,5151.38 6649.09,5151.38 6649.09,6044.65 "/>
   <polygon id="2" class="fil3" points="7542.36,5151.38 7542.36,6044.65 7407.38,6044.65 7407.38,5654.86 6996.1,5654.86 6996.1,6044.65 6861.59,6044.65 6861.59,5151.38 6996.1,5151.38 6996.1,5526.75 7407.38,5526.75 7407.38,5151.38 "/>
   <polygon id="3" class="fil3" points="8300.65,6044.65 8300.65,5406.19 7867.84,6044.65 7754.86,6044.65 7754.86,5151.38 7889.36,5151.38 7889.36,5789.13 8322.17,5151.38 8435.63,5151.38 8435.63,6044.65 "/>
   <path id="4" class="fil3" d="M8725.66 5597.9c0,47.98 8.51,92.42 25.06,133.08 16.54,40.66 38.29,75.88 65.47,105.66 26.95,29.78 57.91,52.94 92.66,69.49 34.98,16.54 70.91,25.06 107.79,25.06 34.03,0 64.99,-4.97 92.42,-14.89 27.42,-9.93 51.53,-23.88 72.33,-41.37 20.8,-17.49 38.06,-37.82 51.53,-60.99 13.7,-22.93 24.11,-47.74 31.67,-73.98l141.82 0c-10.63,42.55 -27.19,82.73 -49.87,120.54 -22.46,37.82 -50.58,70.91 -84.15,99.28 -33.32,28.37 -71.62,50.82 -114.64,67.13 -42.79,16.55 -89.82,24.59 -141.11,24.59 -56.74,0 -110.87,-11.58 -162.39,-34.51 -51.53,-23.17 -96.68,-55.31 -135.45,-96.21 -38.77,-41.13 -69.73,-89.11 -92.9,-144.19 -22.93,-54.84 -34.51,-114.41 -34.51,-178.69 0,-63.12 11.58,-122.44 34.51,-177.99 23.17,-55.31 54.13,-103.53 92.9,-144.66 38.77,-41.14 83.91,-73.04 135.45,-96.21 51.52,-23.17 105.65,-34.75 162.39,-34.75 48.92,0 94.78,8.28 137.33,24.59 42.79,16.54 80.38,38.77 112.99,67.36 32.62,28.36 60.28,61.46 82.98,99.28 22.93,37.83 39.47,78.01 49.63,120.55l-142.06 0c-7.33,-26.48 -17.96,-51.29 -31.67,-74.46 -13.94,-23.4 -30.96,-43.73 -51.29,-60.98 -20.33,-17.26 -43.73,-30.97 -69.97,-40.9 -26.24,-9.92 -55.54,-14.89 -87.92,-14.89 -36.88,0 -72.81,8.28 -107.79,24.59 -34.75,16.31 -65.71,39.47 -92.66,69.25 -27.19,29.78 -48.93,65 -65.47,105.9 -16.55,40.89 -25.06,85.33 -25.06,133.32z"/>
   <polygon id="5" class="fil3" points="9470.25,5151.38 10143.93,5151.38 10143.93,5278.78 9873.98,5278.78 9873.98,6044.65 9739.49,6044.65 9739.49,5278.78 9470.25,5278.78 "/>
   <polygon id="6" class="fil3" points="10873.86,5917.24 10873.86,6044.65 10271.33,6044.65 10271.33,5151.38 10859.91,5151.38 10859.91,5278.78 10405.84,5278.78 10405.84,5519.65 10823.98,5519.65 10823.98,5647.77 10405.84,5647.77 10405.84,5917.24 "/>
   <path id="7" class="fil3" d="M11377.34 5151.38c38.77,0 75.41,7.33 109.68,22.46 34.51,14.89 64.53,35.21 90.06,60.98 25.77,25.54 46.1,55.55 60.99,90.06 15.12,34.28 22.45,70.91 22.45,109.68 0,38.77 -7.33,75.41 -22.45,110.15 -14.89,34.51 -35.22,64.54 -60.99,90.06 -25.54,25.3 -55.55,45.63 -90.06,60.75 -34.27,15.36 -70.91,22.93 -109.68,22.93l-191.7 0 0 326.2 -134.51 0 0 -893.27 326.2 0zm0 439.66c19.86,0 38.77,-4.02 56.5,-12.05 17.72,-8.05 33.56,-19.39 47.27,-33.57 13.94,-14.42 24.82,-30.96 33.09,-49.87 8.04,-18.91 12.05,-39.24 12.05,-60.99 0,-20.8 -4.02,-40.66 -12.05,-59.57 -8.28,-18.91 -19.15,-35.45 -33.09,-49.4 -13.71,-14.18 -29.55,-25.53 -47.27,-34.03 -17.73,-8.52 -36.64,-12.77 -56.5,-12.77l-191.7 0 0 312.26 191.7 0z"/>
   <path id="8" class="fil3" d="M11893.83 5597.9c0,47.98 8.51,92.42 25.06,133.08 16.54,40.66 38.29,75.88 65.47,105.66 26.95,29.78 57.91,52.94 92.66,69.49 34.98,16.54 70.91,25.06 107.79,25.06 34.03,0 64.99,-4.97 92.42,-14.89 27.42,-9.93 51.53,-23.88 72.33,-41.37 20.8,-17.49 38.06,-37.82 51.53,-60.99 13.7,-22.93 24.11,-47.74 31.67,-73.98l141.82 0c-10.63,42.55 -27.19,82.73 -49.87,120.54 -22.46,37.82 -50.58,70.91 -84.15,99.28 -33.32,28.37 -71.62,50.82 -114.64,67.13 -42.79,16.55 -89.82,24.59 -141.11,24.59 -56.74,0 -110.87,-11.58 -162.39,-34.51 -51.53,-23.17 -96.68,-55.31 -135.45,-96.21 -38.77,-41.13 -69.73,-89.11 -92.9,-144.19 -22.93,-54.84 -34.51,-114.41 -34.51,-178.69 0,-63.12 11.58,-122.44 34.51,-177.99 23.17,-55.31 54.13,-103.53 92.9,-144.66 38.77,-41.14 83.91,-73.04 135.45,-96.21 51.52,-23.17 105.65,-34.75 162.39,-34.75 48.92,0 94.78,8.28 137.33,24.59 42.79,16.54 80.38,38.77 112.99,67.36 32.62,28.36 60.28,61.46 82.98,99.28 22.93,37.83 39.47,78.01 49.63,120.55l-142.06 0c-7.33,-26.48 -17.96,-51.29 -31.67,-74.46 -13.94,-23.4 -30.96,-43.73 -51.29,-60.98 -20.33,-17.26 -43.73,-30.97 -69.97,-40.9 -26.24,-9.92 -55.54,-14.89 -87.92,-14.89 -36.88,0 -72.81,8.28 -107.79,24.59 -34.75,16.31 -65.71,39.47 -92.66,69.25 -27.19,29.78 -48.93,65 -65.47,105.9 -16.55,40.89 -25.06,85.33 -25.06,133.32z"/>
   <polygon id="9" class="fil3" points="12638.42,5151.38 13312.1,5151.38 13312.1,5278.78 13042.15,5278.78 13042.15,6044.65 12907.66,6044.65 12907.66,5278.78 12638.42,5278.78 "/>
   <path id="10" class="fil3" d="M13956.93 5569.53c23.41,13.48 44.68,30.49 63.59,51.3 16.31,17.96 30.97,40.66 43.97,67.83 13.24,27.19 19.86,60.76 19.86,100.47 0,34.03 -7.1,66.65 -21.28,97.39 -13.94,30.49 -33.8,57.68 -59.57,80.84 -25.53,23.41 -55.54,42.08 -89.82,56.26 -34.51,13.94 -72.09,21.04 -112.75,21.04l-361.42 0 0 -893.27 354.57 0c35.22,0 68.31,6.38 99.52,19.62 30.96,13.23 58.15,31.2 81.32,53.65 22.93,22.7 41.13,48.93 54.36,78.72 13.24,29.78 19.62,61.7 19.62,95.97 0,28.13 -4.96,52.95 -14.89,74.22 -9.92,21.52 -20.33,39.24 -31.43,53.19 -13.47,17.02 -28.6,31.2 -45.63,42.78zm-382.92 -49.87l220.06 0c36.17,0 66.18,-12.05 90.77,-35.93 24.59,-24.11 36.64,-52.23 36.64,-84.38 0,-32.38 -12.29,-60.51 -36.88,-84.62 -24.82,-24.11 -54.84,-35.93 -90.53,-35.93l-220.06 0 0 240.87zm226.92 397.59c20.8,0 40.42,-3.78 58.86,-11.34 18.67,-7.8 34.51,-17.96 47.51,-30.49 13.23,-12.76 23.64,-27.66 31.2,-44.68 7.56,-17.25 11.34,-35.69 11.34,-55.55 0,-19.85 -3.79,-38.29 -11.34,-55.31 -7.57,-17.02 -17.97,-31.91 -31.2,-44.68 -13,-12.76 -28.84,-22.93 -47.51,-30.49 -18.44,-7.56 -38.06,-11.34 -58.86,-11.34l-226.92 0 0 283.89 226.92 0z"/>
   <path id="11" class="fil3" d="M14900.08 5597.9c0,-47.98 -8.28,-92.43 -24.83,-133.32 -16.54,-40.9 -38.29,-76.12 -65.23,-105.9 -26.72,-29.78 -57.68,-52.94 -92.66,-69.25 -35.22,-16.31 -71.15,-24.59 -108.02,-24.59 -36.88,0 -72.81,8.28 -107.79,24.59 -34.75,16.31 -65.71,39.47 -92.66,69.25 -27.19,29.78 -48.93,65 -65.47,105.66 -16.55,40.66 -25.06,85.09 -25.06,133.56 0,47.98 8.51,92.42 25.06,133.08 16.54,40.66 38.29,75.88 65.47,105.66 26.95,29.78 57.91,52.94 92.66,69.49 34.98,16.54 70.91,25.06 107.79,25.06 36.87,0 72.8,-8.52 108.02,-25.06 34.98,-16.55 65.94,-39.71 92.66,-69.49 26.95,-29.78 48.69,-65 65.23,-105.66 16.55,-40.66 24.83,-85.09 24.83,-133.08zm134.5 0c0,64.29 -11.58,123.85 -34.75,178.69 -23.17,55.08 -53.89,103.06 -92.66,144.19 -39,40.9 -83.91,73.04 -135.45,96.21 -51.52,22.93 -105.65,34.51 -162.38,34.51 -56.74,0 -110.87,-11.58 -162.39,-34.51 -51.53,-23.17 -96.68,-55.31 -135.45,-96.21 -38.77,-41.13 -69.73,-89.11 -92.9,-144.19 -22.93,-54.84 -34.51,-114.41 -34.51,-178.69 0,-63.12 11.58,-122.44 34.51,-177.99 23.17,-55.31 54.13,-103.53 92.9,-144.66 38.77,-41.14 83.91,-73.04 135.45,-96.21 51.52,-23.17 105.65,-34.75 162.39,-34.75 56.73,0 110.86,11.58 162.38,34.75 51.53,23.17 96.45,55.07 135.45,96.21 38.77,41.13 69.49,89.35 92.66,144.66 23.17,55.55 34.75,114.88 34.75,177.99z"/>
   <path id="12" class="fil3" d="M15580.13 5597.9c0,47.98 8.51,92.42 25.06,133.08 16.54,40.66 38.29,75.88 65.47,105.66 26.95,29.78 57.91,52.94 92.66,69.49 34.98,16.54 70.91,25.06 107.79,25.06 34.03,0 64.99,-4.97 92.42,-14.89 27.42,-9.93 51.53,-23.88 72.33,-41.37 20.8,-17.49 38.06,-37.82 51.53,-60.99 13.7,-22.93 24.11,-47.74 31.67,-73.98l141.82 0c-10.63,42.55 -27.19,82.73 -49.87,120.54 -22.46,37.82 -50.58,70.91 -84.15,99.28 -33.32,28.37 -71.62,50.82 -114.64,67.13 -42.79,16.55 -89.82,24.59 -141.11,24.59 -56.74,0 -110.87,-11.58 -162.39,-34.51 -51.53,-23.17 -96.68,-55.31 -135.45,-96.21 -38.77,-41.13 -69.73,-89.11 -92.9,-144.19 -22.93,-54.84 -34.51,-114.41 -34.51,-178.69 0,-63.12 11.58,-122.44 34.51,-177.99 23.17,-55.31 54.13,-103.53 92.9,-144.66 38.77,-41.14 83.91,-73.04 135.45,-96.21 51.52,-23.17 105.65,-34.75 162.39,-34.75 48.92,0 94.78,8.28 137.33,24.59 42.79,16.54 80.38,38.77 112.99,67.36 32.62,28.36 60.28,61.46 82.98,99.28 22.93,37.83 39.47,78.01 49.63,120.55l-142.06 0c-7.33,-26.48 -17.96,-51.29 -31.67,-74.46 -13.94,-23.4 -30.96,-43.73 -51.29,-60.98 -20.33,-17.26 -43.73,-30.97 -69.97,-40.9 -26.24,-9.92 -55.54,-14.89 -87.92,-14.89 -36.88,0 -72.81,8.28 -107.79,24.59 -34.75,16.31 -65.71,39.47 -92.66,69.25 -27.19,29.78 -48.93,65 -65.47,105.9 -16.55,40.89 -25.06,85.33 -25.06,133.32z"/>
   <polygon id="13" class="fil3" points="17097.45,5151.38 17097.45,6044.65 16962.47,6044.65 16962.47,5278.78 16544.32,5278.78 16544.32,6044.65 16409.82,6044.65 16409.82,5151.38 "/>
   <path id="14" class="fil3" d="M17969.44 5597.9c0,-47.98 -8.28,-92.43 -24.83,-133.32 -16.54,-40.9 -38.29,-76.12 -65.23,-105.9 -26.72,-29.78 -57.68,-52.94 -92.66,-69.25 -35.22,-16.31 -71.15,-24.59 -108.02,-24.59 -36.88,0 -72.81,8.28 -107.79,24.59 -34.75,16.31 -65.71,39.47 -92.66,69.25 -27.19,29.78 -48.93,65 -65.47,105.66 -16.55,40.66 -25.06,85.09 -25.06,133.56 0,47.98 8.51,92.42 25.06,133.08 16.54,40.66 38.29,75.88 65.47,105.66 26.95,29.78 57.91,52.94 92.66,69.49 34.98,16.54 70.91,25.06 107.79,25.06 36.87,0 72.8,-8.52 108.02,-25.06 34.98,-16.55 65.94,-39.71 92.66,-69.49 26.95,-29.78 48.69,-65 65.23,-105.66 16.55,-40.66 24.83,-85.09 24.83,-133.08zm134.5 0c0,64.29 -11.58,123.85 -34.75,178.69 -23.17,55.08 -53.89,103.06 -92.66,144.19 -39,40.9 -83.91,73.04 -135.45,96.21 -51.52,22.93 -105.65,34.51 -162.38,34.51 -56.74,0 -110.87,-11.58 -162.39,-34.51 -51.53,-23.17 -96.68,-55.31 -135.45,-96.21 -38.77,-41.13 -69.73,-89.11 -92.9,-144.19 -22.93,-54.84 -34.51,-114.41 -34.51,-178.69 0,-63.12 11.58,-122.44 34.51,-177.99 23.17,-55.31 54.13,-103.53 92.9,-144.66 38.77,-41.14 83.91,-73.04 135.45,-96.21 51.52,-23.17 105.65,-34.75 162.39,-34.75 56.73,0 110.86,11.58 162.38,34.75 51.53,23.17 96.45,55.07 135.45,96.21 38.77,41.13 69.49,89.35 92.66,144.66 23.17,55.55 34.75,114.88 34.75,177.99z"/>
   <path id="15" class="fil3" d="M18586.62 5151.38c38.77,0 75.41,7.33 109.68,22.46 34.51,14.89 64.53,35.21 90.06,60.98 25.77,25.54 46.1,55.55 60.99,90.06 15.12,34.28 22.45,70.91 22.45,109.68 0,38.77 -7.33,75.41 -22.45,110.15 -14.89,34.51 -35.22,64.54 -60.99,90.06 -25.54,25.3 -55.55,45.63 -90.06,60.75 -34.27,15.36 -70.91,22.93 -109.68,22.93l-191.7 0 0 326.2 -134.51 0 0 -893.27 326.2 0zm0 439.66c19.86,0 38.77,-4.02 56.5,-12.05 17.72,-8.05 33.56,-19.39 47.27,-33.57 13.94,-14.42 24.82,-30.96 33.09,-49.87 8.04,-18.91 12.05,-39.24 12.05,-60.99 0,-20.8 -4.02,-40.66 -12.05,-59.57 -8.28,-18.91 -19.15,-35.45 -33.09,-49.4 -13.71,-14.18 -29.55,-25.53 -47.27,-34.03 -17.73,-8.52 -36.64,-12.77 -56.5,-12.77l-191.7 0 0 312.26 191.7 0z"/>
   <polygon id="16" class="fil3" points="18940.48,5151.38 19614.16,5151.38 19614.16,5278.78 19344.21,5278.78 19344.21,6044.65 19209.72,6044.65 19209.72,5278.78 18940.48,5278.78 "/>
   <path id="17" class="fil3" d="M19720.29 6044.65l-142.06 0 340.62 -893.27 112.99 0 340.63 893.27 -141.83 0 -78.24 -205.65 -354.57 0 -77.53 205.65zm382.93 -333.06l-128.12 -354.56 -127.4 354.56 255.52 0z"/>
   <path id="18" class="fil3" d="M20492.3 5895.73c21.75,0 40.18,8.04 55.31,24.35 15.36,16.07 22.93,36.4 22.93,60.75 0,36.17 -5.91,66.66 -17.73,91.48 -11.81,25.06 -24.82,45.63 -39,61.7 -17.26,18.91 -36.17,34.04 -56.97,45.62l-21.27 -28.36c9.22,-6.38 18.2,-14.89 26.95,-25.53 7.33,-8.28 14.41,-18.67 21.04,-31.2 6.62,-12.52 11.81,-26.71 15.6,-43.02 -24.35,0 -44.68,-7.33 -60.99,-22.46 -16.07,-14.89 -24.12,-33.33 -24.12,-55.07 0,-21.75 7.57,-40.19 22.7,-55.32 15.36,-15.36 33.8,-22.93 55.55,-22.93z"/>
   <polygon id="19" class="fil3" points="5379.74,7462.91 5025.18,7044.53 5025.18,7462.91 4890.67,7462.91 4890.67,6569.65 5025.18,6569.65 5025.18,6980.94 5351.14,6569.65 5514.71,6569.65 5152.58,7009.31 5543.08,7462.91 "/>
   <path id="20" class="fil3" d="M6251.5 6569.65l-311.78 709.13c-31.44,70.91 -63.59,121.73 -96.45,152.23 -33.09,30.49 -74.22,45.86 -123.62,45.86 -21.75,0 -40.89,-2.36 -57.67,-7.09 -9.23,-1.89 -18.21,-4.02 -26.96,-6.86l0 -113.46c4.73,1.65 10.16,3.07 16.79,4.02 4.49,0.94 10.39,1.65 17.49,2.13 7.09,0.47 14.65,0.71 22.45,0.71 28.37,0 51.77,-7.57 70.68,-22.46 18.91,-15.13 33.09,-33.57 42.31,-55.08l28.36 -63.82 -290.74 -645.31 141.83 0 212.74 481.97 213.21 -481.97 141.35 0z"/>
   <path id="21" class="fil3" d="M6981.9 6569.65l0 893.27 -134.98 0 0 -765.87 -311.78 0 -35.93 496.39c-6.38,89.12 -32.38,157.44 -78,205.18 -45.39,47.51 -102.11,71.15 -169.96,71.15 -8.28,0 -16.07,-0.24 -23.17,-0.71 -7.09,-0.47 -12.99,-1.18 -17.72,-1.89 -5.44,-0.95 -10.64,-2.37 -15.84,-4.26l0 -113.46 13.94 0c42.32,0 78.25,-14.66 107.32,-43.5 29.07,-28.83 45.39,-66.18 49.16,-112.52l49.16 -623.79 567.78 0z"/>
   <path id="22" class="fil3" d="M7194.4 7462.91l0 -893.27 134.51 0 0 326.19 198.55 0c38.77,0 75.4,7.34 109.91,22.46 34.28,14.89 64.3,35.22 90.06,60.99 25.54,25.53 45.86,55.55 60.75,89.82 15.13,34.51 22.7,71.15 22.7,109.92 0,38.76 -7.57,75.4 -22.7,110.15 -14.89,34.51 -35.21,64.53 -60.75,89.82 -25.77,25.53 -55.78,45.86 -90.06,60.99 -34.51,15.36 -71.14,22.93 -109.91,22.93l-333.06 0zm134.51 -439.66l0 312.25 198.55 0c19.86,0 38.77,-4.02 56.97,-12.05 17.96,-8.28 33.8,-19.38 47.27,-33.56 13.71,-14.42 24.58,-30.96 32.62,-49.64 8.04,-18.67 12.05,-39 12.05,-61.22 0,-20.8 -4.02,-40.66 -12.05,-59.57 -8.05,-18.91 -18.91,-35.46 -32.62,-49.64 -13.47,-13.94 -29.31,-25.29 -47.27,-33.8 -18.2,-8.51 -37.11,-12.76 -56.97,-12.76l-198.55 0z"/>
   <polygon id="23" class="fil3" points="7810.88,6569.65 8484.55,6569.65 8484.55,6697.05 8214.61,6697.05 8214.61,7462.91 8080.11,7462.91 8080.11,6697.05 7810.88,6697.05 "/>
   <path id="24" class="fil3" d="M9228.43 6569.65l-311.78 709.13c-31.44,70.91 -63.59,121.73 -96.45,152.23 -33.09,30.49 -74.22,45.86 -123.62,45.86 -21.75,0 -40.89,-2.36 -57.67,-7.09 -9.23,-1.89 -18.21,-4.02 -26.96,-6.86l0 -113.46c4.73,1.65 10.16,3.07 16.79,4.02 4.49,0.94 10.39,1.65 17.49,2.13 7.09,0.47 14.65,0.71 22.45,0.71 28.37,0 51.77,-7.57 70.68,-22.46 18.91,-15.13 33.09,-33.57 42.31,-55.08l28.36 -63.82 -290.74 -645.31 141.83 0 212.74 481.97 213.21 -481.97 141.35 0z"/>
   <path id="25" class="fil3" d="M9661.24 6569.65c38.77,0 75.41,7.33 109.68,22.46 34.51,14.89 64.53,35.21 90.06,60.98 25.77,25.54 46.1,55.55 60.99,90.06 15.12,34.28 22.45,70.91 22.45,109.68 0,38.77 -7.33,75.41 -22.45,110.15 -14.89,34.51 -35.22,64.54 -60.99,90.06 -25.54,25.3 -55.55,45.63 -90.06,60.75 -34.27,15.36 -70.91,22.93 -109.68,22.93l-191.7 0 0 326.2 -134.51 0 0 -893.27 326.2 0zm0 439.66c19.86,0 38.77,-4.02 56.5,-12.05 17.72,-8.05 33.56,-19.39 47.27,-33.57 13.94,-14.42 24.82,-30.96 33.09,-49.87 8.04,-18.91 12.05,-39.24 12.05,-60.99 0,-20.8 -4.02,-40.66 -12.05,-59.57 -8.28,-18.91 -19.15,-35.45 -33.09,-49.4 -13.71,-14.18 -29.55,-25.53 -47.27,-34.03 -17.73,-8.52 -36.64,-12.77 -56.5,-12.77l-191.7 0 0 312.26 191.7 0z"/>
   <path id="26" class="fil3" d="M10100.19 7462.91l0 -893.27 134.51 0 0 326.19 184.13 0c38.77,0 75.41,7.34 110.15,22.46 34.51,14.89 64.54,35.22 90.06,60.99 25.3,25.53 45.63,55.55 60.75,89.82 15.37,34.51 22.94,71.15 22.94,109.92 0,38.76 -7.57,75.4 -22.94,110.15 -15.12,34.51 -35.45,64.53 -60.75,89.82 -25.53,25.53 -55.55,45.86 -90.06,60.99 -34.74,15.36 -71.38,22.93 -110.15,22.93l-318.64 0zm134.51 -439.66l0 312.25 184.13 0c19.86,0 38.77,-4.02 56.73,-12.05 17.97,-8.28 34.04,-19.38 47.75,-33.56 13.94,-14.42 24.82,-30.96 32.62,-49.64 7.8,-18.67 11.81,-39 11.81,-61.22 0,-20.8 -4.02,-40.66 -11.81,-59.57 -7.81,-18.91 -18.68,-35.46 -32.62,-49.64 -13.71,-13.94 -29.78,-25.29 -47.75,-33.8 -17.96,-8.51 -36.87,-12.76 -56.73,-12.76l-184.13 0zm702.03 439.66l-134.97 0 0 -893.27 134.97 0 0 893.27z"/>
   <polygon id="27" class="fil3" points="12006.57,7462.91 12006.57,6824.46 11573.77,7462.91 11460.78,7462.91 11460.78,6569.65 11595.28,6569.65 11595.28,7207.39 12028.09,6569.65 12141.55,6569.65 12141.55,7462.91 "/>
   <polygon id="28" class="fil3" points="12580.49,6569.65 13254.17,6569.65 13254.17,6697.05 12984.22,6697.05 12984.22,7462.91 12849.73,7462.91 12849.73,6697.05 12580.49,6697.05 "/>
   <path id="29" class="fil3" d="M13899 6987.79c23.41,13.48 44.68,30.49 63.59,51.3 16.31,17.96 30.97,40.66 43.97,67.83 13.24,27.19 19.86,60.76 19.86,100.47 0,34.03 -7.1,66.65 -21.28,97.39 -13.94,30.49 -33.8,57.68 -59.57,80.84 -25.53,23.41 -55.54,42.08 -89.82,56.26 -34.51,13.94 -72.09,21.04 -112.75,21.04l-361.42 0 0 -893.27 354.57 0c35.22,0 68.31,6.38 99.52,19.62 30.96,13.23 58.15,31.2 81.32,53.65 22.93,22.7 41.13,48.93 54.36,78.72 13.24,29.78 19.62,61.7 19.62,95.97 0,28.13 -4.96,52.95 -14.89,74.22 -9.92,21.52 -20.33,39.24 -31.43,53.19 -13.47,17.02 -28.6,31.2 -45.63,42.78zm-382.92 -49.87l220.06 0c36.17,0 66.18,-12.05 90.77,-35.93 24.59,-24.11 36.64,-52.23 36.64,-84.38 0,-32.38 -12.29,-60.51 -36.88,-84.62 -24.82,-24.11 -54.84,-35.93 -90.53,-35.93l-220.06 0 0 240.87zm226.92 397.59c20.8,0 40.42,-3.78 58.86,-11.34 18.67,-7.8 34.51,-17.96 47.51,-30.49 13.23,-12.76 23.64,-27.66 31.2,-44.68 7.56,-17.25 11.34,-35.69 11.34,-55.55 0,-19.85 -3.79,-38.29 -11.34,-55.31 -7.57,-17.02 -17.97,-31.91 -31.2,-44.68 -13,-12.76 -28.84,-22.93 -47.51,-30.49 -18.44,-7.56 -38.06,-11.34 -58.86,-11.34l-226.92 0 0 283.89 226.92 0z"/>
   <path id="30" class="fil3" d="M14842.15 7016.16c0,-47.98 -8.28,-92.43 -24.83,-133.32 -16.54,-40.9 -38.29,-76.12 -65.23,-105.9 -26.72,-29.78 -57.68,-52.94 -92.66,-69.25 -35.22,-16.31 -71.15,-24.59 -108.02,-24.59 -36.88,0 -72.81,8.28 -107.79,24.59 -34.75,16.31 -65.71,39.47 -92.66,69.25 -27.19,29.78 -48.93,65 -65.47,105.66 -16.55,40.66 -25.06,85.09 -25.06,133.56 0,47.98 8.51,92.42 25.06,133.08 16.54,40.66 38.29,75.88 65.47,105.66 26.95,29.78 57.91,52.94 92.66,69.49 34.98,16.54 70.91,25.06 107.79,25.06 36.87,0 72.8,-8.52 108.02,-25.06 34.98,-16.55 65.94,-39.71 92.66,-69.49 26.95,-29.78 48.69,-65 65.23,-105.66 16.55,-40.66 24.83,-85.09 24.83,-133.08zm134.5 0c0,64.29 -11.58,123.85 -34.75,178.69 -23.17,55.08 -53.89,103.06 -92.66,144.19 -39,40.9 -83.91,73.04 -135.45,96.21 -51.52,22.93 -105.65,34.51 -162.38,34.51 -56.74,0 -110.87,-11.58 -162.39,-34.51 -51.53,-23.17 -96.68,-55.31 -135.45,-96.21 -38.77,-41.13 -69.73,-89.11 -92.9,-144.19 -22.93,-54.84 -34.51,-114.41 -34.51,-178.69 0,-63.12 11.58,-122.44 34.51,-177.99 23.17,-55.31 54.13,-103.53 92.9,-144.66 38.77,-41.14 83.91,-73.04 135.45,-96.21 51.52,-23.17 105.65,-34.75 162.39,-34.75 56.73,0 110.86,11.58 162.38,34.75 51.53,23.17 96.45,55.07 135.45,96.21 38.77,41.13 69.49,89.35 92.66,144.66 23.17,55.55 34.75,114.88 34.75,177.99z"/>
   <path id="31" class="fil3" d="M15459.33 6569.65c38.77,0 75.41,7.33 109.68,22.46 34.51,14.89 64.53,35.21 90.06,60.98 25.77,25.54 46.1,55.55 60.99,90.06 15.12,34.28 22.45,70.91 22.45,109.68 0,38.77 -7.33,75.41 -22.45,110.15 -14.89,34.51 -35.22,64.54 -60.99,90.06 -25.54,25.3 -55.55,45.63 -90.06,60.75 -34.27,15.36 -70.91,22.93 -109.68,22.93l-191.7 0 0 326.2 -134.51 0 0 -893.27 326.2 0zm0 439.66c19.86,0 38.77,-4.02 56.5,-12.05 17.72,-8.05 33.56,-19.39 47.27,-33.57 13.94,-14.42 24.82,-30.96 33.09,-49.87 8.04,-18.91 12.05,-39.24 12.05,-60.99 0,-20.8 -4.02,-40.66 -12.05,-59.57 -8.28,-18.91 -19.15,-35.45 -33.09,-49.4 -13.71,-14.18 -29.55,-25.53 -47.27,-34.03 -17.73,-8.52 -36.64,-12.77 -56.5,-12.77l-191.7 0 0 312.26 191.7 0z"/>
   <path id="32" class="fil3" d="M16529.18 6569.65l0 893.27 -134.98 0 0 -319.35c-17.96,10.63 -38.29,20.09 -60.99,28.6 -18.91,7.33 -41.37,13.94 -67.12,19.62 -26.01,5.67 -54.13,8.75 -84.62,8.75 -44.21,0 -84.62,-7.33 -121.02,-21.99 -36.64,-14.41 -67.84,-34.98 -94.32,-61.46 -26.24,-26.71 -46.56,-58.62 -60.99,-95.97 -14.18,-37.35 -21.27,-79.19 -21.27,-125.28l0 -326.19 134.97 0 0 326.19c0,56.74 16.07,101.65 48.22,134.51 31.91,33.09 74.93,49.63 129.06,49.63 26.24,0 51.29,-2.84 74.7,-8.75 23.64,-5.67 44.91,-12.29 63.82,-19.62 21.75,-8.28 41.61,-17.73 59.57,-28.36l0 -453.61 134.98 0z"/>
   <polygon id="33" class="fil3" points="17344.21,7335.5 17344.21,7462.91 16741.68,7462.91 16741.68,6569.65 17330.26,6569.65 17330.26,6697.05 16876.18,6697.05 16876.18,6937.92 17294.33,6937.92 17294.33,7066.04 16876.18,7066.04 16876.18,7335.5 "/>
   <path id="34" class="fil3" d="M17585.08 7016.16c0,47.98 8.51,92.42 25.06,133.08 16.54,40.66 38.29,75.88 65.47,105.66 26.95,29.78 57.91,52.94 92.66,69.49 34.98,16.54 70.91,25.06 107.79,25.06 34.03,0 64.99,-4.97 92.42,-14.89 27.42,-9.93 51.53,-23.88 72.33,-41.37 20.8,-17.49 38.06,-37.82 51.53,-60.99 13.7,-22.93 24.11,-47.74 31.67,-73.98l141.82 0c-10.63,42.55 -27.19,82.73 -49.87,120.54 -22.46,37.82 -50.58,70.91 -84.15,99.28 -33.32,28.37 -71.62,50.82 -114.64,67.13 -42.79,16.55 -89.82,24.59 -141.11,24.59 -56.74,0 -110.87,-11.58 -162.39,-34.51 -51.53,-23.17 -96.68,-55.31 -135.45,-96.21 -38.77,-41.13 -69.73,-89.11 -92.9,-144.19 -22.93,-54.84 -34.51,-114.41 -34.51,-178.69 0,-63.12 11.58,-122.44 34.51,-177.99 23.17,-55.31 54.13,-103.53 92.9,-144.66 38.77,-41.14 83.91,-73.04 135.45,-96.21 51.52,-23.17 105.65,-34.75 162.39,-34.75 48.92,0 94.78,8.28 137.33,24.59 42.79,16.54 80.38,38.77 112.99,67.36 32.62,28.36 60.28,61.46 82.98,99.28 22.93,37.83 39.47,78.01 49.63,120.55l-142.06 0c-7.33,-26.48 -17.96,-51.29 -31.67,-74.46 -13.94,-23.4 -30.96,-43.73 -51.29,-60.98 -20.33,-17.26 -43.73,-30.97 -69.97,-40.9 -26.24,-9.92 -55.54,-14.89 -87.92,-14.89 -36.88,0 -72.81,8.28 -107.79,24.59 -34.75,16.31 -65.71,39.47 -92.66,69.25 -27.19,29.78 -48.93,65 -65.47,105.9 -16.55,40.89 -25.06,85.33 -25.06,133.32z"/>
   <polygon id="35" class="fil3" points="18329.67,6569.65 19003.35,6569.65 19003.35,6697.05 18733.4,6697.05 18733.4,7462.91 18598.91,7462.91 18598.91,6697.05 18329.67,6697.05 "/>
   <path id="36" class="fil3" d="M19648.18 6987.79c23.41,13.48 44.68,30.49 63.59,51.3 16.31,17.96 30.97,40.66 43.97,67.83 13.24,27.19 19.86,60.76 19.86,100.47 0,34.03 -7.1,66.65 -21.28,97.39 -13.94,30.49 -33.8,57.68 -59.57,80.84 -25.53,23.41 -55.54,42.08 -89.82,56.26 -34.51,13.94 -72.09,21.04 -112.75,21.04l-361.42 0 0 -893.27 354.57 0c35.22,0 68.31,6.38 99.52,19.62 30.96,13.23 58.15,31.2 81.32,53.65 22.93,22.7 41.13,48.93 54.36,78.72 13.24,29.78 19.62,61.7 19.62,95.97 0,28.13 -4.96,52.95 -14.89,74.22 -9.92,21.52 -20.33,39.24 -31.43,53.19 -13.47,17.02 -28.6,31.2 -45.63,42.78zm-382.92 -49.87l220.06 0c36.17,0 66.18,-12.05 90.77,-35.93 24.59,-24.11 36.64,-52.23 36.64,-84.38 0,-32.38 -12.29,-60.51 -36.88,-84.62 -24.82,-24.11 -54.84,-35.93 -90.53,-35.93l-220.06 0 0 240.87zm226.92 397.59c20.8,0 40.42,-3.78 58.86,-11.34 18.67,-7.8 34.51,-17.96 47.51,-30.49 13.23,-12.76 23.64,-27.66 31.2,-44.68 7.56,-17.25 11.34,-35.69 11.34,-55.55 0,-19.85 -3.79,-38.29 -11.34,-55.31 -7.57,-17.02 -17.97,-31.91 -31.2,-44.68 -13,-12.76 -28.84,-22.93 -47.51,-30.49 -18.44,-7.56 -38.06,-11.34 -58.86,-11.34l-226.92 0 0 283.89 226.92 0z"/>
   <path id="37" class="fil3" d="M19953.58 7462.91l-142.06 0 340.62 -893.27 112.99 0 340.63 893.27 -141.83 0 -78.24 -205.65 -354.57 0 -77.53 205.65zm382.93 -333.06l-128.12 -354.56 -127.4 354.56 255.52 0z"/>
   <path id="38" class="fil3" d="M4926.13 8881.18l-142.06 0 340.62 -893.27 112.99 0 340.63 893.27 -141.83 0 -78.24 -205.65 -354.57 0 -77.53 205.65zm382.93 -333.06l-128.12 -354.56 -127.4 354.56 255.52 0z"/>
   <path id="39" class="fil3" d="M5733.37 8434.43c0,47.98 8.51,92.42 25.06,133.08 16.54,40.66 38.29,75.88 65.47,105.66 26.95,29.78 57.91,52.94 92.66,69.49 34.98,16.54 70.91,25.06 107.79,25.06 34.03,0 64.99,-4.97 92.42,-14.89 27.42,-9.93 51.53,-23.88 72.33,-41.37 20.8,-17.49 38.06,-37.82 51.53,-60.99 13.7,-22.93 24.11,-47.74 31.67,-73.98l141.82 0c-10.63,42.55 -27.19,82.73 -49.87,120.54 -22.46,37.82 -50.58,70.91 -84.15,99.28 -33.32,28.37 -71.62,50.82 -114.64,67.13 -42.79,16.55 -89.82,24.59 -141.11,24.59 -56.74,0 -110.87,-11.58 -162.39,-34.51 -51.53,-23.17 -96.68,-55.31 -135.45,-96.21 -38.77,-41.13 -69.73,-89.11 -92.9,-144.19 -22.93,-54.84 -34.51,-114.41 -34.51,-178.69 0,-63.12 11.58,-122.44 34.51,-177.99 23.17,-55.31 54.13,-103.53 92.9,-144.66 38.77,-41.14 83.91,-73.04 135.45,-96.21 51.52,-23.17 105.65,-34.75 162.39,-34.75 48.92,0 94.78,8.28 137.33,24.59 42.79,16.54 80.38,38.77 112.99,67.36 32.62,28.36 60.28,61.46 82.98,99.28 22.93,37.83 39.47,78.01 49.63,120.55l-142.06 0c-7.33,-26.48 -17.96,-51.29 -31.67,-74.46 -13.94,-23.4 -30.96,-43.73 -51.29,-60.98 -20.33,-17.26 -43.73,-30.97 -69.97,-40.9 -26.24,-9.92 -55.54,-14.89 -87.92,-14.89 -36.88,0 -72.81,8.28 -107.79,24.59 -34.75,16.31 -65.71,39.47 -92.66,69.25 -27.19,29.78 -48.93,65 -65.47,105.9 -16.55,40.89 -25.06,85.33 -25.06,133.32z"/>
   <path id="40" class="fil3" d="M6626.63 8434.43c0,47.98 8.51,92.42 25.06,133.08 16.54,40.66 38.29,75.88 65.47,105.66 26.95,29.78 57.91,52.94 92.66,69.49 34.98,16.54 70.91,25.06 107.79,25.06 34.03,0 64.99,-4.97 92.42,-14.89 27.42,-9.93 51.53,-23.88 72.33,-41.37 20.8,-17.49 38.06,-37.82 51.53,-60.99 13.7,-22.93 24.11,-47.74 31.67,-73.98l141.82 0c-10.63,42.55 -27.19,82.73 -49.87,120.54 -22.46,37.82 -50.58,70.91 -84.15,99.28 -33.32,28.37 -71.62,50.82 -114.64,67.13 -42.79,16.55 -89.82,24.59 -141.11,24.59 -56.74,0 -110.87,-11.58 -162.39,-34.51 -51.53,-23.17 -96.68,-55.31 -135.45,-96.21 -38.77,-41.13 -69.73,-89.11 -92.9,-144.19 -22.93,-54.84 -34.51,-114.41 -34.51,-178.69 0,-63.12 11.58,-122.44 34.51,-177.99 23.17,-55.31 54.13,-103.53 92.9,-144.66 38.77,-41.14 83.91,-73.04 135.45,-96.21 51.52,-23.17 105.65,-34.75 162.39,-34.75 48.92,0 94.78,8.28 137.33,24.59 42.79,16.54 80.38,38.77 112.99,67.36 32.62,28.36 60.28,61.46 82.98,99.28 22.93,37.83 39.47,78.01 49.63,120.55l-142.06 0c-7.33,-26.48 -17.96,-51.29 -31.67,-74.46 -13.94,-23.4 -30.96,-43.73 -51.29,-60.98 -20.33,-17.26 -43.73,-30.97 -69.97,-40.9 -26.24,-9.92 -55.54,-14.89 -87.92,-14.89 -36.88,0 -72.81,8.28 -107.79,24.59 -34.75,16.31 -65.71,39.47 -92.66,69.25 -27.19,29.78 -48.93,65 -65.47,105.9 -16.55,40.89 -25.06,85.33 -25.06,133.32z"/>
   <path id="41" class="fil3" d="M8101.63 8434.43c0,-47.98 -8.28,-92.43 -24.83,-133.32 -16.54,-40.9 -38.29,-76.12 -65.23,-105.9 -26.72,-29.78 -57.68,-52.94 -92.66,-69.25 -35.22,-16.31 -71.15,-24.59 -108.02,-24.59 -36.88,0 -72.81,8.28 -107.79,24.59 -34.75,16.31 -65.71,39.47 -92.66,69.25 -27.19,29.78 -48.93,65 -65.47,105.66 -16.55,40.66 -25.06,85.09 -25.06,133.56 0,47.98 8.51,92.42 25.06,133.08 16.54,40.66 38.29,75.88 65.47,105.66 26.95,29.78 57.91,52.94 92.66,69.49 34.98,16.54 70.91,25.06 107.79,25.06 36.87,0 72.8,-8.52 108.02,-25.06 34.98,-16.55 65.94,-39.71 92.66,-69.49 26.95,-29.78 48.69,-65 65.23,-105.66 16.55,-40.66 24.83,-85.09 24.83,-133.08zm134.5 0c0,64.29 -11.58,123.85 -34.75,178.69 -23.17,55.08 -53.89,103.06 -92.66,144.19 -39,40.9 -83.91,73.04 -135.45,96.21 -51.52,22.93 -105.65,34.51 -162.38,34.51 -56.74,0 -110.87,-11.58 -162.39,-34.51 -51.53,-23.17 -96.68,-55.31 -135.45,-96.21 -38.77,-41.13 -69.73,-89.11 -92.9,-144.19 -22.93,-54.84 -34.51,-114.41 -34.51,-178.69 0,-63.12 11.58,-122.44 34.51,-177.99 23.17,-55.31 54.13,-103.53 92.9,-144.66 38.77,-41.14 83.91,-73.04 135.45,-96.21 51.52,-23.17 105.65,-34.75 162.39,-34.75 56.73,0 110.86,11.58 162.38,34.75 51.53,23.17 96.45,55.07 135.45,96.21 38.77,41.13 69.49,89.35 92.66,144.66 23.17,55.55 34.75,114.88 34.75,177.99z"/>
   <polygon id="42" class="fil3" points="9150.9,8753.77 9150.9,9058.46 9023.5,9058.46 9023.5,8881.18 8392.6,8881.18 8392.6,7987.91 8527.11,7987.91 8527.11,8753.77 8916.89,8753.77 8916.89,7987.91 9051.87,7987.91 9051.87,8753.77 "/>
   <polygon id="43" class="fil3" points="9831.67,8881.18 9831.67,8242.72 9398.86,8881.18 9285.87,8881.18 9285.87,7987.91 9420.38,7987.91 9420.38,8625.66 9853.18,7987.91 9966.64,7987.91 9966.64,8881.18 "/>
   <path id="44" class="fil3" d="M10214.6 8881.18l-142.06 0 340.62 -893.27 112.99 0 340.63 893.27 -141.83 0 -78.24 -205.65 -354.57 0 -77.53 205.65zm382.93 -333.06l-128.12 -354.56 -127.4 354.56 255.52 0z"/>
   <polygon id="45" class="fil3" points="11730.96,8753.77 11730.96,9058.46 11603.56,9058.46 11603.56,8881.18 10972.66,8881.18 10972.66,7987.91 11107.17,7987.91 11107.17,8753.77 11496.95,8753.77 11496.95,7987.91 11631.92,7987.91 11631.92,8753.77 "/>
   <polygon id="46" class="fil3" points="12411.72,8881.18 12411.72,8242.72 11978.92,8881.18 11865.93,8881.18 11865.93,7987.91 12000.44,7987.91 12000.44,8625.66 12433.24,7987.91 12546.7,7987.91 12546.7,8881.18 "/>
   <polygon id="47" class="fil3" points="13304.99,8881.18 13304.99,8242.72 12872.18,8881.18 12759.2,8881.18 12759.2,7987.91 12893.7,7987.91 12893.7,8625.66 13326.51,7987.91 13439.97,7987.91 13439.97,8881.18 "/>
   <path id="48" class="fil3" d="M14644.78 7987.91l0 893.27 -134.98 0 0 -765.87 -311.78 0 -35.93 496.39c-6.38,89.12 -32.38,157.44 -78,205.18 -45.39,47.51 -102.11,71.15 -169.96,71.15 -8.28,0 -16.07,-0.24 -23.17,-0.71 -7.09,-0.47 -12.99,-1.18 -17.72,-1.89 -5.44,-0.95 -10.64,-2.37 -15.84,-4.26l0 -113.46 13.94 0c42.32,0 78.25,-14.66 107.32,-43.5 29.07,-28.83 45.39,-66.18 49.16,-112.52l49.16 -623.79 567.78 0z"/>
   <polygon id="49" class="fil3" points="15403.07,8881.18 15403.07,8242.72 14970.26,8881.18 14857.27,8881.18 14857.27,7987.91 14991.78,7987.91 14991.78,8625.66 15424.59,7987.91 15538.05,7987.91 15538.05,8881.18 "/>
   <polygon id="50" class="fil3" points="16508.84,8753.77 16508.84,9058.46 16381.44,9058.46 16381.44,8881.18 15750.54,8881.18 15750.54,7987.91 15885.05,7987.91 15885.05,8753.77 16274.83,8753.77 16274.83,7987.91 16409.81,7987.91 16409.81,8753.77 "/>
   <polygon id="51" class="fil3" points="17246.34,8753.77 17246.34,8881.18 16643.81,8881.18 16643.81,7987.91 17232.39,7987.91 17232.39,8115.31 16778.32,8115.31 16778.32,8356.18 17196.46,8356.18 17196.46,8484.3 16778.32,8484.3 16778.32,8753.77 "/>
   <polygon id="52" class="fil3" points="17969.41,8881.18 17969.41,8242.72 17536.61,8881.18 17423.62,8881.18 17423.62,7987.91 17558.13,7987.91 17558.13,8625.66 17990.93,7987.91 18104.39,7987.91 18104.39,8881.18 "/>
   <path id="53" class="fil3" d="M18394.43 8434.43c0,47.98 8.51,92.42 25.06,133.08 16.54,40.66 38.29,75.88 65.47,105.66 26.95,29.78 57.91,52.94 92.66,69.49 34.98,16.54 70.91,25.06 107.79,25.06 34.03,0 64.99,-4.97 92.42,-14.89 27.42,-9.93 51.53,-23.88 72.33,-41.37 20.8,-17.49 38.06,-37.82 51.53,-60.99 13.7,-22.93 24.11,-47.74 31.67,-73.98l141.82 0c-10.63,42.55 -27.19,82.73 -49.87,120.54 -22.46,37.82 -50.58,70.91 -84.15,99.28 -33.32,28.37 -71.62,50.82 -114.64,67.13 -42.79,16.55 -89.82,24.59 -141.11,24.59 -56.74,0 -110.87,-11.58 -162.39,-34.51 -51.53,-23.17 -96.68,-55.31 -135.45,-96.21 -38.77,-41.13 -69.73,-89.11 -92.9,-144.19 -22.93,-54.84 -34.51,-114.41 -34.51,-178.69 0,-63.12 11.58,-122.44 34.51,-177.99 23.17,-55.31 54.13,-103.53 92.9,-144.66 38.77,-41.14 83.91,-73.04 135.45,-96.21 51.52,-23.17 105.65,-34.75 162.39,-34.75 48.92,0 94.78,8.28 137.33,24.59 42.79,16.54 80.38,38.77 112.99,67.36 32.62,28.36 60.28,61.46 82.98,99.28 22.93,37.83 39.47,78.01 49.63,120.55l-142.06 0c-7.33,-26.48 -17.96,-51.29 -31.67,-74.46 -13.94,-23.4 -30.96,-43.73 -51.29,-60.98 -20.33,-17.26 -43.73,-30.97 -69.97,-40.9 -26.24,-9.92 -55.54,-14.89 -87.92,-14.89 -36.88,0 -72.81,8.28 -107.79,24.59 -34.75,16.31 -65.71,39.47 -92.66,69.25 -27.19,29.78 -48.93,65 -65.47,105.9 -16.55,40.89 -25.06,85.33 -25.06,133.32z"/>
   <polygon id="54" class="fil3" points="19139.01,7987.91 19812.69,7987.91 19812.69,8115.31 19542.75,8115.31 19542.75,8881.18 19408.25,8881.18 19408.25,8115.31 19139.01,8115.31 "/>
   <path id="55" class="fil3" d="M20570.99 8434.43c0,-47.98 -8.28,-92.43 -24.83,-133.32 -16.54,-40.9 -38.29,-76.12 -65.23,-105.9 -26.72,-29.78 -57.68,-52.94 -92.66,-69.25 -35.22,-16.31 -71.15,-24.59 -108.02,-24.59 -36.88,0 -72.81,8.28 -107.79,24.59 -34.75,16.31 -65.71,39.47 -92.66,69.25 -27.19,29.78 -48.93,65 -65.47,105.66 -16.55,40.66 -25.06,85.09 -25.06,133.56 0,47.98 8.51,92.42 25.06,133.08 16.54,40.66 38.29,75.88 65.47,105.66 26.95,29.78 57.91,52.94 92.66,69.49 34.98,16.54 70.91,25.06 107.79,25.06 36.87,0 72.8,-8.52 108.02,-25.06 34.98,-16.55 65.94,-39.71 92.66,-69.49 26.95,-29.78 48.69,-65 65.23,-105.66 16.55,-40.66 24.83,-85.09 24.83,-133.08zm134.5 0c0,64.29 -11.58,123.85 -34.75,178.69 -23.17,55.08 -53.89,103.06 -92.66,144.19 -39,40.9 -83.91,73.04 -135.45,96.21 -51.52,22.93 -105.65,34.51 -162.38,34.51 -56.74,0 -110.87,-11.58 -162.39,-34.51 -51.53,-23.17 -96.68,-55.31 -135.45,-96.21 -38.77,-41.13 -69.73,-89.11 -92.9,-144.19 -22.93,-54.84 -34.51,-114.41 -34.51,-178.69 0,-63.12 11.58,-122.44 34.51,-177.99 23.17,-55.31 54.13,-103.53 92.9,-144.66 38.77,-41.14 83.91,-73.04 135.45,-96.21 51.52,-23.17 105.65,-34.75 162.39,-34.75 56.73,0 110.86,11.58 162.38,34.75 51.53,23.17 96.45,55.07 135.45,96.21 38.77,41.13 69.49,89.35 92.66,144.66 23.17,55.55 34.75,114.88 34.75,177.99z"/>
   <path id="56" class="fil3" d="M21379.4 8406.05c23.41,13.48 44.68,30.49 63.59,51.3 16.31,17.96 30.97,40.66 43.97,67.83 13.24,27.19 19.86,60.76 19.86,100.47 0,34.03 -7.1,66.65 -21.28,97.39 -13.94,30.49 -33.8,57.68 -59.57,80.84 -25.53,23.41 -55.54,42.08 -89.82,56.26 -34.51,13.94 -72.09,21.04 -112.75,21.04l-361.42 0 0 -893.27 354.57 0c35.22,0 68.31,6.38 99.52,19.62 30.96,13.23 58.15,31.2 81.32,53.65 22.93,22.7 41.13,48.93 54.36,78.72 13.24,29.78 19.62,61.7 19.62,95.97 0,28.13 -4.96,52.95 -14.89,74.22 -9.92,21.52 -20.33,39.24 -31.43,53.19 -13.47,17.02 -28.6,31.2 -45.63,42.78zm-382.92 -49.87l220.06 0c36.17,0 66.18,-12.05 90.77,-35.93 24.59,-24.11 36.64,-52.23 36.64,-84.38 0,-32.38 -12.29,-60.51 -36.88,-84.62 -24.82,-24.11 -54.84,-35.93 -90.53,-35.93l-220.06 0 0 240.87zm226.92 397.59c20.8,0 40.42,-3.78 58.86,-11.34 18.67,-7.8 34.51,-17.96 47.51,-30.49 13.23,-12.76 23.64,-27.66 31.2,-44.68 7.56,-17.25 11.34,-35.69 11.34,-55.55 0,-19.85 -3.79,-38.29 -11.34,-55.31 -7.57,-17.02 -17.97,-31.91 -31.2,-44.68 -13,-12.76 -28.84,-22.93 -47.51,-30.49 -18.44,-7.56 -38.06,-11.34 -58.86,-11.34l-226.92 0 0 283.89 226.92 0z"/>
  </g>
 </g>
</svg>
