<?xml version="1.0" encoding="UTF-8"?>
<!DOCTYPE svg PUBLIC "-//W3C//DTD SVG 1.1//EN" "http://www.w3.org/Graphics/SVG/1.1/DTD/svg11.dtd">
<!-- Creator: CorelDRAW 2019 (64-Bit) -->
<svg xmlns="http://www.w3.org/2000/svg" xml:space="preserve" width="43.8257mm" height="71.0518mm" version="1.1" style="shape-rendering:geometricPrecision; text-rendering:geometricPrecision; image-rendering:optimizeQuality; fill-rule:evenodd; clip-rule:evenodd"
viewBox="0 0 739.29 1198.56"
 xmlns:xlink="http://www.w3.org/1999/xlink">
 <defs>
  <style type="text/css">
   <![CDATA[
    .fil1 {fill:white;fill-rule:nonzero}
    .fil0 {fill:url(#id0)}
   ]]>
  </style>
  <linearGradient id="id0" gradientUnits="userSpaceOnUse" x1="-45.3" y1="544.9" x2="623.5" y2="536.63">
   <stop offset="0" style="stop-opacity:1; stop-color:#34B36E"/>
   <stop offset="0.701961" style="stop-opacity:1; stop-color:#3E9290"/>
   <stop offset="1" style="stop-opacity:1; stop-color:#4871B3"/>
  </linearGradient>
 </defs>
 <g id="Слой_x0020_1">
  <metadata id="CorelCorpID_0Corel-Layer"/>
  <polygon class="fil0" points="-0,459.8 290.62,1198.56 739.29,0 "/>
  <path class="fil1" d="M74.78 459.52c1.6,2.57 3.53,4.66 5.77,6.29 2.24,1.63 4.57,2.79 7.02,3.48 2.43,0.7 4.86,0.91 7.27,0.64 2.42,-0.28 4.63,-1.02 6.6,-2.24 1.82,-1.13 3.31,-2.43 4.45,-3.87 1.14,-1.44 1.96,-2.99 2.5,-4.62 0.53,-1.63 0.78,-3.29 0.73,-4.98 -0.03,-1.68 -0.3,-3.36 -0.77,-5.01l7.59 -4.72c0.85,2.63 1.3,5.33 1.34,8.11 0.06,2.77 -0.35,5.48 -1.2,8.11 -0.84,2.63 -2.14,5.1 -3.9,7.41 -1.74,2.31 -3.99,4.3 -6.73,6.01 -3.04,1.89 -6.32,3.07 -9.84,3.55 -3.53,0.47 -7.01,0.25 -10.45,-0.64 -3.44,-0.91 -6.7,-2.45 -9.77,-4.63 -3.05,-2.17 -5.65,-4.97 -7.79,-8.42 -2.1,-3.38 -3.45,-6.94 -4.07,-10.67 -0.6,-3.73 -0.54,-7.34 0.16,-10.83 0.71,-3.49 2.06,-6.7 4.05,-9.65 1.99,-2.95 4.5,-5.37 7.53,-7.26 2.62,-1.63 5.35,-2.71 8.17,-3.25 2.84,-0.54 5.59,-0.6 8.29,-0.15 2.69,0.43 5.27,1.28 7.74,2.55 2.48,1.26 4.71,2.86 6.66,4.8l-7.6 4.72c-1.27,-1.17 -2.67,-2.15 -4.17,-2.93 -1.52,-0.79 -3.11,-1.31 -4.77,-1.56 -1.66,-0.25 -3.37,-0.2 -5.1,0.14 -1.73,0.34 -3.47,1.05 -5.2,2.13 -1.97,1.23 -3.62,2.86 -4.95,4.9 -1.32,2.03 -2.2,4.3 -2.66,6.79 -0.46,2.5 -0.46,5.1 0.02,7.85 0.47,2.74 1.5,5.4 3.09,7.97zm25 -48.66l36.05 -22.41 4.24 6.82 -14.45 8.98 25.47 40.99 -7.2 4.47 -25.47 -40.99 -14.41 8.96 -4.24 -6.82zm60.33 -37.49c2.07,-1.29 4.28,-2.12 6.62,-2.45 2.34,-0.35 4.62,-0.26 6.85,0.27 2.23,0.51 4.32,1.44 6.26,2.79 1.95,1.33 3.56,3.05 4.85,5.12 1.29,2.07 2.12,4.28 2.46,6.64 0.35,2.34 0.26,4.62 -0.27,6.85 -0.52,2.2 -1.45,4.29 -2.8,6.24 -1.33,1.96 -3.03,3.58 -5.11,4.88l-10.26 6.37 10.85 17.46 -7.2 4.47 -29.71 -47.8 17.46 -10.85zm14.62 23.53c1.06,-0.66 1.94,-1.5 2.62,-2.52 0.68,-1.02 1.15,-2.15 1.41,-3.37 0.27,-1.23 0.3,-2.48 0.11,-3.77 -0.2,-1.28 -0.66,-2.5 -1.38,-3.67 -0.69,-1.11 -1.57,-2.04 -2.63,-2.79 -1.07,-0.74 -2.2,-1.26 -3.41,-1.54 -1.2,-0.3 -2.43,-0.38 -3.66,-0.25 -1.23,0.13 -2.38,0.53 -3.45,1.2l-10.26 6.37 10.38 16.71 10.26 -6.37zm38.22 9.9l-7.6 4.72 -11.48 -59.13 6.05 -3.76 47.93 36.48 -7.59 4.72 -11.03 -8.4 -18.98 11.79 2.69 13.58zm9.42 -30.56l-18.65 -14.71 4.97 23.21 13.67 -8.5zm-6.88 -37.28l36.05 -22.41 4.24 6.82 -14.45 8.98 25.47 40.99 -7.2 4.47 -25.47 -40.99 -14.41 8.96 -4.24 -6.82zm100.59 -5.7l4.24 6.82 -32.24 20.04 -29.71 -47.8 31.5 -19.57 4.24 6.82 -24.3 15.1 8.01 12.89 22.38 -13.9 4.26 6.86 -22.38 13.91 8.96 14.42 25.05 -15.56zm-4.55 -44.54l25.47 40.98 -7.2 4.47 -29.71 -47.8 28.46 -17.69 4.24 6.82 -21.26 13.22zm82.39 5.61l-21.23 -34.17 -1.93 48.56 -6.05 3.76 -29.71 -47.8 7.2 -4.47 21.21 34.13 1.95 -48.52 6.07 -3.77 29.71 47.8 -7.22 4.49zm23.12 -14.37l-7.97 4.95 -0.48 -27.04c-2.3,0.59 -4.61,0.71 -6.89,0.39 -1.93,-0.2 -3.99,-0.87 -6.14,-1.99 -2.16,-1.13 -4.06,-3.04 -5.72,-5.71 -1.23,-1.97 -2.01,-4.08 -2.33,-6.32 -0.34,-2.24 -0.27,-4.41 0.21,-6.51 0.48,-2.08 1.37,-4.06 2.68,-5.93 1.31,-1.87 2.96,-3.4 4.93,-4.62l18.57 -11.54 29.71 47.8 -7.19 4.47 -11.79 -18.97 -8.38 5.2 0.79 25.81zm-6.09 -53.03l-11.38 7.07c-0.96,0.6 -1.75,1.37 -2.35,2.31 -0.62,0.95 -1.04,1.96 -1.28,3.05 -0.22,1.08 -0.26,2.21 -0.11,3.38 0.16,1.16 0.57,2.28 1.23,3.34 0.66,1.06 1.48,1.92 2.45,2.6 0.98,0.65 2.01,1.12 3.08,1.4 1.07,0.26 2.17,0.34 3.3,0.21 1.11,-0.13 2.15,-0.49 3.11,-1.09l11.38 -7.07 -9.44 -15.19z"/>
  <path class="fil1" d="M415.79 832.32l-37.67 -14.1 28.11 39.64 -2.5 6.67 -52.71 -19.73 2.97 -7.94 37.63 14.09 -28.07 -39.62 2.51 -6.7 52.71 19.73 -2.98 7.96zm-30 -80.41l52.71 19.73 -2.98 7.96 -23 -8.61 -9.09 24.27 23 8.61 -2.97 7.94 -52.71 -19.73 2.97 -7.94 22.15 8.29 9.09 -24.27 -22.15 -8.29 2.98 -7.96zm69.46 -25.01l-37.67 -14.1 28.11 39.64 -2.5 6.67 -52.71 -19.73 2.97 -7.94 37.63 14.09 -28.07 -39.62 2.51 -6.7 52.71 19.73 -2.98 7.96zm-30 -80.41l52.71 19.73 -2.98 7.96 -23 -8.61 -9.09 24.27 23 8.61 -2.97 7.94 -52.71 -19.73 2.97 -7.94 22.15 8.29 9.09 -24.27 -22.15 -8.29 2.98 -7.96zm66.64 -40.37l17.98 6.73 -2.81 7.52 -10.46 -3.92 -13.94 37.23 -52.71 -19.73 2.97 -7.94 45.19 16.92 8.61 -23 -45.19 -16.92 2.98 -7.96 45.19 16.92 2.19 -5.84zm22.56 -37.36l-37.67 -14.1 28.11 39.64 -2.5 6.67 -52.71 -19.73 2.97 -7.94 37.63 14.09 -28.07 -39.62 2.51 -6.7 52.71 19.73 -2.98 7.96zm8.46 -22.59l-3.14 8.38 -45.18 -39.83 2.49 -6.67 60.24 -0.36 -3.13 8.37 -13.86 0.07 -7.83 20.92 10.42 9.12zm-11.19 -29.95l-23.75 -0.27 18.11 15.35 5.64 -15.08zm-28.21 -25.33l14.88 -39.75 7.52 2.82 -5.96 15.93 45.19 16.92 -2.97 7.94 -45.19 -16.92 -5.95 15.89 -7.52 -2.81zm82.47 -59.74l-37.67 -14.1 28.11 39.64 -2.5 6.67 -52.71 -19.73 2.97 -7.94 37.63 14.09 -28.07 -39.62 2.51 -6.7 52.71 19.73 -2.98 7.96zm-8.93 -61.53c1.31,-1.08 2.79,-1.96 4.43,-2.62 1.42,-0.57 3.08,-0.93 4.97,-1.09 1.9,-0.18 4.02,0.17 6.36,1.05 2.01,0.75 3.78,1.89 5.28,3.41 1.49,1.5 2.66,3.27 3.45,5.3 0.82,2.02 1.26,4.21 1.34,6.54 0.06,2.34 -0.35,4.72 -1.25,7.12l-7.98 21.33 -52.71 -19.73 7.83 -20.92c0.78,-2.08 1.89,-3.89 3.36,-5.44 1.46,-1.54 3.13,-2.74 4.96,-3.61 1.85,-0.85 3.8,-1.35 5.85,-1.47 2.05,-0.12 4.08,0.21 6.1,0.96 1.66,0.62 3.02,1.46 4.05,2.52 1.05,1.06 1.87,2.07 2.44,3.03 0.71,1.17 1.21,2.38 1.52,3.64zm-11.4 21.49l4.86 -12.99c0.8,-2.13 0.75,-4.17 -0.11,-6.15 -0.88,-1.98 -2.27,-3.31 -4.17,-4.02 -1.91,-0.72 -3.84,-0.61 -5.81,0.31 -1.97,0.93 -3.33,2.44 -4.12,4.55l-4.86 12.98 14.21 5.32zm28.47 -4.61c0.46,-1.23 0.67,-2.47 0.63,-3.72 -0.05,-1.27 -0.3,-2.43 -0.75,-3.48 -0.46,-1.06 -1.11,-2.01 -1.94,-2.83 -0.85,-0.83 -1.86,-1.46 -3.03,-1.9 -1.17,-0.44 -2.34,-0.62 -3.51,-0.55 -1.17,0.07 -2.28,0.35 -3.33,0.85 -1.04,0.49 -1.99,1.2 -2.85,2.13 -0.85,0.92 -1.51,2 -1.97,3.23l-5.01 13.39 16.75 6.27 5.01 -13.39zm17.71 -24.41l-3.14 8.38 -45.18 -39.83 2.49 -6.67 60.24 -0.36 -3.13 8.37 -13.86 0.07 -7.83 20.92 10.42 9.12zm-11.19 -29.95l-23.75 -0.27 18.11 15.35 5.64 -15.08z"/>
  <path class="fil1" d="M136.84 623.23l-52.38 20.6 -3.11 -7.91 44.91 -17.66 -9.64 -24.52 -44.9 17.66 -3.1 -7.89 52.38 -20.6 15.86 40.32zm12.43 31.6c0.89,2.27 1.31,4.59 1.21,6.95 -0.08,2.37 -0.58,4.6 -1.5,6.69 -0.9,2.1 -2.19,3.98 -3.87,5.65 -1.66,1.68 -3.64,2.95 -5.91,3.85 -2.27,0.89 -4.59,1.31 -6.98,1.22 -2.37,-0.08 -4.6,-0.58 -6.69,-1.5 -2.07,-0.91 -3.96,-2.2 -5.64,-3.88 -1.69,-1.66 -2.98,-3.63 -3.87,-5.9l-4.42 -11.24 -19.13 7.52 -3.1 -7.89 52.38 -20.6 7.52 19.13zm-25.78 10.14c0.46,1.17 1.13,2.18 2.01,3.03 0.88,0.85 1.91,1.52 3.06,2 1.17,0.48 2.39,0.74 3.69,0.79 1.29,0.04 2.58,-0.2 3.85,-0.7 1.22,-0.48 2.29,-1.17 3.22,-2.08 0.92,-0.92 1.64,-1.94 2.13,-3.08 0.52,-1.13 0.81,-2.32 0.91,-3.56 0.09,-1.23 -0.1,-2.44 -0.55,-3.61l-4.42 -11.24 -18.31 7.2 4.42 11.24zm24.93 64.55c2.81,-1.11 5.23,-2.62 7.24,-4.53 2.02,-1.91 3.58,-4 4.7,-6.27 1.13,-2.25 1.77,-4.6 1.92,-7.03 0.14,-2.44 -0.2,-4.74 -1.05,-6.9 -0.85,-2.16 -2.16,-4.08 -3.93,-5.75 -1.76,-1.66 -3.83,-2.94 -6.2,-3.84 -2.37,-0.91 -4.94,-1.37 -7.71,-1.4 -2.76,-0.03 -5.57,0.49 -8.41,1.61 -2.81,1.11 -5.22,2.63 -7.23,4.54 -2,1.91 -3.57,3.99 -4.68,6.28 -1.13,2.27 -1.77,4.62 -1.94,7.04 -0.16,2.43 0.17,4.74 1.02,6.9 0.85,2.16 2.18,4.07 3.96,5.76 1.78,1.67 3.85,2.95 6.21,3.83 2.37,0.89 4.93,1.36 7.7,1.39 2.76,0.03 5.56,-0.51 8.38,-1.61zm3.1 7.89c-3.77,1.48 -7.53,2.18 -11.28,2.08 -3.76,-0.09 -7.29,-0.78 -10.59,-2.11 -3.3,-1.34 -6.22,-3.24 -8.77,-5.72 -2.53,-2.49 -4.46,-5.4 -5.77,-8.73 -1.31,-3.33 -1.88,-6.77 -1.72,-10.32 0.17,-3.56 1.01,-6.94 2.52,-10.16 1.52,-3.22 3.62,-6.15 6.31,-8.77 2.69,-2.61 5.91,-4.66 9.68,-6.14 3.7,-1.46 7.45,-2.14 11.23,-2.08 3.78,0.08 7.32,0.79 10.62,2.11 3.31,1.32 6.22,3.24 8.77,5.72 2.55,2.48 4.47,5.39 5.78,8.72 1.31,3.32 1.88,6.77 1.71,10.32 -0.17,3.56 -1.01,6.92 -2.52,10.16 -1.52,3.22 -3.64,6.14 -6.34,8.77 -2.72,2.64 -5.93,4.69 -9.63,6.14zm-1.22 51.87l-7.47 2.94 -13.89 -35.33 52.38 -20.6 13.57 34.51 -7.47 2.94 -10.47 -26.62 -14.12 5.55 9.64 24.52 -7.51 2.96 -9.64 -24.52 -15.8 6.21 10.79 27.44zm7.9 42.01l16.35 -30.44 -24.53 9.65 -3.1 -7.89 52.38 -20.6 3.1 7.89 -24.12 9.49 31.64 9.63 3.77 9.59 -34.13 -11.09 -17.59 33.36 -3.77 -9.58zm56.3 -10.62l15.54 39.5 -7.47 2.94 -6.22 -15.83 -44.91 17.66 -3.1 -7.89 44.91 -17.66 -6.21 -15.79 7.47 -2.94z"/>
 </g>
</svg>
