<?xml version="1.0" encoding="UTF-8"?>
<!DOCTYPE svg PUBLIC "-//W3C//DTD SVG 1.1//EN" "http://www.w3.org/Graphics/SVG/1.1/DTD/svg11.dtd">
<!-- Creator: CorelDRAW 2019 (64-Bit) -->
<svg xmlns="http://www.w3.org/2000/svg" xml:space="preserve" width="259.687mm" height="89.7807mm" version="1.1" style="shape-rendering:geometricPrecision; text-rendering:geometricPrecision; image-rendering:optimizeQuality; fill-rule:evenodd; clip-rule:evenodd"
viewBox="0 0 25957.09 8974.06"
 xmlns:xlink="http://www.w3.org/1999/xlink">
 <defs>
  <style type="text/css">
   <![CDATA[
    .fil1 {fill:#3F3D41;fill-rule:nonzero}
    .fil2 {fill:white;fill-rule:nonzero}
    .fil0 {fill:url(#id0)}
   ]]>
  </style>
  <linearGradient id="id0" gradientUnits="userSpaceOnUse" x1="-268.41" y1="3228.75" x2="3694.52" y2="3179.79">
   <stop offset="0" style="stop-opacity:1; stop-color:#34B36E"/>
   <stop offset="0.701961" style="stop-opacity:1; stop-color:#3E9290"/>
   <stop offset="1" style="stop-opacity:1; stop-color:#4871B3"/>
  </linearGradient>
 </defs>
 <g id="Слой_x0020_1">
  <metadata id="CorelCorpID_0Corel-Layer"/>
  <g id="_2246122742992">
   <polygon class="fil0" points="-0,2724.53 1722.03,7102.01 4380.61,0 "/>
   <polygon class="fil1" points="5312.33,5237.06 5312.33,6130.41 5177.34,6130.41 5177.34,5577 4922.5,6130.41 4837.4,6130.41 4581.86,5577 4581.86,6130.41 4447.34,6130.41 4447.34,5237.06 4560.33,5237.06 4879.47,5924.75 5198.85,5237.06 "/>
   <polygon id="1" class="fil1" points="6070.93,6130.41 6070.93,5491.9 5638.08,6130.41 5525.08,6130.41 5525.08,5237.06 5659.6,5237.06 5659.6,5874.87 6092.45,5237.06 6205.92,5237.06 6205.92,6130.41 "/>
   <polygon id="2" class="fil1" points="7099.27,5237.06 7099.27,6130.41 6964.28,6130.41 6964.28,5740.59 6552.96,5740.59 6552.96,6130.41 6418.44,6130.41 6418.44,5237.06 6552.96,5237.06 6552.96,5612.47 6964.28,5612.47 6964.28,5237.06 "/>
   <polygon id="3" class="fil1" points="7857.63,6130.41 7857.63,5491.9 7424.79,6130.41 7311.79,6130.41 7311.79,5237.06 7446.31,5237.06 7446.31,5874.87 7879.15,5237.06 7992.62,5237.06 7992.62,6130.41 "/>
   <path id="4" class="fil1" d="M8282.68 5683.62c0,47.99 8.51,92.43 25.06,133.09 16.54,40.66 38.29,75.89 65.48,105.67 26.95,29.79 57.91,52.95 92.67,69.5 34.98,16.54 70.92,25.06 107.8,25.06 34.03,0 65,-4.97 92.43,-14.89 27.42,-9.94 51.54,-23.88 72.34,-41.37 20.8,-17.49 38.06,-37.82 51.54,-60.99 13.7,-22.93 24.11,-47.75 31.68,-73.99l141.84 0c-10.64,42.55 -27.19,82.73 -49.88,120.56 -22.46,37.82 -50.59,70.92 -84.16,99.29 -33.33,28.38 -71.63,50.83 -114.65,67.14 -42.79,16.55 -89.83,24.59 -141.13,24.59 -56.74,0 -110.88,-11.58 -162.41,-34.51 -51.54,-23.17 -96.69,-55.32 -135.46,-96.22 -38.77,-41.13 -69.74,-89.12 -92.91,-144.21 -22.93,-54.85 -34.51,-114.42 -34.51,-178.71 0,-63.12 11.58,-122.46 34.51,-178.01 23.17,-55.32 54.14,-103.54 92.91,-144.68 38.77,-41.14 83.92,-73.05 135.46,-96.22 51.53,-23.17 105.66,-34.75 162.41,-34.75 48.93,0 94.79,8.28 137.34,24.59 42.79,16.54 80.38,38.77 113,67.37 32.63,28.37 60.28,61.46 82.98,99.29 22.93,37.83 39.47,78.02 49.64,120.57l-142.08 0c-7.33,-26.48 -17.96,-51.3 -31.68,-74.47 -13.94,-23.4 -30.97,-43.73 -51.3,-60.98 -20.33,-17.26 -43.73,-30.98 -69.98,-40.9 -26.24,-9.93 -55.55,-14.89 -87.93,-14.89 -36.88,0 -72.82,8.28 -107.8,24.59 -34.75,16.31 -65.72,39.47 -92.67,69.26 -27.19,29.79 -48.94,65.01 -65.48,105.91 -16.55,40.89 -25.06,85.34 -25.06,133.33z"/>
   <polygon id="5" class="fil1" points="9027.34,5237.06 9701.08,5237.06 9701.08,5364.48 9431.11,5364.48 9431.11,6130.41 9296.6,6130.41 9296.6,5364.48 9027.34,5364.48 "/>
   <polygon id="6" class="fil1" points="10431.08,6002.99 10431.08,6130.41 9828.49,6130.41 9828.49,5237.06 10417.13,5237.06 10417.13,5364.48 9963.01,5364.48 9963.01,5605.37 10381.2,5605.37 10381.2,5733.5 9963.01,5733.5 9963.01,6002.99 "/>
   <path id="7" class="fil1" d="M10934.61 5237.06c38.77,0 75.42,7.33 109.69,22.46 34.51,14.89 64.53,35.21 90.07,60.98 25.77,25.54 46.1,55.56 60.99,90.07 15.12,34.28 22.45,70.92 22.45,109.69 0,38.77 -7.33,75.42 -22.45,110.16 -14.89,34.51 -35.22,64.54 -60.99,90.07 -25.54,25.3 -55.56,45.63 -90.07,60.75 -34.27,15.36 -70.92,22.93 -109.69,22.93l-191.71 0 0 326.23 -134.52 0 0 -893.35 326.23 0zm0 439.7c19.86,0 38.77,-4.02 56.5,-12.05 17.72,-8.05 33.57,-19.39 47.28,-33.58 13.94,-14.42 24.82,-30.97 33.1,-49.88 8.04,-18.91 12.05,-39.24 12.05,-60.99 0,-20.8 -4.02,-40.66 -12.05,-59.57 -8.28,-18.91 -19.15,-35.45 -33.1,-49.41 -13.71,-14.18 -29.56,-25.53 -47.28,-34.03 -17.73,-8.52 -36.64,-12.77 -56.5,-12.77l-191.71 0 0 312.29 191.71 0z"/>
   <path id="8" class="fil1" d="M11451.15 5683.62c0,47.99 8.51,92.43 25.06,133.09 16.54,40.66 38.29,75.89 65.48,105.67 26.95,29.79 57.91,52.95 92.67,69.5 34.98,16.54 70.92,25.06 107.8,25.06 34.03,0 65,-4.97 92.43,-14.89 27.42,-9.94 51.54,-23.88 72.34,-41.37 20.8,-17.49 38.06,-37.82 51.54,-60.99 13.7,-22.93 24.11,-47.75 31.68,-73.99l141.84 0c-10.64,42.55 -27.19,82.73 -49.88,120.56 -22.46,37.82 -50.59,70.92 -84.16,99.29 -33.33,28.38 -71.63,50.83 -114.65,67.14 -42.79,16.55 -89.83,24.59 -141.13,24.59 -56.74,0 -110.88,-11.58 -162.41,-34.51 -51.54,-23.17 -96.69,-55.32 -135.46,-96.22 -38.77,-41.13 -69.74,-89.12 -92.91,-144.21 -22.93,-54.85 -34.51,-114.42 -34.51,-178.71 0,-63.12 11.58,-122.46 34.51,-178.01 23.17,-55.32 54.14,-103.54 92.91,-144.68 38.77,-41.14 83.92,-73.05 135.46,-96.22 51.53,-23.17 105.66,-34.75 162.41,-34.75 48.93,0 94.79,8.28 137.34,24.59 42.79,16.54 80.38,38.77 113,67.37 32.63,28.37 60.28,61.46 82.98,99.29 22.93,37.83 39.47,78.02 49.64,120.57l-142.08 0c-7.33,-26.48 -17.96,-51.3 -31.68,-74.47 -13.94,-23.4 -30.97,-43.73 -51.3,-60.98 -20.33,-17.26 -43.73,-30.98 -69.98,-40.9 -26.24,-9.93 -55.55,-14.89 -87.93,-14.89 -36.88,0 -72.82,8.28 -107.8,24.59 -34.75,16.31 -65.72,39.47 -92.67,69.26 -27.19,29.79 -48.94,65.01 -65.48,105.91 -16.55,40.89 -25.06,85.34 -25.06,133.33z"/>
   <polygon id="9" class="fil1" points="12195.81,5237.06 12869.55,5237.06 12869.55,5364.48 12599.58,5364.48 12599.58,6130.41 12465.07,6130.41 12465.07,5364.48 12195.81,5364.48 "/>
   <path id="10" class="fil1" d="M13514.44 5655.25c23.41,13.48 44.68,30.5 63.59,51.31 16.31,17.96 30.98,40.66 43.97,67.84 13.24,27.19 19.86,60.76 19.86,100.48 0,34.03 -7.1,66.66 -21.28,97.4 -13.94,30.5 -33.8,57.68 -59.57,80.84 -25.53,23.41 -55.55,42.08 -89.83,56.26 -34.51,13.94 -72.1,21.04 -112.76,21.04l-361.46 0 0 -893.35 354.6 0c35.22,0 68.32,6.38 99.53,19.62 30.97,13.23 58.15,31.21 81.32,53.66 22.93,22.7 41.13,48.94 54.37,78.72 13.24,29.79 19.62,61.7 19.62,95.98 0,28.14 -4.96,52.96 -14.89,74.23 -9.93,21.52 -20.33,39.24 -31.44,53.2 -13.47,17.02 -28.61,31.21 -45.63,42.78zm-382.96 -49.88l220.08 0c36.17,0 66.19,-12.05 90.78,-35.93 24.59,-24.11 36.64,-52.24 36.64,-84.39 0,-32.39 -12.29,-60.51 -36.88,-84.63 -24.82,-24.11 -54.85,-35.93 -90.54,-35.93l-220.08 0 0 240.89zm226.94 397.62c20.8,0 40.42,-3.78 58.86,-11.34 18.67,-7.8 34.51,-17.96 47.52,-30.5 13.23,-12.76 23.64,-27.66 31.21,-44.68 7.56,-17.25 11.34,-35.69 11.34,-55.56 0,-19.85 -3.79,-38.29 -11.34,-55.32 -7.57,-17.02 -17.97,-31.92 -31.21,-44.68 -13,-12.76 -28.85,-22.93 -47.52,-30.5 -18.44,-7.56 -38.06,-11.34 -58.86,-11.34l-226.94 0 0 283.91 226.94 0z"/>
   <path id="11" class="fil1" d="M14457.68 5683.62c0,-47.99 -8.28,-92.44 -24.83,-133.33 -16.54,-40.9 -38.29,-76.13 -65.24,-105.91 -26.72,-29.79 -57.68,-52.95 -92.67,-69.26 -35.22,-16.31 -71.16,-24.59 -108.03,-24.59 -36.88,0 -72.82,8.28 -107.8,24.59 -34.75,16.31 -65.72,39.47 -92.67,69.26 -27.19,29.79 -48.94,65.01 -65.48,105.67 -16.55,40.66 -25.06,85.1 -25.06,133.57 0,47.99 8.51,92.43 25.06,133.09 16.54,40.66 38.29,75.89 65.48,105.67 26.95,29.79 57.91,52.95 92.67,69.5 34.98,16.54 70.92,25.06 107.8,25.06 36.87,0 72.81,-8.52 108.03,-25.06 34.98,-16.55 65.95,-39.71 92.67,-69.5 26.95,-29.79 48.7,-65.01 65.24,-105.67 16.55,-40.66 24.83,-85.1 24.83,-133.09zm134.51 0c0,64.29 -11.58,123.86 -34.75,178.71 -23.17,55.09 -53.9,103.07 -92.67,144.21 -39,40.9 -83.92,73.05 -135.46,96.22 -51.53,22.93 -105.66,34.51 -162.4,34.51 -56.74,0 -110.88,-11.58 -162.41,-34.51 -51.54,-23.17 -96.69,-55.32 -135.46,-96.22 -38.77,-41.13 -69.74,-89.12 -92.91,-144.21 -22.93,-54.85 -34.51,-114.42 -34.51,-178.71 0,-63.12 11.58,-122.46 34.51,-178.01 23.17,-55.32 54.14,-103.54 92.91,-144.68 38.77,-41.14 83.92,-73.05 135.46,-96.22 51.53,-23.17 105.66,-34.75 162.41,-34.75 56.73,0 110.87,11.58 162.4,34.75 51.54,23.17 96.46,55.08 135.46,96.22 38.77,41.13 69.5,89.36 92.67,144.68 23.17,55.56 34.75,114.89 34.75,178.01z"/>
   <path id="12" class="fil1" d="M15137.79 5683.62c0,47.99 8.51,92.43 25.06,133.09 16.54,40.66 38.29,75.89 65.48,105.67 26.95,29.79 57.91,52.95 92.67,69.5 34.98,16.54 70.92,25.06 107.8,25.06 34.03,0 65,-4.97 92.43,-14.89 27.42,-9.94 51.54,-23.88 72.34,-41.37 20.8,-17.49 38.06,-37.82 51.54,-60.99 13.7,-22.93 24.11,-47.75 31.68,-73.99l141.84 0c-10.64,42.55 -27.19,82.73 -49.88,120.56 -22.46,37.82 -50.59,70.92 -84.16,99.29 -33.33,28.38 -71.63,50.83 -114.65,67.14 -42.79,16.55 -89.83,24.59 -141.13,24.59 -56.74,0 -110.88,-11.58 -162.41,-34.51 -51.54,-23.17 -96.69,-55.32 -135.46,-96.22 -38.77,-41.13 -69.74,-89.12 -92.91,-144.21 -22.93,-54.85 -34.51,-114.42 -34.51,-178.71 0,-63.12 11.58,-122.46 34.51,-178.01 23.17,-55.32 54.14,-103.54 92.91,-144.68 38.77,-41.14 83.92,-73.05 135.46,-96.22 51.53,-23.17 105.66,-34.75 162.41,-34.75 48.93,0 94.79,8.28 137.34,24.59 42.79,16.54 80.38,38.77 113,67.37 32.63,28.37 60.28,61.46 82.98,99.29 22.93,37.83 39.47,78.02 49.64,120.57l-142.08 0c-7.33,-26.48 -17.96,-51.3 -31.68,-74.47 -13.94,-23.4 -30.97,-43.73 -51.3,-60.98 -20.33,-17.26 -43.73,-30.98 -69.98,-40.9 -26.24,-9.93 -55.55,-14.89 -87.93,-14.89 -36.88,0 -72.82,8.28 -107.8,24.59 -34.75,16.31 -65.72,39.47 -92.67,69.26 -27.19,29.79 -48.94,65.01 -65.48,105.91 -16.55,40.89 -25.06,85.34 -25.06,133.33z"/>
   <polygon id="13" class="fil1" points="15882.45,5237.06 16556.19,5237.06 16556.19,5364.48 16286.22,5364.48 16286.22,6130.41 16151.71,6130.41 16151.71,5364.48 15882.45,5364.48 "/>
   <path id="14" class="fil1" d="M17009.84 5237.06c38.77,0 75.42,7.33 109.69,22.46 34.51,14.89 64.53,35.21 90.07,60.98 25.77,25.54 46.1,55.56 60.99,90.07 15.12,34.28 22.45,70.92 22.45,109.69 0,38.77 -7.33,75.42 -22.45,110.16 -14.89,34.51 -35.22,64.54 -60.99,90.07 -25.54,25.3 -55.56,45.63 -90.07,60.75 -34.27,15.36 -70.92,22.93 -109.69,22.93l-191.71 0 0 326.23 -134.52 0 0 -893.35 326.23 0zm0 439.7c19.86,0 38.77,-4.02 56.5,-12.05 17.72,-8.05 33.57,-19.39 47.28,-33.58 13.94,-14.42 24.82,-30.97 33.1,-49.88 8.04,-18.91 12.05,-39.24 12.05,-60.99 0,-20.8 -4.02,-40.66 -12.05,-59.57 -8.28,-18.91 -19.15,-35.45 -33.1,-49.41 -13.71,-14.18 -29.56,-25.53 -47.28,-34.03 -17.73,-8.52 -36.64,-12.77 -56.5,-12.77l-191.71 0 0 312.29 191.71 0z"/>
   <path id="15" class="fil1" d="M17442.22 6130.41l-142.08 0 340.65 -893.35 113 0 340.66 893.35 -141.85 0 -78.25 -205.67 -354.6 0 -77.54 205.67zm382.97 -333.09l-128.13 -354.59 -127.41 354.59 255.55 0z"/>
   <polygon id="16" class="fil1" points="18044.8,5237.06 18718.54,5237.06 18718.54,5364.48 18448.57,5364.48 18448.57,6130.41 18314.06,6130.41 18314.06,5364.48 18044.8,5364.48 "/>
   <polygon id="17" class="fil1" points="19448.54,6002.99 19448.54,6130.41 18845.95,6130.41 18845.95,5237.06 19434.59,5237.06 19434.59,5364.48 18980.47,5364.48 18980.47,5605.37 19398.65,5605.37 19398.65,5733.5 18980.47,5733.5 18980.47,6002.99 "/>
   <polygon id="18" class="fil1" points="19760.35,5364.48 19760.35,6130.41 19625.83,6130.41 19625.83,5237.06 20157.73,5237.06 20157.73,5364.48 "/>
   <polygon id="19" class="fil1" points="20824.14,6130.41 20824.14,5491.9 20391.29,6130.41 20278.29,6130.41 20278.29,5237.06 20412.81,5237.06 20412.81,5874.87 20845.66,5237.06 20959.13,5237.06 20959.13,6130.41 "/>
   <path id="20" class="fil1" d="M21802.6 5237.06l0 893.35 -134.99 0 0 -319.38c-17.96,10.64 -38.29,20.09 -60.99,28.61 -18.91,7.33 -41.37,13.94 -67.13,19.62 -26.01,5.67 -54.14,8.75 -84.63,8.75 -44.21,0 -84.63,-7.33 -121.04,-21.99 -36.64,-14.41 -67.85,-34.98 -94.33,-61.46 -26.24,-26.71 -46.57,-58.62 -60.99,-95.98 -14.18,-37.35 -21.27,-79.19 -21.27,-125.29l0 -326.22 134.98 0 0 326.22c0,56.74 16.07,101.65 48.23,134.52 31.92,33.1 74.94,49.64 129.07,49.64 26.24,0 51.3,-2.84 74.71,-8.75 23.64,-5.67 44.91,-12.29 63.82,-19.62 21.75,-8.28 41.61,-17.73 59.57,-28.37l0 -453.65 134.99 0z"/>
   <polygon id="21" class="fil1" points="22617.71,6002.99 22617.71,6130.41 22015.11,6130.41 22015.11,5237.06 22603.75,5237.06 22603.75,5364.48 22149.63,5364.48 22149.63,5605.37 22567.82,5605.37 22567.82,5733.5 22149.63,5733.5 22149.63,6002.99 "/>
   <path id="22" class="fil1" d="M22858.6 5683.62c0,47.99 8.51,92.43 25.06,133.09 16.54,40.66 38.29,75.89 65.48,105.67 26.95,29.79 57.91,52.95 92.67,69.5 34.98,16.54 70.92,25.06 107.8,25.06 34.03,0 65,-4.97 92.43,-14.89 27.42,-9.94 51.54,-23.88 72.34,-41.37 20.8,-17.49 38.06,-37.82 51.54,-60.99 13.7,-22.93 24.11,-47.75 31.68,-73.99l141.84 0c-10.64,42.55 -27.19,82.73 -49.88,120.56 -22.46,37.82 -50.59,70.92 -84.16,99.29 -33.33,28.38 -71.63,50.83 -114.65,67.14 -42.79,16.55 -89.83,24.59 -141.13,24.59 -56.74,0 -110.88,-11.58 -162.41,-34.51 -51.54,-23.17 -96.69,-55.32 -135.46,-96.22 -38.77,-41.13 -69.74,-89.12 -92.91,-144.21 -22.93,-54.85 -34.51,-114.42 -34.51,-178.71 0,-63.12 11.58,-122.46 34.51,-178.01 23.17,-55.32 54.14,-103.54 92.91,-144.68 38.77,-41.14 83.92,-73.05 135.46,-96.22 51.53,-23.17 105.66,-34.75 162.41,-34.75 48.93,0 94.79,8.28 137.34,24.59 42.79,16.54 80.38,38.77 113,67.37 32.63,28.37 60.28,61.46 82.98,99.29 22.93,37.83 39.47,78.02 49.64,120.57l-142.08 0c-7.33,-26.48 -17.96,-51.3 -31.68,-74.47 -13.94,-23.4 -30.97,-43.73 -51.3,-60.98 -20.33,-17.26 -43.73,-30.98 -69.98,-40.9 -26.24,-9.93 -55.55,-14.89 -87.93,-14.89 -36.88,0 -72.82,8.28 -107.8,24.59 -34.75,16.31 -65.72,39.47 -92.67,69.26 -27.19,29.79 -48.94,65.01 -65.48,105.91 -16.55,40.89 -25.06,85.34 -25.06,133.33z"/>
   <polygon id="23" class="fil1" points="24177.47,6130.41 23822.88,5711.99 23822.88,6130.41 23688.36,6130.41 23688.36,5237.06 23822.88,5237.06 23822.88,5648.4 24148.87,5237.06 24312.46,5237.06 23950.29,5676.77 24340.83,6130.41 "/>
   <polygon id="24" class="fil1" points="24978.62,6130.41 24978.62,5491.9 24545.78,6130.41 24432.78,6130.41 24432.78,5237.06 24567.3,5237.06 24567.3,5874.87 25000.14,5237.06 25113.61,5237.06 25113.61,6130.41 "/>
   <polygon id="25" class="fil1" points="25793.73,5237.06 25942.66,5237.06 25673.16,5676.77 25957.09,6130.41 25808.15,6130.41 25595.63,5789.77 25382.86,6130.41 25233.46,6130.41 25517.38,5676.77 25247.88,5237.06 25396.82,5237.06 25595.63,5563.29 "/>
   <polygon id="26" class="fil1" points="4993.18,7548.81 4993.18,6910.3 4560.33,7548.81 4447.34,7548.81 4447.34,6655.46 4581.86,6655.46 4581.86,7293.26 5014.7,6655.46 5128.17,6655.46 5128.17,7548.81 "/>
   <polygon id="27" class="fil1" points="6021.52,6655.46 6021.52,7548.81 5886.53,7548.81 5886.53,7158.98 5475.21,7158.98 5475.21,7548.81 5340.69,7548.81 5340.69,6655.46 5475.21,6655.46 5475.21,7030.86 5886.53,7030.86 5886.53,6655.46 "/>
   <polygon id="28" class="fil1" points="6779.88,7548.81 6779.88,6910.3 6347.04,7548.81 6234.04,7548.81 6234.04,6655.46 6368.56,6655.46 6368.56,7293.26 6801.4,6655.46 6914.87,6655.46 6914.87,7548.81 "/>
   <polygon id="29" class="fil1" points="7885.76,7421.39 7885.76,7726.11 7758.35,7726.11 7758.35,7548.81 7127.39,7548.81 7127.39,6655.46 7261.91,6655.46 7261.91,7421.39 7651.72,7421.39 7651.72,6655.46 7786.71,6655.46 7786.71,7421.39 "/>
   <polygon id="30" class="fil1" points="8566.59,7548.81 8566.59,6910.3 8133.74,7548.81 8020.74,7548.81 8020.74,6655.46 8155.26,6655.46 8155.26,7293.26 8588.11,6655.46 8701.58,6655.46 8701.58,7548.81 "/>
   <path id="31" class="fil1" d="M8949.56 7548.81l-142.08 0 340.65 -893.35 113 0 340.66 893.35 -141.85 0 -78.25 -205.67 -354.6 0 -77.54 205.67zm382.97 -333.09l-128.13 -354.59 -127.41 354.59 255.55 0z"/>
   <polygon id="32" class="fil1" points="9552.14,6655.46 10225.88,6655.46 10225.88,6782.87 9955.91,6782.87 9955.91,7548.81 9821.4,7548.81 9821.4,6782.87 9552.14,6782.87 "/>
   <polygon id="33" class="fil1" points="10899.14,7548.81 10899.14,6910.3 10466.29,7548.81 10353.29,7548.81 10353.29,6655.46 10487.81,6655.46 10487.81,7293.26 10920.66,6655.46 11034.13,6655.46 11034.13,7548.81 "/>
   <path id="34" class="fil1" d="M11764.12 7073.64c23.41,13.48 44.68,30.5 63.59,51.31 16.31,17.96 30.98,40.66 43.97,67.84 13.24,27.19 19.86,60.76 19.86,100.48 0,34.03 -7.1,66.66 -21.28,97.4 -13.94,30.5 -33.8,57.68 -59.57,80.84 -25.53,23.41 -55.55,42.08 -89.83,56.26 -34.51,13.94 -72.1,21.04 -112.76,21.04l-361.46 0 0 -893.35 354.6 0c35.22,0 68.32,6.38 99.53,19.62 30.97,13.23 58.15,31.21 81.32,53.66 22.93,22.7 41.13,48.94 54.37,78.72 13.24,29.79 19.62,61.7 19.62,95.98 0,28.14 -4.96,52.96 -14.89,74.23 -9.93,21.52 -20.33,39.24 -31.44,53.2 -13.47,17.02 -28.61,31.21 -45.63,42.78zm-382.96 -49.88l220.08 0c36.17,0 66.19,-12.05 90.78,-35.93 24.59,-24.11 36.64,-52.24 36.64,-84.39 0,-32.39 -12.29,-60.51 -36.88,-84.63 -24.82,-24.11 -54.85,-35.93 -90.54,-35.93l-220.08 0 0 240.89zm226.94 397.62c20.8,0 40.42,-3.78 58.86,-11.34 18.67,-7.8 34.51,-17.96 47.52,-30.5 13.23,-12.76 23.64,-27.66 31.21,-44.68 7.56,-17.25 11.34,-35.69 11.34,-55.56 0,-19.85 -3.79,-38.29 -11.34,-55.32 -7.57,-17.02 -17.97,-31.92 -31.21,-44.68 -13,-12.76 -28.85,-22.93 -47.52,-30.5 -18.44,-7.56 -38.06,-11.34 -58.86,-11.34l-226.94 0 0 283.91 226.94 0z"/>
   <polygon id="35" class="fil1" points="13047.3,6655.46 13047.3,7548.81 12912.31,7548.81 12912.31,6782.87 12494.12,6782.87 12494.12,7548.81 12359.6,7548.81 12359.6,6655.46 "/>
   <path id="36" class="fil1" d="M13919.38 7102.02c0,-47.99 -8.28,-92.44 -24.83,-133.33 -16.54,-40.9 -38.29,-76.13 -65.24,-105.91 -26.72,-29.79 -57.68,-52.95 -92.67,-69.26 -35.22,-16.31 -71.16,-24.59 -108.03,-24.59 -36.88,0 -72.82,8.28 -107.8,24.59 -34.75,16.31 -65.72,39.47 -92.67,69.26 -27.19,29.79 -48.94,65.01 -65.48,105.67 -16.55,40.66 -25.06,85.1 -25.06,133.57 0,47.99 8.51,92.43 25.06,133.09 16.54,40.66 38.29,75.89 65.48,105.67 26.95,29.79 57.91,52.95 92.67,69.5 34.98,16.54 70.92,25.06 107.8,25.06 36.87,0 72.81,-8.52 108.03,-25.06 34.98,-16.55 65.95,-39.71 92.67,-69.5 26.95,-29.79 48.7,-65.01 65.24,-105.67 16.55,-40.66 24.83,-85.1 24.83,-133.09zm134.51 0c0,64.29 -11.58,123.86 -34.75,178.71 -23.17,55.09 -53.9,103.07 -92.67,144.21 -39,40.9 -83.92,73.05 -135.46,96.22 -51.53,22.93 -105.66,34.51 -162.4,34.51 -56.74,0 -110.88,-11.58 -162.41,-34.51 -51.54,-23.17 -96.69,-55.32 -135.46,-96.22 -38.77,-41.13 -69.74,-89.12 -92.91,-144.21 -22.93,-54.85 -34.51,-114.42 -34.51,-178.71 0,-63.12 11.58,-122.46 34.51,-178.01 23.17,-55.32 54.14,-103.54 92.91,-144.68 38.77,-41.14 83.92,-73.05 135.46,-96.22 51.53,-23.17 105.66,-34.75 162.41,-34.75 56.73,0 110.87,11.58 162.4,34.75 51.54,23.17 96.46,55.08 135.46,96.22 38.77,41.13 69.5,89.36 92.67,144.68 23.17,55.56 34.75,114.89 34.75,178.01z"/>
   <path id="37" class="fil1" d="M14848.18 6655.46c38.77,0 75.42,7.33 109.69,22.46 34.51,14.89 64.53,35.21 90.07,60.98 25.77,25.54 46.1,55.56 60.99,90.07 15.12,34.28 22.45,70.92 22.45,109.69 0,38.77 -7.33,75.42 -22.45,110.16 -14.89,34.51 -35.22,64.54 -60.99,90.07 -25.54,25.3 -55.56,45.63 -90.07,60.75 -34.27,15.36 -70.92,22.93 -109.69,22.93l-191.71 0 0 326.23 -134.52 0 0 -893.35 326.23 0zm0 439.7c19.86,0 38.77,-4.02 56.5,-12.05 17.72,-8.05 33.57,-19.39 47.28,-33.58 13.94,-14.42 24.82,-30.97 33.1,-49.88 8.04,-18.91 12.05,-39.24 12.05,-60.99 0,-20.8 -4.02,-40.66 -12.05,-59.57 -8.28,-18.91 -19.15,-35.45 -33.1,-49.41 -13.71,-14.18 -29.56,-25.53 -47.28,-34.03 -17.73,-8.52 -36.64,-12.77 -56.5,-12.77l-191.71 0 0 312.29 191.71 0z"/>
   <path id="38" class="fil1" d="M15280.56 7548.81l-142.08 0 340.65 -893.35 113 0 340.66 893.35 -141.85 0 -78.25 -205.67 -354.6 0 -77.54 205.67zm382.97 -333.09l-128.13 -354.59 -127.41 354.59 255.55 0z"/>
   <path id="39" class="fil1" d="M15975.1 6910.3c1.89,-36.87 10.17,-71.39 25.06,-103.54 14.65,-32.15 34.51,-60.04 59.57,-83.45 24.82,-23.64 54.85,-41.84 90.07,-55.08 34.98,-13.24 73.76,-19.86 116.31,-19.86 42.31,0 81.32,6.86 117.02,20.57 35.45,13.47 66.19,31.92 91.96,55.08 26,22.94 46.1,49.41 60.28,79.19 14.41,29.79 21.51,60.75 21.51,93.15 0,32.39 -5.91,60.04 -17.96,83.21 -12.06,22.93 -24.83,42.07 -38.77,57.44 -17.02,17.02 -35.93,31.68 -56.73,43.73 26.24,12.29 49.88,28.61 70.68,48.46 17.97,17.02 34.28,39.72 49.18,68.09 14.65,28.37 21.98,62.88 21.98,103.54 0,34.27 -7.33,66.42 -21.98,96.92 -14.89,30.5 -35.7,57.44 -62.88,80.85 -26.96,23.17 -59.57,41.84 -97.88,56.02 -38.29,13.94 -81.55,21.04 -129.54,21.04 -46.1,0 -87.71,-6.62 -124.58,-19.62 -37.11,-13.24 -68.79,-31.68 -95.27,-55.56 -26.48,-23.64 -47.52,-51.54 -63.12,-83.68 -15.36,-32.16 -25.3,-66.67 -29.32,-103.54l134.99 0c7.33,39.71 26.24,73.28 56.49,100.71 30.27,27.42 70.45,41.37 120.81,41.37 56.73,0 100.47,-13.95 131.2,-41.37 30.73,-27.43 46.1,-60.99 46.1,-100.71 0,-39.71 -15.37,-73.29 -46.1,-100.48 -30.74,-27.18 -74.47,-40.89 -131.2,-40.89l-70.69 0 0 -121.04 63.83 0c50.35,0 88.88,-12.29 115.6,-36.88 26.71,-24.35 40.19,-54.61 40.19,-90.54 0,-39.71 -13.48,-72.1 -40.43,-97.16 -27.18,-24.83 -65.48,-37.35 -115.36,-37.35 -46.34,0 -82.74,13 -109.93,38.77 -26.95,26 -42.55,60.04 -46.57,102.59l-134.51 0z"/>
   <path id="40" class="fil1" d="M17258.51 7073.64c23.41,13.48 44.68,30.5 63.59,51.31 16.31,17.96 30.98,40.66 43.97,67.84 13.24,27.19 19.86,60.76 19.86,100.48 0,34.03 -7.1,66.66 -21.28,97.4 -13.94,30.5 -33.8,57.68 -59.57,80.84 -25.53,23.41 -55.55,42.08 -89.83,56.26 -34.51,13.94 -72.1,21.04 -112.76,21.04l-361.46 0 0 -893.35 354.6 0c35.22,0 68.32,6.38 99.53,19.62 30.97,13.23 58.15,31.21 81.32,53.66 22.93,22.7 41.13,48.94 54.37,78.72 13.24,29.79 19.62,61.7 19.62,95.98 0,28.14 -4.96,52.96 -14.89,74.23 -9.93,21.52 -20.33,39.24 -31.44,53.2 -13.47,17.02 -28.61,31.21 -45.63,42.78zm-382.96 -49.88l220.08 0c36.17,0 66.19,-12.05 90.78,-35.93 24.59,-24.11 36.64,-52.24 36.64,-84.39 0,-32.39 -12.29,-60.51 -36.88,-84.63 -24.82,-24.11 -54.85,-35.93 -90.54,-35.93l-220.08 0 0 240.89zm226.94 397.62c20.8,0 40.42,-3.78 58.86,-11.34 18.67,-7.8 34.51,-17.96 47.52,-30.5 13.23,-12.76 23.64,-27.66 31.21,-44.68 7.56,-17.25 11.34,-35.69 11.34,-55.56 0,-19.85 -3.79,-38.29 -11.34,-55.32 -7.57,-17.02 -17.97,-31.92 -31.21,-44.68 -13,-12.76 -28.85,-22.93 -47.52,-30.5 -18.44,-7.56 -38.06,-11.34 -58.86,-11.34l-226.94 0 0 283.91 226.94 0z"/>
   <polygon id="41" class="fil1" points="18088.27,7548.81 18088.27,6910.3 17655.42,7548.81 17542.42,7548.81 17542.42,6655.46 17676.94,6655.46 17676.94,7293.26 18109.79,6655.46 18223.26,6655.46 18223.26,7548.81 "/>
   <polygon id="42" class="fil1" points="18350.67,6655.46 19024.41,6655.46 19024.41,6782.87 18754.44,6782.87 18754.44,7548.81 18619.93,7548.81 18619.93,6782.87 18350.67,6782.87 "/>
   <polygon id="43" class="fil1" points="19697.67,7548.81 19697.67,6910.3 19264.82,7548.81 19151.82,7548.81 19151.82,6655.46 19286.34,6655.46 19286.34,7293.26 19719.19,6655.46 19832.66,6655.46 19832.66,7548.81 "/>
   <path id="44" class="fil1" d="M20697.64 6648.36c53.19,0 103.77,11.34 152.24,34.04 48.7,22.69 91.48,53.9 128.83,94.09 37.59,40.18 67.38,88.17 89.36,144.21 22.22,55.79 33.34,116.31 33.34,181.32 0,65.24 -11.12,125.76 -33.34,181.55 -21.98,55.8 -51.77,103.78 -89.36,143.97 -37.35,40.19 -80.37,71.63 -129.07,94.33 -48.7,22.46 -99.29,33.8 -152,33.8 -50.36,0 -98.11,-10.41 -143.26,-31.21 -45.39,-20.57 -86.05,-48.46 -121.99,-83.45 -35.93,-34.74 -65.48,-75.41 -88.65,-121.75 -23.17,-46.33 -37.58,-95.27 -43.73,-146.56l-120.33 0 0 376.11 -134.52 0 0 -893.35 134.52 0 0 389.82 120.33 0c5.67,-54.84 20.09,-106.61 43.26,-154.84 23.4,-48.22 53.19,-90.3 89.12,-125.99 35.93,-35.7 76.6,-64.07 121.99,-84.87 45.15,-20.8 92.9,-31.21 143.26,-31.21zm0 120.57c-34.28,0 -67.38,8.04 -99.29,23.88 -32.16,16.07 -60.76,38.53 -86.05,67.84 -25.06,29.32 -45.39,64.54 -60.99,105.67 -15.36,41.13 -23.17,86.29 -23.17,135.7 0,50.35 7.81,95.98 23.17,136.4 15.6,40.66 35.93,75.65 60.99,104.96 25.29,29.31 53.9,52.01 86.05,67.84 31.91,16.08 65,24.12 99.29,24.12 34.27,0 67.37,-8.04 99.29,-24.12 32.15,-15.83 60.75,-38.53 85.57,-67.84 25.06,-29.32 45.39,-64.3 60.99,-105.2 15.6,-40.89 23.64,-86.28 23.64,-136.16 0,-48.94 -8.04,-94.09 -23.64,-135.23 -15.6,-41.36 -35.93,-76.83 -60.99,-106.14 -24.82,-29.31 -53.43,-51.77 -85.57,-67.84 -31.92,-15.84 -65.01,-23.88 -99.29,-23.88z"/>
   <polygon id="45" class="fil1" points="5128.17,8073.86 5128.17,8967.21 4993.18,8967.21 4993.18,8577.38 4581.86,8577.38 4581.86,8967.21 4447.34,8967.21 4447.34,8073.86 4581.86,8073.86 4581.86,8449.26 4993.18,8449.26 4993.18,8073.86 "/>
   <path id="46" class="fil1" d="M6000.01 8520.42c0,-47.99 -8.28,-92.44 -24.83,-133.33 -16.54,-40.9 -38.29,-76.13 -65.24,-105.91 -26.72,-29.79 -57.68,-52.95 -92.67,-69.26 -35.22,-16.31 -71.16,-24.59 -108.03,-24.59 -36.88,0 -72.82,8.28 -107.8,24.59 -34.75,16.31 -65.72,39.47 -92.67,69.26 -27.19,29.79 -48.94,65.01 -65.48,105.67 -16.55,40.66 -25.06,85.1 -25.06,133.57 0,47.99 8.51,92.43 25.06,133.09 16.54,40.66 38.29,75.89 65.48,105.67 26.95,29.79 57.91,52.95 92.67,69.5 34.98,16.54 70.92,25.06 107.8,25.06 36.87,0 72.81,-8.52 108.03,-25.06 34.98,-16.55 65.95,-39.71 92.67,-69.5 26.95,-29.79 48.7,-65.01 65.24,-105.67 16.55,-40.66 24.83,-85.1 24.83,-133.09zm134.51 0c0,64.29 -11.58,123.86 -34.75,178.71 -23.17,55.09 -53.9,103.07 -92.67,144.21 -39,40.9 -83.92,73.05 -135.46,96.22 -51.53,22.93 -105.66,34.51 -162.4,34.51 -56.74,0 -110.88,-11.58 -162.41,-34.51 -51.54,-23.17 -96.69,-55.32 -135.46,-96.22 -38.77,-41.13 -69.74,-89.12 -92.91,-144.21 -22.93,-54.85 -34.51,-114.42 -34.51,-178.71 0,-63.12 11.58,-122.46 34.51,-178.01 23.17,-55.32 54.14,-103.54 92.91,-144.68 38.77,-41.14 83.92,-73.05 135.46,-96.22 51.53,-23.17 105.66,-34.75 162.41,-34.75 56.73,0 110.87,11.58 162.4,34.75 51.54,23.17 96.46,55.08 135.46,96.22 38.77,41.13 69.5,89.36 92.67,144.68 23.17,55.56 34.75,114.89 34.75,178.01z"/>
   <path id="47" class="fil1" d="M6808.49 8492.04c23.41,13.48 44.68,30.5 63.59,51.31 16.31,17.96 30.98,40.66 43.97,67.84 13.24,27.19 19.86,60.76 19.86,100.48 0,34.03 -7.1,66.66 -21.28,97.4 -13.94,30.5 -33.8,57.68 -59.57,80.84 -25.53,23.41 -55.55,42.08 -89.83,56.26 -34.51,13.94 -72.1,21.04 -112.76,21.04l-361.46 0 0 -893.35 354.6 0c35.22,0 68.32,6.38 99.53,19.62 30.97,13.23 58.15,31.21 81.32,53.66 22.93,22.7 41.13,48.94 54.37,78.72 13.24,29.79 19.62,61.7 19.62,95.98 0,28.14 -4.96,52.96 -14.89,74.23 -9.93,21.52 -20.33,39.24 -31.44,53.2 -13.47,17.02 -28.61,31.21 -45.63,42.78zm-382.96 -49.88l220.08 0c36.17,0 66.19,-12.05 90.78,-35.93 24.59,-24.11 36.64,-52.24 36.64,-84.39 0,-32.39 -12.29,-60.51 -36.88,-84.63 -24.82,-24.11 -54.85,-35.93 -90.54,-35.93l-220.08 0 0 240.89zm226.94 397.62c20.8,0 40.42,-3.78 58.86,-11.34 18.67,-7.8 34.51,-17.96 47.52,-30.5 13.23,-12.76 23.64,-27.66 31.21,-44.68 7.56,-17.25 11.34,-35.69 11.34,-55.56 0,-19.85 -3.79,-38.29 -11.34,-55.32 -7.57,-17.02 -17.97,-31.92 -31.21,-44.68 -13,-12.76 -28.85,-22.93 -47.52,-30.5 -18.44,-7.56 -38.06,-11.34 -58.86,-11.34l-226.94 0 0 283.91 226.94 0z"/>
   <path id="48" class="fil1" d="M7092.4 8967.21l0 -893.35 134.52 0 0 326.22 184.15 0c38.77,0 75.42,7.34 110.16,22.46 34.51,14.89 64.54,35.22 90.07,60.99 25.3,25.53 45.63,55.56 60.75,89.83 15.37,34.51 22.94,71.16 22.94,109.93 0,38.76 -7.57,75.41 -22.94,110.16 -15.12,34.51 -35.45,64.53 -60.75,89.83 -25.53,25.53 -55.56,45.86 -90.07,60.99 -34.74,15.36 -71.39,22.93 -110.16,22.93l-318.67 0zm134.52 -439.7l0 312.28 184.15 0c19.86,0 38.77,-4.02 56.73,-12.05 17.97,-8.28 34.04,-19.38 47.76,-33.57 13.94,-14.42 24.82,-30.97 32.63,-49.65 7.8,-18.67 11.81,-39 11.81,-61.22 0,-20.8 -4.02,-40.66 -11.81,-59.57 -7.81,-18.91 -18.68,-35.46 -32.63,-49.65 -13.71,-13.94 -29.79,-25.29 -47.76,-33.8 -17.96,-8.51 -36.87,-12.76 -56.73,-12.76l-184.15 0zm702.1 439.7l-134.98 0 0 -893.35 134.98 0 0 893.35z"/>
   <polygon id="49" class="fil1" points="8609.15,8073.86 8758.08,8073.86 8488.58,8513.56 8772.5,8967.21 8623.57,8967.21 8411.05,8626.56 8198.28,8967.21 8048.88,8967.21 8332.8,8513.56 8063.3,8073.86 8212.23,8073.86 8411.05,8400.08 "/>
   <polygon id="50" class="fil1" points="9892.32,8073.86 9892.32,8967.21 9757.34,8967.21 9757.34,8201.27 9339.15,8201.27 9339.15,8967.21 9204.63,8967.21 9204.63,8073.86 "/>
   <path id="51" class="fil1" d="M10431.31 8073.86c38.77,0 75.42,7.33 109.69,22.46 34.51,14.89 64.53,35.21 90.07,60.98 25.77,25.54 46.1,55.56 60.99,90.07 15.12,34.28 22.45,70.92 22.45,109.69 0,38.77 -7.33,75.42 -22.45,110.16 -14.89,34.51 -35.22,64.54 -60.99,90.07 -25.54,25.3 -55.56,45.63 -90.07,60.75 -34.27,15.36 -70.92,22.93 -109.69,22.93l-191.71 0 0 326.23 -134.52 0 0 -893.35 326.23 0zm0 439.7c19.86,0 38.77,-4.02 56.5,-12.05 17.72,-8.05 33.57,-19.39 47.28,-33.58 13.94,-14.42 24.82,-30.97 33.1,-49.88 8.04,-18.91 12.05,-39.24 12.05,-60.99 0,-20.8 -4.02,-40.66 -12.05,-59.57 -8.28,-18.91 -19.15,-35.45 -33.1,-49.41 -13.71,-14.18 -29.56,-25.53 -47.28,-34.03 -17.73,-8.52 -36.64,-12.77 -56.5,-12.77l-191.71 0 0 312.29 191.71 0z"/>
   <path id="52" class="fil1" d="M11529.63 8520.42c0,-47.99 -8.28,-92.44 -24.83,-133.33 -16.54,-40.9 -38.29,-76.13 -65.24,-105.91 -26.72,-29.79 -57.68,-52.95 -92.67,-69.26 -35.22,-16.31 -71.16,-24.59 -108.03,-24.59 -36.88,0 -72.82,8.28 -107.8,24.59 -34.75,16.31 -65.72,39.47 -92.67,69.26 -27.19,29.79 -48.94,65.01 -65.48,105.67 -16.55,40.66 -25.06,85.1 -25.06,133.57 0,47.99 8.51,92.43 25.06,133.09 16.54,40.66 38.29,75.89 65.48,105.67 26.95,29.79 57.91,52.95 92.67,69.5 34.98,16.54 70.92,25.06 107.8,25.06 36.87,0 72.81,-8.52 108.03,-25.06 34.98,-16.55 65.95,-39.71 92.67,-69.5 26.95,-29.79 48.7,-65.01 65.24,-105.67 16.55,-40.66 24.83,-85.1 24.83,-133.09zm134.51 0c0,64.29 -11.58,123.86 -34.75,178.71 -23.17,55.09 -53.9,103.07 -92.67,144.21 -39,40.9 -83.92,73.05 -135.46,96.22 -51.53,22.93 -105.66,34.51 -162.4,34.51 -56.74,0 -110.88,-11.58 -162.41,-34.51 -51.54,-23.17 -96.69,-55.32 -135.46,-96.22 -38.77,-41.13 -69.74,-89.12 -92.91,-144.21 -22.93,-54.85 -34.51,-114.42 -34.51,-178.71 0,-63.12 11.58,-122.46 34.51,-178.01 23.17,-55.32 54.14,-103.54 92.91,-144.68 38.77,-41.14 83.92,-73.05 135.46,-96.22 51.53,-23.17 105.66,-34.75 162.41,-34.75 56.73,0 110.87,11.58 162.4,34.75 51.54,23.17 96.46,55.08 135.46,96.22 38.77,41.13 69.5,89.36 92.67,144.68 23.17,55.56 34.75,114.89 34.75,178.01z"/>
   <polygon id="53" class="fil1" points="12423.23,8839.78 12423.23,8967.21 11820.63,8967.21 11820.63,8073.86 12409.27,8073.86 12409.27,8201.27 11955.15,8201.27 11955.15,8442.16 12373.34,8442.16 12373.34,8570.3 11955.15,8570.3 11955.15,8839.78 "/>
   <polygon id="54" class="fil1" points="13089.63,8967.21 12735.04,8548.78 12735.04,8967.21 12600.52,8967.21 12600.52,8073.86 12735.04,8073.86 12735.04,8485.19 13061.03,8073.86 13224.62,8073.86 12862.45,8513.56 13252.99,8967.21 "/>
   <polygon id="55" class="fil1" points="13259.83,8073.86 13933.57,8073.86 13933.57,8201.27 13663.6,8201.27 13663.6,8967.21 13529.09,8967.21 13529.09,8201.27 13259.83,8201.27 "/>
   <path id="56" class="fil1" d="M14691.94 8520.42c0,-47.99 -8.28,-92.44 -24.83,-133.33 -16.54,-40.9 -38.29,-76.13 -65.24,-105.91 -26.72,-29.79 -57.68,-52.95 -92.67,-69.26 -35.22,-16.31 -71.16,-24.59 -108.03,-24.59 -36.88,0 -72.82,8.28 -107.8,24.59 -34.75,16.31 -65.72,39.47 -92.67,69.26 -27.19,29.79 -48.94,65.01 -65.48,105.67 -16.55,40.66 -25.06,85.1 -25.06,133.57 0,47.99 8.51,92.43 25.06,133.09 16.54,40.66 38.29,75.89 65.48,105.67 26.95,29.79 57.91,52.95 92.67,69.5 34.98,16.54 70.92,25.06 107.8,25.06 36.87,0 72.81,-8.52 108.03,-25.06 34.98,-16.55 65.95,-39.71 92.67,-69.5 26.95,-29.79 48.7,-65.01 65.24,-105.67 16.55,-40.66 24.83,-85.1 24.83,-133.09zm134.51 0c0,64.29 -11.58,123.86 -34.75,178.71 -23.17,55.09 -53.9,103.07 -92.67,144.21 -39,40.9 -83.92,73.05 -135.46,96.22 -51.53,22.93 -105.66,34.51 -162.4,34.51 -56.74,0 -110.88,-11.58 -162.41,-34.51 -51.54,-23.17 -96.69,-55.32 -135.46,-96.22 -38.77,-41.13 -69.74,-89.12 -92.91,-144.21 -22.93,-54.85 -34.51,-114.42 -34.51,-178.71 0,-63.12 11.58,-122.46 34.51,-178.01 23.17,-55.32 54.14,-103.54 92.91,-144.68 38.77,-41.14 83.92,-73.05 135.46,-96.22 51.53,-23.17 105.66,-34.75 162.41,-34.75 56.73,0 110.87,11.58 162.4,34.75 51.54,23.17 96.46,55.08 135.46,96.22 38.77,41.13 69.5,89.36 92.67,144.68 23.17,55.56 34.75,114.89 34.75,178.01z"/>
   <path id="57" class="fil1" d="M15500.42 8492.04c23.41,13.48 44.68,30.5 63.59,51.31 16.31,17.96 30.98,40.66 43.97,67.84 13.24,27.19 19.86,60.76 19.86,100.48 0,34.03 -7.1,66.66 -21.28,97.4 -13.94,30.5 -33.8,57.68 -59.57,80.84 -25.53,23.41 -55.55,42.08 -89.83,56.26 -34.51,13.94 -72.1,21.04 -112.76,21.04l-361.46 0 0 -893.35 354.6 0c35.22,0 68.32,6.38 99.53,19.62 30.97,13.23 58.15,31.21 81.32,53.66 22.93,22.7 41.13,48.94 54.37,78.72 13.24,29.79 19.62,61.7 19.62,95.98 0,28.14 -4.96,52.96 -14.89,74.23 -9.93,21.52 -20.33,39.24 -31.44,53.2 -13.47,17.02 -28.61,31.21 -45.63,42.78zm-382.96 -49.88l220.08 0c36.17,0 66.19,-12.05 90.78,-35.93 24.59,-24.11 36.64,-52.24 36.64,-84.39 0,-32.39 -12.29,-60.51 -36.88,-84.63 -24.82,-24.11 -54.85,-35.93 -90.54,-35.93l-220.08 0 0 240.89zm226.94 397.62c20.8,0 40.42,-3.78 58.86,-11.34 18.67,-7.8 34.51,-17.96 47.52,-30.5 13.23,-12.76 23.64,-27.66 31.21,-44.68 7.56,-17.25 11.34,-35.69 11.34,-55.56 0,-19.85 -3.79,-38.29 -11.34,-55.32 -7.57,-17.02 -17.97,-31.92 -31.21,-44.68 -13,-12.76 -28.85,-22.93 -47.52,-30.5 -18.44,-7.56 -38.06,-11.34 -58.86,-11.34l-226.94 0 0 283.91 226.94 0z"/>
   <path class="fil2" d="M443.1 2722.87c9.46,15.22 20.91,27.64 34.17,37.27 13.25,9.64 27.09,16.51 41.57,20.6 14.42,4.13 28.8,5.38 43.08,3.78 14.35,-1.65 27.43,-6.04 39.12,-13.29 10.8,-6.72 19.63,-14.38 26.37,-22.94 6.75,-8.56 11.63,-17.72 14.79,-27.37 3.14,-9.66 4.62,-19.5 4.32,-29.5 -0.17,-9.98 -1.77,-19.89 -4.54,-29.71l44.97 -27.95c5.02,15.59 7.7,31.6 7.95,48.06 0.34,16.41 -2.07,32.46 -7.13,48.06 -4.98,15.57 -12.68,30.24 -23.12,43.89 -10.31,13.67 -23.64,25.49 -39.9,35.6 -17.99,11.18 -37.44,18.17 -58.29,21.05 -20.91,2.81 -41.55,1.51 -61.9,-3.81 -20.4,-5.42 -39.68,-14.52 -57.87,-27.42 -18.07,-12.87 -33.5,-29.48 -46.17,-49.87 -12.43,-20.01 -20.45,-41.11 -24.13,-63.24 -3.55,-22.11 -3.23,-43.5 0.96,-64.18 4.18,-20.69 12.2,-39.7 23.99,-57.2 11.76,-17.49 26.65,-31.84 44.64,-43.02 15.51,-9.64 31.69,-16.05 48.4,-19.26 16.82,-3.18 33.13,-3.54 49.1,-0.9 15.94,2.56 31.23,7.6 45.88,15.12 14.72,7.48 27.89,16.96 39.49,28.46l-45.05 27.99c-7.54,-6.95 -15.8,-12.72 -24.71,-17.36 -9.04,-4.68 -18.44,-7.78 -28.29,-9.24 -9.85,-1.47 -19.97,-1.21 -30.25,0.81 -10.28,2.03 -20.55,6.23 -30.82,12.61 -11.69,7.27 -21.46,16.97 -29.34,29.04 -7.81,12.02 -13.05,25.47 -15.73,40.22 -2.75,14.8 -2.71,30.25 0.11,46.49 2.81,16.22 8.87,31.99 18.32,47.2zm148.12 -288.31l213.62 -132.76 25.11 40.4 -85.6 53.2 150.92 242.86 -42.64 26.5 -150.92 -242.86 -85.38 53.07 -25.11 -40.4zm357.47 -222.15c12.29,-7.65 25.35,-12.53 39.2,-14.49 13.88,-2.09 27.4,-1.56 40.57,1.59 13.2,3.01 25.57,8.54 37.08,16.54 11.55,7.89 21.1,18.05 28.74,30.35 7.64,12.29 12.53,25.37 14.58,39.36 2.09,13.88 1.56,27.4 -1.59,40.58 -3.11,13.04 -8.62,25.41 -16.57,37 -7.86,11.62 -17.98,21.24 -30.27,28.89l-60.79 37.77 64.28 103.43 -42.65 26.51 -176.03 -283.25 103.44 -64.28zm86.64 139.42c6.3,-3.92 11.49,-8.92 15.53,-14.95 4.04,-6.05 6.83,-12.76 8.38,-19.97 1.59,-7.32 1.77,-14.7 0.67,-22.33 -1.18,-7.58 -3.91,-14.81 -8.2,-21.72 -4.11,-6.6 -9.29,-12.09 -15.56,-16.51 -6.35,-4.36 -13.05,-7.47 -20.23,-9.15 -7.14,-1.8 -14.39,-2.26 -21.7,-1.47 -7.3,0.79 -14.12,3.17 -20.42,7.09l-60.79 37.77 61.53 99.02 60.79 -37.77zm226.48 58.64l-45.05 28 -68.02 -350.38 35.83 -22.27 284.03 216.14 -44.97 27.95 -65.33 -49.8 -112.44 69.88 15.94 80.48zm55.8 -181.07l-110.5 -87.19 29.48 137.54 81.02 -50.35zm-40.77 -220.92l213.62 -132.76 25.11 40.4 -85.6 53.2 150.92 242.86 -42.64 26.5 -150.92 -242.86 -85.38 53.07 -25.11 -40.4zm596.02 -33.75l25.11 40.4 -191.06 118.74 -176.03 -283.25 186.64 -115.99 25.11 40.4 -143.99 89.48 47.47 76.38 132.59 -82.39 25.25 40.62 -132.59 82.4 53.1 85.44 148.41 -92.23zm-26.95 -263.89l150.92 242.85 -42.65 26.51 -176.03 -283.25 168.65 -104.81 25.1 40.4 -125.99 78.31zm488.22 33.25l-125.81 -202.46 -11.43 287.75 -35.82 22.26 -176.03 -283.25 42.65 -26.51 125.68 202.23 11.55 -287.52 35.98 -22.35 176.03 283.25 -42.8 26.6zm137.02 -85.15l-47.23 29.35 -2.83 -160.22c-13.63,3.48 -27.32,4.2 -40.85,2.32 -11.45,-1.21 -23.67,-5.15 -36.4,-11.77 -12.79,-6.71 -24.06,-17.99 -33.89,-33.8 -7.27,-11.69 -11.9,-24.19 -13.81,-37.44 -2.02,-13.28 -1.59,-26.13 1.26,-38.6 2.82,-12.34 8.12,-24.05 15.89,-35.12 7.78,-11.07 17.51,-20.13 29.21,-27.4l110.04 -68.38 176.03 283.25 -42.58 26.46 -69.87 -112.43 -49.63 30.84 4.67 152.96zm-36.09 -314.22l-67.46 41.92c-5.7,3.54 -10.35,8.1 -13.95,13.66 -3.69,5.61 -6.18,11.62 -7.57,18.1 -1.3,6.43 -1.52,13.1 -0.64,20.03 0.96,6.89 3.4,13.48 7.31,19.77 3.91,6.3 8.75,11.4 14.54,15.38 5.83,3.86 11.91,6.63 18.25,8.3 6.37,1.55 12.86,1.99 19.58,1.24 6.58,-0.77 12.72,-2.92 18.42,-6.47l67.46 -41.92 -55.95 -90.02z"/>
   <path class="fil2" d="M2463.72 4931.87l-223.24 -83.57 166.59 234.91 -14.79 39.5 -312.33 -116.93 17.61 -47.03 222.98 83.47 -166.34 -234.8 14.85 -39.67 312.33 116.93 -17.66 47.19zm-177.74 -476.45l312.33 116.93 -17.66 47.19 -136.29 -51.03 -53.84 143.81 136.29 51.03 -17.61 47.03 -312.33 -116.93 17.61 -47.03 131.25 49.13 53.84 -143.8 -131.25 -49.14 17.66 -47.19zm411.6 -148.21l-223.24 -83.57 166.59 234.91 -14.79 39.5 -312.33 -116.93 17.61 -47.03 222.98 83.47 -166.34 -234.8 14.85 -39.67 312.33 116.93 -17.66 47.19zm-177.74 -476.45l312.33 116.93 -17.66 47.19 -136.29 -51.03 -53.84 143.81 136.29 51.03 -17.61 47.03 -312.33 -116.93 17.61 -47.03 131.25 49.13 53.84 -143.8 -131.25 -49.14 17.66 -47.19zm394.87 -239.2l106.53 39.88 -16.67 44.55 -61.99 -23.2 -82.58 220.58 -312.33 -116.93 17.61 -47.03 267.78 100.25 51.02 -136.29 -267.78 -100.25 17.67 -47.19 267.78 100.25 12.96 -34.62zm133.66 -221.35l-223.24 -83.57 166.59 234.91 -14.79 39.5 -312.33 -116.93 17.61 -47.03 222.98 83.47 -166.34 -234.8 14.85 -39.67 312.33 116.93 -17.66 47.19zm50.12 -133.88l-18.59 49.67 -267.74 -236.02 14.78 -39.51 356.92 -2.16 -18.56 49.59 -82.14 0.43 -46.42 123.98 61.75 54.03zm-66.32 -177.49l-140.75 -1.62 107.3 90.96 33.45 -89.34zm-167.14 -150.11l88.18 -235.55 44.55 16.68 -35.33 94.39 267.78 100.25 -17.6 47.02 -267.78 -100.25 -35.25 94.14 -44.54 -16.67zm488.64 -354.01l-223.24 -83.57 166.59 234.91 -14.79 39.5 -312.33 -116.93 17.61 -47.03 222.98 83.47 -166.34 -234.8 14.85 -39.67 312.33 116.93 -17.66 47.19zm-52.91 -364.6c7.77,-6.42 16.5,-11.62 26.26,-15.52 8.42,-3.35 18.26,-5.5 29.48,-6.49 11.23,-1.07 23.84,1.01 37.71,6.21 11.9,4.46 22.39,11.2 31.27,20.18 8.84,8.87 15.75,19.38 20.47,31.42 4.84,11.99 7.44,24.93 7.92,38.76 0.36,13.89 -2.08,27.97 -7.41,42.19l-47.31 126.36 -312.33 -116.93 46.41 -123.97c4.62,-12.31 11.19,-23.05 19.89,-32.23 8.68,-9.1 18.52,-16.24 29.41,-21.41 10.94,-5.05 22.49,-7.98 34.63,-8.71 12.15,-0.73 24.15,1.22 36.12,5.71 9.84,3.68 17.87,8.67 24.01,14.91 6.22,6.3 11.06,12.24 14.48,17.96 4.18,6.94 7.16,14.08 8.99,21.55zm-67.57 127.36l28.81 -76.95c4.74,-12.64 4.45,-24.72 -0.68,-36.44 -5.22,-11.75 -13.46,-19.64 -24.71,-23.85 -11.32,-4.24 -22.77,-3.63 -34.41,1.81 -11.68,5.52 -19.74,14.47 -24.42,26.96l-28.81 76.94 84.22 31.54zm168.71 -27.3c2.73,-7.28 3.97,-14.62 3.74,-22.07 -0.28,-7.55 -1.76,-14.41 -4.45,-20.6 -2.72,-6.3 -6.58,-11.88 -11.52,-16.75 -5.05,-4.91 -11,-8.65 -17.94,-11.24 -6.95,-2.6 -13.88,-3.68 -20.82,-3.27 -6.95,0.42 -13.51,2.1 -19.71,5.06 -6.16,2.88 -11.78,7.09 -16.88,12.61 -5.05,5.47 -8.94,11.83 -11.66,19.11l-29.7 79.33 99.26 37.15 29.7 -79.33zm104.94 -144.66l-18.59 49.67 -267.74 -236.02 14.78 -39.51 356.92 -2.16 -18.56 49.59 -82.14 0.43 -46.42 123.98 61.75 54.03zm-66.32 -177.49l-140.75 -1.62 107.3 90.96 33.45 -89.34z"/>
   <path class="fil2" d="M810.81 3692.94l-310.35 122.08 -18.45 -46.89 266.09 -104.66 -57.14 -145.28 -266.08 104.66 -18.38 -46.73 310.35 -122.08 93.97 238.89zm73.66 187.27c5.3,13.47 7.76,27.2 7.19,41.18 -0.46,14.02 -3.42,27.23 -8.89,39.61 -5.35,12.44 -13,23.61 -22.96,33.51 -9.84,9.94 -21.56,17.49 -35.03,22.79 -13.46,5.3 -27.2,7.76 -41.34,7.25 -14.02,-0.45 -27.23,-3.41 -39.62,-8.88 -12.27,-5.42 -23.44,-13.06 -33.42,-22.98 -10.02,-9.83 -17.65,-21.51 -22.95,-34.98l-26.2 -66.6 -113.33 44.58 -18.38 -46.73 310.35 -122.08 44.58 113.33zm-152.75 60.08c2.71,6.91 6.69,12.92 11.9,17.98 5.21,5.06 11.31,9.02 18.12,11.84 6.91,2.87 14.14,4.39 21.85,4.68 7.67,0.21 15.27,-1.18 22.84,-4.15 7.23,-2.85 13.57,-6.95 19.05,-12.32 5.44,-5.46 9.7,-11.49 12.63,-18.25 3.06,-6.7 4.83,-13.75 5.37,-21.08 0.53,-7.32 -0.57,-14.46 -3.29,-21.37l-26.2 -66.6 -108.48 42.67 26.2 66.6zm147.69 382.49c16.66,-6.56 30.98,-15.5 42.92,-26.85 11.95,-11.33 21.21,-23.7 27.88,-37.13 6.7,-13.35 10.52,-27.28 11.4,-41.66 0.85,-14.46 -1.18,-28.08 -6.23,-40.89 -5.04,-12.81 -12.82,-24.16 -23.27,-34.09 -10.42,-9.84 -22.7,-17.43 -36.72,-22.73 -14.06,-5.37 -29.27,-8.11 -45.66,-8.3 -16.38,-0.2 -32.99,2.92 -49.82,9.55 -16.67,6.56 -30.95,15.58 -42.82,26.89 -11.86,11.3 -21.13,23.67 -27.76,37.18 -6.67,13.43 -10.49,27.36 -11.48,41.69 -0.97,14.41 0.99,28.07 6.03,40.87 5.04,12.82 12.9,24.14 23.47,34.11 10.53,9.9 22.8,17.48 36.8,22.69 14.03,5.3 29.24,8.04 45.63,8.24 16.38,0.19 32.96,-3.01 49.63,-9.57zm18.38 46.73c-22.34,8.79 -44.63,12.9 -66.84,12.34 -22.3,-0.52 -43.17,-4.64 -62.76,-12.48 -19.53,-7.97 -36.84,-19.17 -51.94,-33.91 -15,-14.77 -26.43,-32 -34.18,-51.71 -7.75,-19.71 -11.12,-40.1 -10.2,-61.13 1,-21.07 6.01,-41.14 14.91,-60.2 9,-19.09 21.43,-36.41 37.4,-51.99 15.91,-15.45 35.03,-27.62 57.37,-36.4 21.92,-8.63 44.12,-12.7 66.55,-12.33 22.39,0.48 43.37,4.66 62.95,12.5 19.6,7.85 36.85,19.17 51.95,33.91 15.08,14.72 26.51,31.96 34.26,51.67 7.75,19.7 11.13,40.1 10.12,61.17 -1,21.07 -5.96,41.03 -14.92,60.2 -8.99,19.09 -21.54,36.35 -37.59,51.97 -16.13,15.63 -35.16,27.77 -57.08,36.39zm-7.23 307.35l-44.27 17.41 -82.33 -209.34 310.35 -122.08 80.43 204.49 -44.27 17.41 -62.05 -157.76 -83.68 32.92 57.13 145.28 -44.5 17.51 -57.14 -145.28 -93.63 36.82 63.96 162.61zm46.8 248.92l96.91 -180.36 -145.36 57.17 -18.38 -46.73 310.35 -122.08 18.38 46.73 -142.91 56.21 187.46 57.03 22.35 56.82 -202.25 -65.73 -104.23 197.66 -22.32 -56.74zm333.61 -62.94l92.07 234.07 -44.27 17.41 -36.88 -93.79 -266.09 104.66 -18.38 -46.73 266.09 -104.66 -36.79 -93.55 44.26 -17.41z"/>
  </g>
 </g>
</svg>
