<?xml version="1.0" encoding="UTF-8"?>
<!DOCTYPE svg PUBLIC "-//W3C//DTD SVG 1.1//EN" "http://www.w3.org/Graphics/SVG/1.1/DTD/svg11.dtd">
<!-- Creator: CorelDRAW 2019 (64-Bit) -->
<svg xmlns="http://www.w3.org/2000/svg" xml:space="preserve" width="229.194mm" height="49.8086mm" version="1.1" style="shape-rendering:geometricPrecision; text-rendering:geometricPrecision; image-rendering:optimizeQuality; fill-rule:evenodd; clip-rule:evenodd"
viewBox="0 0 22907.83 4978.34"
 xmlns:xlink="http://www.w3.org/1999/xlink">
 <defs>
  <style type="text/css">
   <![CDATA[
    .fil4 {fill:#34B36E}
    .fil2 {fill:#A13941}
    .fil3 {fill:#FFD31A}
    .fil1 {fill:#3F3D41;fill-rule:nonzero}
    .fil0 {fill:#4871B3;fill-rule:nonzero}
    .fil5 {fill:url(#id0);fill-rule:nonzero}
   ]]>
  </style>
  <linearGradient id="id0" gradientUnits="userSpaceOnUse" x1="667.54" y1="4576.81" x2="4447.09" y2="4576.81">
   <stop offset="0" style="stop-opacity:1; stop-color:#4871B3"/>
   <stop offset="1" style="stop-opacity:1; stop-color:#34B36E"/>
  </linearGradient>
 </defs>
 <g id="Слой_x0020_1">
  <metadata id="CorelCorpID_0Corel-Layer"/>
  <g id="_2246122719696">
   <path class="fil0" d="M1478.46 3354.97l-343.56 0 645.89 -1731.6 302.37 0 474.14 1271.09 474.12 -1271.09 302.37 0 645.92 1731.6 -343.59 0c-300.2,-867.2 -88.88,-258.74 -453.52,-1291.83l-453.52 1291.83 -343.56 0 -0.03 0 -123.69 -357.33 -659.67 0 -123.69 357.33zm673.4 -659.66l-219.88 -632.17 -219.88 632.17 439.76 0z"/>
   <polygon class="fil1" points="7156.09,539.11 7156.09,1432.4 7021.1,1432.4 7021.1,879.02 6766.28,1432.4 6681.19,1432.4 6425.66,879.02 6425.66,1432.4 6291.14,1432.4 6291.14,539.11 6404.14,539.11 6723.25,1226.75 7042.61,539.11 "/>
   <polygon id="1" class="fil1" points="7914.64,1432.4 7914.64,793.93 7481.82,1432.4 7368.83,1432.4 7368.83,539.11 7503.34,539.11 7503.34,1176.87 7936.16,539.11 8049.62,539.11 8049.62,1432.4 "/>
   <polygon id="2" class="fil1" points="8942.92,539.11 8942.92,1432.4 8807.94,1432.4 8807.94,1042.6 8396.64,1042.6 8396.64,1432.4 8262.12,1432.4 8262.12,539.11 8396.64,539.11 8396.64,914.49 8807.94,914.49 8807.94,539.11 "/>
   <polygon id="3" class="fil1" points="9701.24,1432.4 9701.24,793.93 9268.42,1432.4 9155.42,1432.4 9155.42,539.11 9289.93,539.11 9289.93,1176.87 9722.75,539.11 9836.22,539.11 9836.22,1432.4 "/>
   <path id="4" class="fil1" d="M10126.26 985.64c0,47.99 8.51,92.42 25.06,133.08 16.54,40.66 38.29,75.88 65.48,105.67 26.95,29.78 57.91,52.94 92.66,69.49 34.98,16.54 70.91,25.06 107.8,25.06 34.03,0 65,-4.97 92.42,-14.89 27.42,-9.93 51.53,-23.88 72.33,-41.37 20.8,-17.49 38.06,-37.82 51.53,-60.99 13.7,-22.93 24.11,-47.75 31.67,-73.98l141.83 0c-10.63,42.55 -27.19,82.73 -49.87,120.55 -22.46,37.82 -50.58,70.91 -84.16,99.28 -33.32,28.38 -71.62,50.82 -114.64,67.14 -42.79,16.55 -89.82,24.59 -141.12,24.59 -56.74,0 -110.87,-11.58 -162.4,-34.51 -51.53,-23.17 -96.68,-55.31 -135.45,-96.21 -38.77,-41.13 -69.73,-89.11 -92.9,-144.2 -22.93,-54.84 -34.51,-114.41 -34.51,-178.7 0,-63.12 11.58,-122.45 34.51,-178 23.17,-55.31 54.13,-103.54 92.9,-144.67 38.77,-41.14 83.92,-73.04 135.45,-96.21 51.52,-23.17 105.66,-34.75 162.4,-34.75 48.93,0 94.78,8.28 137.33,24.59 42.79,16.54 80.38,38.77 112.99,67.37 32.62,28.37 60.28,61.46 82.98,99.28 22.93,37.83 39.47,78.01 49.63,120.56l-142.07 0c-7.33,-26.48 -17.96,-51.29 -31.67,-74.46 -13.94,-23.4 -30.96,-43.73 -51.29,-60.98 -20.33,-17.26 -43.73,-30.97 -69.97,-40.9 -26.24,-9.92 -55.54,-14.89 -87.93,-14.89 -36.88,0 -72.81,8.28 -107.8,24.59 -34.75,16.31 -65.72,39.47 -92.66,69.25 -27.19,29.78 -48.94,65.01 -65.48,105.91 -16.55,40.89 -25.06,85.34 -25.06,133.32z"/>
   <polygon id="5" class="fil1" points="10870.87,539.11 11544.57,539.11 11544.57,666.51 11274.62,666.51 11274.62,1432.4 11140.12,1432.4 11140.12,666.51 10870.87,666.51 "/>
   <polygon id="6" class="fil1" points="12274.53,1304.99 12274.53,1432.4 11671.98,1432.4 11671.98,539.11 12260.58,539.11 12260.58,666.51 11806.49,666.51 11806.49,907.39 12224.65,907.39 12224.65,1035.52 11806.49,1035.52 11806.49,1304.99 "/>
   <path id="7" class="fil1" d="M12778.03 539.11c38.77,0 75.41,7.33 109.68,22.46 34.51,14.89 64.53,35.21 90.06,60.98 25.77,25.54 46.1,55.55 60.99,90.06 15.12,34.28 22.45,70.91 22.45,109.68 0,38.77 -7.33,75.41 -22.45,110.15 -14.89,34.51 -35.22,64.54 -60.99,90.06 -25.54,25.3 -55.55,45.63 -90.06,60.75 -34.27,15.36 -70.91,22.93 -109.68,22.93l-191.7 0 0 326.21 -134.51 0 0 -893.3 326.21 0zm0 439.68c19.86,0 38.77,-4.02 56.5,-12.05 17.72,-8.05 33.56,-19.39 47.28,-33.57 13.94,-14.42 24.82,-30.96 33.09,-49.87 8.04,-18.91 12.05,-39.24 12.05,-60.99 0,-20.8 -4.02,-40.66 -12.05,-59.57 -8.28,-18.91 -19.15,-35.45 -33.09,-49.4 -13.71,-14.18 -29.56,-25.53 -47.28,-34.03 -17.73,-8.52 -36.64,-12.77 -56.5,-12.77l-191.7 0 0 312.27 191.7 0z"/>
   <path id="8" class="fil1" d="M13294.54 985.64c0,47.99 8.51,92.42 25.06,133.08 16.54,40.66 38.29,75.88 65.48,105.67 26.95,29.78 57.91,52.94 92.66,69.49 34.98,16.54 70.91,25.06 107.8,25.06 34.03,0 65,-4.97 92.42,-14.89 27.42,-9.93 51.53,-23.88 72.33,-41.37 20.8,-17.49 38.06,-37.82 51.53,-60.99 13.7,-22.93 24.11,-47.75 31.67,-73.98l141.83 0c-10.63,42.55 -27.19,82.73 -49.87,120.55 -22.46,37.82 -50.58,70.91 -84.16,99.28 -33.32,28.38 -71.62,50.82 -114.64,67.14 -42.79,16.55 -89.82,24.59 -141.12,24.59 -56.74,0 -110.87,-11.58 -162.4,-34.51 -51.53,-23.17 -96.68,-55.31 -135.45,-96.21 -38.77,-41.13 -69.73,-89.11 -92.9,-144.2 -22.93,-54.84 -34.51,-114.41 -34.51,-178.7 0,-63.12 11.58,-122.45 34.51,-178 23.17,-55.31 54.13,-103.54 92.9,-144.67 38.77,-41.14 83.92,-73.04 135.45,-96.21 51.52,-23.17 105.66,-34.75 162.4,-34.75 48.93,0 94.78,8.28 137.33,24.59 42.79,16.54 80.38,38.77 112.99,67.37 32.62,28.37 60.28,61.46 82.98,99.28 22.93,37.83 39.47,78.01 49.63,120.56l-142.07 0c-7.33,-26.48 -17.96,-51.29 -31.67,-74.46 -13.94,-23.4 -30.96,-43.73 -51.29,-60.98 -20.33,-17.26 -43.73,-30.97 -69.97,-40.9 -26.24,-9.92 -55.54,-14.89 -87.93,-14.89 -36.88,0 -72.81,8.28 -107.8,24.59 -34.75,16.31 -65.72,39.47 -92.66,69.25 -27.19,29.78 -48.94,65.01 -65.48,105.91 -16.55,40.89 -25.06,85.34 -25.06,133.32z"/>
   <polygon id="9" class="fil1" points="14039.15,539.11 14712.85,539.11 14712.85,666.51 14442.89,666.51 14442.89,1432.4 14308.39,1432.4 14308.39,666.51 14039.15,666.51 "/>
   <path id="10" class="fil1" d="M15357.7 957.27c23.41,13.48 44.68,30.49 63.59,51.3 16.31,17.96 30.97,40.66 43.97,67.84 13.24,27.19 19.86,60.76 19.86,100.47 0,34.03 -7.1,66.66 -21.28,97.39 -13.94,30.49 -33.8,57.68 -59.57,80.84 -25.53,23.41 -55.54,42.08 -89.82,56.26 -34.51,13.94 -72.09,21.04 -112.75,21.04l-361.44 0 0 -893.3 354.58 0c35.22,0 68.32,6.38 99.52,19.62 30.96,13.23 58.15,31.2 81.32,53.65 22.93,22.7 41.13,48.94 54.36,78.72 13.24,29.78 19.62,61.7 19.62,95.97 0,28.14 -4.96,52.95 -14.89,74.22 -9.92,21.52 -20.33,39.24 -31.43,53.19 -13.47,17.02 -28.61,31.2 -45.63,42.78zm-382.94 -49.87l220.07 0c36.17,0 66.19,-12.05 90.77,-35.93 24.59,-24.11 36.64,-52.23 36.64,-84.39 0,-32.38 -12.29,-60.51 -36.88,-84.63 -24.82,-24.11 -54.84,-35.93 -90.53,-35.93l-220.07 0 0 240.88zm226.93 397.6c20.8,0 40.42,-3.78 58.86,-11.34 18.67,-7.8 34.51,-17.96 47.52,-30.49 13.23,-12.76 23.64,-27.66 31.2,-44.68 7.56,-17.25 11.34,-35.69 11.34,-55.55 0,-19.85 -3.79,-38.29 -11.34,-55.31 -7.57,-17.02 -17.97,-31.91 -31.2,-44.68 -13,-12.76 -28.85,-22.93 -47.52,-30.49 -18.44,-7.56 -38.06,-11.34 -58.86,-11.34l-226.93 0 0 283.9 226.93 0z"/>
   <path id="11" class="fil1" d="M16300.88 985.64c0,-47.99 -8.28,-92.43 -24.83,-133.32 -16.54,-40.9 -38.29,-76.12 -65.24,-105.91 -26.72,-29.78 -57.68,-52.94 -92.66,-69.25 -35.22,-16.31 -71.15,-24.59 -108.03,-24.59 -36.88,0 -72.81,8.28 -107.8,24.59 -34.75,16.31 -65.72,39.47 -92.66,69.25 -27.19,29.78 -48.94,65.01 -65.48,105.67 -16.55,40.66 -25.06,85.1 -25.06,133.56 0,47.99 8.51,92.42 25.06,133.08 16.54,40.66 38.29,75.88 65.48,105.67 26.95,29.78 57.91,52.94 92.66,69.49 34.98,16.54 70.91,25.06 107.8,25.06 36.87,0 72.8,-8.52 108.03,-25.06 34.98,-16.55 65.95,-39.71 92.66,-69.49 26.95,-29.78 48.7,-65.01 65.24,-105.67 16.55,-40.66 24.83,-85.1 24.83,-133.08zm134.5 0c0,64.29 -11.58,123.86 -34.75,178.7 -23.17,55.08 -53.89,103.07 -92.66,144.2 -39,40.9 -83.92,73.04 -135.45,96.21 -51.52,22.93 -105.66,34.51 -162.39,34.51 -56.74,0 -110.87,-11.58 -162.4,-34.51 -51.53,-23.17 -96.68,-55.31 -135.45,-96.21 -38.77,-41.13 -69.73,-89.11 -92.9,-144.2 -22.93,-54.84 -34.51,-114.41 -34.51,-178.7 0,-63.12 11.58,-122.45 34.51,-178 23.17,-55.31 54.13,-103.54 92.9,-144.67 38.77,-41.14 83.92,-73.04 135.45,-96.21 51.52,-23.17 105.66,-34.75 162.4,-34.75 56.73,0 110.86,11.58 162.39,34.75 51.53,23.17 96.45,55.07 135.45,96.21 38.77,41.13 69.49,89.35 92.66,144.67 23.17,55.55 34.75,114.88 34.75,178z"/>
   <path id="12" class="fil1" d="M6617.36 1957.42c38.77,0 75.41,7.33 109.68,22.46 34.51,14.89 64.53,35.21 90.06,60.98 25.77,25.54 46.1,55.55 60.99,90.06 15.12,34.28 22.45,70.91 22.45,109.68 0,38.77 -7.33,75.41 -22.45,110.15 -14.89,34.51 -35.22,64.54 -60.99,90.06 -25.54,25.3 -55.55,45.63 -90.06,60.75 -34.27,15.36 -70.91,22.93 -109.68,22.93l-191.7 0 0 326.21 -134.51 0 0 -893.3 326.21 0zm0 439.68c19.86,0 38.77,-4.02 56.5,-12.05 17.72,-8.05 33.56,-19.39 47.28,-33.57 13.94,-14.42 24.82,-30.96 33.09,-49.87 8.04,-18.91 12.05,-39.24 12.05,-60.99 0,-20.8 -4.02,-40.66 -12.05,-59.57 -8.28,-18.91 -19.15,-35.45 -33.09,-49.4 -13.71,-14.18 -29.56,-25.53 -47.28,-34.03 -17.73,-8.52 -36.64,-12.77 -56.5,-12.77l-191.7 0 0 312.27 191.7 0z"/>
   <path id="13" class="fil1" d="M7049.71 2850.72l-142.07 0 340.63 -893.3 112.99 0 340.64 893.3 -141.84 0 -78.24 -205.66 -354.58 0 -77.53 205.66zm382.95 -333.07l-128.13 -354.57 -127.41 354.57 255.53 0z"/>
   <path id="14" class="fil1" d="M7744.21 2212.24c1.89,-36.87 10.16,-71.38 25.06,-103.54 14.65,-32.14 34.51,-60.04 59.57,-83.45 24.82,-23.64 54.84,-41.84 90.06,-55.07 34.98,-13.24 73.75,-19.86 116.3,-19.86 42.31,0 81.32,6.86 117.01,20.57 35.45,13.47 66.19,31.91 91.95,55.07 26,22.94 46.1,49.4 60.28,79.19 14.41,29.78 21.51,60.75 21.51,93.14 0,32.38 -5.91,60.04 -17.96,83.21 -12.06,22.93 -24.83,42.07 -38.77,57.44 -17.02,17.02 -35.93,31.67 -56.73,43.73 26.24,12.29 49.87,28.61 70.67,48.46 17.97,17.02 34.28,39.72 49.18,68.09 14.65,28.37 21.98,62.88 21.98,103.54 0,34.27 -7.33,66.42 -21.98,96.91 -14.89,30.49 -35.7,57.44 -62.88,80.85 -26.96,23.17 -59.57,41.84 -97.87,56.02 -38.29,13.94 -81.55,21.04 -129.53,21.04 -46.1,0 -87.71,-6.62 -124.58,-19.62 -37.11,-13.24 -68.79,-31.67 -95.26,-55.55 -26.48,-23.64 -47.52,-51.53 -63.12,-83.68 -15.36,-32.15 -25.3,-66.67 -29.32,-103.54l134.98 0c7.33,39.71 26.24,73.27 56.49,100.7 30.26,27.42 70.44,41.37 120.8,41.37 56.73,0 100.46,-13.95 131.19,-41.37 30.72,-27.43 46.1,-60.99 46.1,-100.7 0,-39.71 -15.37,-73.28 -46.1,-100.47 -30.73,-27.18 -74.46,-40.89 -131.19,-40.89l-70.68 0 0 -121.03 63.83 0c50.34,0 88.87,-12.29 115.59,-36.88 26.71,-24.35 40.19,-54.6 40.19,-90.53 0,-39.71 -13.48,-72.09 -40.43,-97.15 -27.18,-24.83 -65.48,-37.35 -115.35,-37.35 -46.34,0 -82.74,13 -109.92,38.77 -26.95,26 -42.55,60.04 -46.57,102.59l-134.5 0z"/>
   <path id="15" class="fil1" d="M9027.54 2375.58c23.41,13.48 44.68,30.49 63.59,51.3 16.31,17.96 30.97,40.66 43.97,67.84 13.24,27.19 19.86,60.76 19.86,100.47 0,34.03 -7.1,66.66 -21.28,97.39 -13.94,30.49 -33.8,57.68 -59.57,80.84 -25.53,23.41 -55.54,42.08 -89.82,56.26 -34.51,13.94 -72.09,21.04 -112.75,21.04l-361.44 0 0 -893.3 354.58 0c35.22,0 68.32,6.38 99.52,19.62 30.96,13.23 58.15,31.2 81.32,53.65 22.93,22.7 41.13,48.94 54.36,78.72 13.24,29.78 19.62,61.7 19.62,95.97 0,28.14 -4.96,52.95 -14.89,74.22 -9.92,21.52 -20.33,39.24 -31.43,53.19 -13.47,17.02 -28.61,31.2 -45.63,42.78zm-382.94 -49.87l220.07 0c36.17,0 66.19,-12.05 90.77,-35.93 24.59,-24.11 36.64,-52.23 36.64,-84.39 0,-32.38 -12.29,-60.51 -36.88,-84.63 -24.82,-24.11 -54.84,-35.93 -90.53,-35.93l-220.07 0 0 240.88zm226.93 397.6c20.8,0 40.42,-3.78 58.86,-11.34 18.67,-7.8 34.51,-17.96 47.52,-30.49 13.23,-12.76 23.64,-27.66 31.2,-44.68 7.56,-17.25 11.34,-35.69 11.34,-55.55 0,-19.85 -3.79,-38.29 -11.34,-55.31 -7.57,-17.02 -17.97,-31.91 -31.2,-44.68 -13,-12.76 -28.85,-22.93 -47.52,-30.49 -18.44,-7.56 -38.06,-11.34 -58.86,-11.34l-226.93 0 0 283.9 226.93 0z"/>
   <polygon id="16" class="fil1" points="9857.25,2850.72 9857.25,2212.24 9424.43,2850.72 9311.43,2850.72 9311.43,1957.42 9445.95,1957.42 9445.95,2595.19 9878.77,1957.42 9992.23,1957.42 9992.23,2850.72 "/>
   <polygon id="17" class="fil1" points="10119.63,1957.42 10793.33,1957.42 10793.33,2084.82 10523.38,2084.82 10523.38,2850.72 10388.88,2850.72 10388.88,2084.82 10119.63,2084.82 "/>
   <polygon id="18" class="fil1" points="11466.55,2850.72 11466.55,2212.24 11033.73,2850.72 10920.74,2850.72 10920.74,1957.42 11055.25,1957.42 11055.25,2595.19 11488.07,1957.42 11601.53,1957.42 11601.53,2850.72 "/>
   <path id="19" class="fil1" d="M11898.66 2850.72l-148.92 0 220.08 -368.52c-35.93,-11.34 -68.08,-29.08 -96.21,-52.48 -24.35,-18.91 -46.57,-45.15 -66.19,-78.24 -19.62,-33.33 -29.32,-74.93 -29.32,-124.81 0,-36.88 7.1,-71.86 21.52,-104.72 14.18,-33.1 33.32,-61.7 57.44,-86.05 23.87,-24.12 52.47,-43.26 85.81,-57.44 33.33,-14.18 68.32,-21.04 105.19,-21.04l347.01 0 0 893.3 -134.26 0 0 -354.58 -156.49 0 -205.66 354.58zm362.15 -765.89l-212.75 0c-17.96,0 -34.98,3.79 -51.05,11.35 -16.31,7.56 -30.49,17.72 -42.79,30.49 -12.05,12.76 -21.98,27.66 -29.78,44.67 -7.57,17.02 -11.34,35.46 -11.34,55.32 0,19.85 3.78,38.29 11.34,55.55 7.81,17.01 17.73,31.9 29.78,44.67 12.29,12.53 26.48,22.7 42.79,30.49 16.07,7.57 33.09,11.35 51.05,11.35l212.75 0 0 -283.91z"/>
   <polygon id="20" class="fil1" points="13606.79,1957.42 13606.79,2850.72 13471.81,2850.72 13471.81,2084.82 13053.65,2084.82 13053.65,2850.72 12919.14,2850.72 12919.14,1957.42 "/>
   <path id="21" class="fil1" d="M14145.74 1957.42c38.77,0 75.41,7.33 109.68,22.46 34.51,14.89 64.53,35.21 90.06,60.98 25.77,25.54 46.1,55.55 60.99,90.06 15.12,34.28 22.45,70.91 22.45,109.68 0,38.77 -7.33,75.41 -22.45,110.15 -14.89,34.51 -35.22,64.54 -60.99,90.06 -25.54,25.3 -55.55,45.63 -90.06,60.75 -34.27,15.36 -70.91,22.93 -109.68,22.93l-191.7 0 0 326.21 -134.51 0 0 -893.3 326.21 0zm0 439.68c19.86,0 38.77,-4.02 56.5,-12.05 17.72,-8.05 33.56,-19.39 47.28,-33.57 13.94,-14.42 24.82,-30.96 33.09,-49.87 8.04,-18.91 12.05,-39.24 12.05,-60.99 0,-20.8 -4.02,-40.66 -12.05,-59.57 -8.28,-18.91 -19.15,-35.45 -33.09,-49.4 -13.71,-14.18 -29.56,-25.53 -47.28,-34.03 -17.73,-8.52 -36.64,-12.77 -56.5,-12.77l-191.7 0 0 312.27 191.7 0z"/>
   <path id="22" class="fil1" d="M15244 2403.95c0,-47.99 -8.28,-92.43 -24.83,-133.32 -16.54,-40.9 -38.29,-76.12 -65.24,-105.91 -26.72,-29.78 -57.68,-52.94 -92.66,-69.25 -35.22,-16.31 -71.15,-24.59 -108.03,-24.59 -36.88,0 -72.81,8.28 -107.8,24.59 -34.75,16.31 -65.72,39.47 -92.66,69.25 -27.19,29.78 -48.94,65.01 -65.48,105.67 -16.55,40.66 -25.06,85.1 -25.06,133.56 0,47.99 8.51,92.42 25.06,133.08 16.54,40.66 38.29,75.88 65.48,105.67 26.95,29.78 57.91,52.94 92.66,69.49 34.98,16.54 70.91,25.06 107.8,25.06 36.87,0 72.8,-8.52 108.03,-25.06 34.98,-16.55 65.95,-39.71 92.66,-69.49 26.95,-29.78 48.7,-65.01 65.24,-105.67 16.55,-40.66 24.83,-85.1 24.83,-133.08zm134.5 0c0,64.29 -11.58,123.86 -34.75,178.7 -23.17,55.08 -53.89,103.07 -92.66,144.2 -39,40.9 -83.92,73.04 -135.45,96.21 -51.52,22.93 -105.66,34.51 -162.39,34.51 -56.74,0 -110.87,-11.58 -162.4,-34.51 -51.53,-23.17 -96.68,-55.31 -135.45,-96.21 -38.77,-41.13 -69.73,-89.11 -92.9,-144.2 -22.93,-54.84 -34.51,-114.41 -34.51,-178.7 0,-63.12 11.58,-122.45 34.51,-178 23.17,-55.31 54.13,-103.54 92.9,-144.67 38.77,-41.14 83.92,-73.04 135.45,-96.21 51.52,-23.17 105.66,-34.75 162.4,-34.75 56.73,0 110.86,11.58 162.39,34.75 51.53,23.17 96.45,55.07 135.45,96.21 38.77,41.13 69.49,89.35 92.66,144.67 23.17,55.55 34.75,114.88 34.75,178z"/>
   <polygon id="23" class="fil1" points="16137.54,2723.3 16137.54,2850.72 15534.98,2850.72 15534.98,1957.42 16123.58,1957.42 16123.58,2084.82 15669.49,2084.82 15669.49,2325.7 16087.65,2325.7 16087.65,2453.83 15669.49,2453.83 15669.49,2723.3 "/>
   <polygon id="24" class="fil1" points="16803.9,2850.72 16449.33,2432.32 16449.33,2850.72 16314.82,2850.72 16314.82,1957.42 16449.33,1957.42 16449.33,2368.73 16775.3,1957.42 16938.88,1957.42 16576.73,2397.1 16967.25,2850.72 "/>
   <polygon id="25" class="fil1" points="16974.09,1957.42 17647.79,1957.42 17647.79,2084.82 17377.84,2084.82 17377.84,2850.72 17243.34,2850.72 17243.34,2084.82 16974.09,2084.82 "/>
   <path id="26" class="fil1" d="M18406.12 2403.95c0,-47.99 -8.28,-92.43 -24.83,-133.32 -16.54,-40.9 -38.29,-76.12 -65.24,-105.91 -26.72,-29.78 -57.68,-52.94 -92.66,-69.25 -35.22,-16.31 -71.15,-24.59 -108.03,-24.59 -36.88,0 -72.81,8.28 -107.8,24.59 -34.75,16.31 -65.72,39.47 -92.66,69.25 -27.19,29.78 -48.94,65.01 -65.48,105.67 -16.55,40.66 -25.06,85.1 -25.06,133.56 0,47.99 8.51,92.42 25.06,133.08 16.54,40.66 38.29,75.88 65.48,105.67 26.95,29.78 57.91,52.94 92.66,69.49 34.98,16.54 70.91,25.06 107.8,25.06 36.87,0 72.8,-8.52 108.03,-25.06 34.98,-16.55 65.95,-39.71 92.66,-69.49 26.95,-29.78 48.7,-65.01 65.24,-105.67 16.55,-40.66 24.83,-85.1 24.83,-133.08zm134.5 0c0,64.29 -11.58,123.86 -34.75,178.7 -23.17,55.08 -53.89,103.07 -92.66,144.2 -39,40.9 -83.92,73.04 -135.45,96.21 -51.52,22.93 -105.66,34.51 -162.39,34.51 -56.74,0 -110.87,-11.58 -162.4,-34.51 -51.53,-23.17 -96.68,-55.31 -135.45,-96.21 -38.77,-41.13 -69.73,-89.11 -92.9,-144.2 -22.93,-54.84 -34.51,-114.41 -34.51,-178.7 0,-63.12 11.58,-122.45 34.51,-178 23.17,-55.31 54.13,-103.54 92.9,-144.67 38.77,-41.14 83.92,-73.04 135.45,-96.21 51.52,-23.17 105.66,-34.75 162.4,-34.75 56.73,0 110.86,11.58 162.39,34.75 51.53,23.17 96.45,55.07 135.45,96.21 38.77,41.13 69.49,89.35 92.66,144.67 23.17,55.55 34.75,114.88 34.75,178z"/>
   <path id="27" class="fil1" d="M19214.55 2375.58c23.41,13.48 44.68,30.49 63.59,51.3 16.31,17.96 30.97,40.66 43.97,67.84 13.24,27.19 19.86,60.76 19.86,100.47 0,34.03 -7.1,66.66 -21.28,97.39 -13.94,30.49 -33.8,57.68 -59.57,80.84 -25.53,23.41 -55.54,42.08 -89.82,56.26 -34.51,13.94 -72.09,21.04 -112.75,21.04l-361.44 0 0 -893.3 354.58 0c35.22,0 68.32,6.38 99.52,19.62 30.96,13.23 58.15,31.2 81.32,53.65 22.93,22.7 41.13,48.94 54.36,78.72 13.24,29.78 19.62,61.7 19.62,95.97 0,28.14 -4.96,52.95 -14.89,74.22 -9.92,21.52 -20.33,39.24 -31.43,53.19 -13.47,17.02 -28.61,31.2 -45.63,42.78zm-382.94 -49.87l220.07 0c36.17,0 66.19,-12.05 90.77,-35.93 24.59,-24.11 36.64,-52.23 36.64,-84.39 0,-32.38 -12.29,-60.51 -36.88,-84.63 -24.82,-24.11 -54.84,-35.93 -90.53,-35.93l-220.07 0 0 240.88zm226.93 397.6c20.8,0 40.42,-3.78 58.86,-11.34 18.67,-7.8 34.51,-17.96 47.52,-30.49 13.23,-12.76 23.64,-27.66 31.2,-44.68 7.56,-17.25 11.34,-35.69 11.34,-55.55 0,-19.85 -3.79,-38.29 -11.34,-55.31 -7.57,-17.02 -17.97,-31.91 -31.2,-44.68 -13,-12.76 -28.85,-22.93 -47.52,-30.49 -18.44,-7.56 -38.06,-11.34 -58.86,-11.34l-226.93 0 0 283.9 226.93 0z"/>
   <path id="28" class="fil1" d="M6326.61 4269.03l-142.07 0 340.63 -893.3 112.99 0 340.64 893.3 -141.84 0 -78.24 -205.66 -354.58 0 -77.53 205.66zm382.95 -333.07l-128.13 -354.57 -127.41 354.57 255.53 0z"/>
   <path id="29" class="fil1" d="M7133.87 3822.26c0,47.99 8.51,92.42 25.06,133.08 16.54,40.66 38.29,75.88 65.48,105.67 26.95,29.78 57.91,52.94 92.66,69.49 34.98,16.54 70.91,25.06 107.8,25.06 34.03,0 65,-4.97 92.42,-14.89 27.42,-9.93 51.53,-23.88 72.33,-41.37 20.8,-17.49 38.06,-37.82 51.53,-60.99 13.7,-22.93 24.11,-47.75 31.67,-73.98l141.83 0c-10.63,42.55 -27.19,82.73 -49.87,120.55 -22.46,37.82 -50.58,70.91 -84.16,99.28 -33.32,28.38 -71.62,50.82 -114.64,67.14 -42.79,16.55 -89.82,24.59 -141.12,24.59 -56.74,0 -110.87,-11.58 -162.4,-34.51 -51.53,-23.17 -96.68,-55.31 -135.45,-96.21 -38.77,-41.13 -69.73,-89.11 -92.9,-144.2 -22.93,-54.84 -34.51,-114.41 -34.51,-178.7 0,-63.12 11.58,-122.45 34.51,-178 23.17,-55.31 54.13,-103.54 92.9,-144.67 38.77,-41.14 83.92,-73.04 135.45,-96.21 51.52,-23.17 105.66,-34.75 162.4,-34.75 48.93,0 94.78,8.28 137.33,24.59 42.79,16.54 80.38,38.77 112.99,67.37 32.62,28.37 60.28,61.46 82.98,99.28 22.93,37.83 39.47,78.01 49.63,120.56l-142.07 0c-7.33,-26.48 -17.96,-51.29 -31.67,-74.46 -13.94,-23.4 -30.96,-43.73 -51.29,-60.98 -20.33,-17.26 -43.73,-30.97 -69.97,-40.9 -26.24,-9.92 -55.54,-14.89 -87.93,-14.89 -36.88,0 -72.81,8.28 -107.8,24.59 -34.75,16.31 -65.72,39.47 -92.66,69.25 -27.19,29.78 -48.94,65.01 -65.48,105.91 -16.55,40.89 -25.06,85.34 -25.06,133.32z"/>
   <path id="30" class="fil1" d="M8027.16 3822.26c0,47.99 8.51,92.42 25.06,133.08 16.54,40.66 38.29,75.88 65.48,105.67 26.95,29.78 57.91,52.94 92.66,69.49 34.98,16.54 70.91,25.06 107.8,25.06 34.03,0 65,-4.97 92.42,-14.89 27.42,-9.93 51.53,-23.88 72.33,-41.37 20.8,-17.49 38.06,-37.82 51.53,-60.99 13.7,-22.93 24.11,-47.75 31.67,-73.98l141.83 0c-10.63,42.55 -27.19,82.73 -49.87,120.55 -22.46,37.82 -50.58,70.91 -84.16,99.28 -33.32,28.38 -71.62,50.82 -114.64,67.14 -42.79,16.55 -89.82,24.59 -141.12,24.59 -56.74,0 -110.87,-11.58 -162.4,-34.51 -51.53,-23.17 -96.68,-55.31 -135.45,-96.21 -38.77,-41.13 -69.73,-89.11 -92.9,-144.2 -22.93,-54.84 -34.51,-114.41 -34.51,-178.7 0,-63.12 11.58,-122.45 34.51,-178 23.17,-55.31 54.13,-103.54 92.9,-144.67 38.77,-41.14 83.92,-73.04 135.45,-96.21 51.52,-23.17 105.66,-34.75 162.4,-34.75 48.93,0 94.78,8.28 137.33,24.59 42.79,16.54 80.38,38.77 112.99,67.37 32.62,28.37 60.28,61.46 82.98,99.28 22.93,37.83 39.47,78.01 49.63,120.56l-142.07 0c-7.33,-26.48 -17.96,-51.29 -31.67,-74.46 -13.94,-23.4 -30.96,-43.73 -51.29,-60.98 -20.33,-17.26 -43.73,-30.97 -69.97,-40.9 -26.24,-9.92 -55.54,-14.89 -87.93,-14.89 -36.88,0 -72.81,8.28 -107.8,24.59 -34.75,16.31 -65.72,39.47 -92.66,69.25 -27.19,29.78 -48.94,65.01 -65.48,105.91 -16.55,40.89 -25.06,85.34 -25.06,133.32z"/>
   <path id="31" class="fil1" d="M9502.21 3822.26c0,-47.99 -8.28,-92.43 -24.83,-133.32 -16.54,-40.9 -38.29,-76.12 -65.24,-105.91 -26.72,-29.78 -57.68,-52.94 -92.66,-69.25 -35.22,-16.31 -71.15,-24.59 -108.03,-24.59 -36.88,0 -72.81,8.28 -107.8,24.59 -34.75,16.31 -65.72,39.47 -92.66,69.25 -27.19,29.78 -48.94,65.01 -65.48,105.67 -16.55,40.66 -25.06,85.1 -25.06,133.56 0,47.99 8.51,92.42 25.06,133.08 16.54,40.66 38.29,75.88 65.48,105.67 26.95,29.78 57.91,52.94 92.66,69.49 34.98,16.54 70.91,25.06 107.8,25.06 36.87,0 72.8,-8.52 108.03,-25.06 34.98,-16.55 65.95,-39.71 92.66,-69.49 26.95,-29.78 48.7,-65.01 65.24,-105.67 16.55,-40.66 24.83,-85.1 24.83,-133.08zm134.5 0c0,64.29 -11.58,123.86 -34.75,178.7 -23.17,55.08 -53.89,103.07 -92.66,144.2 -39,40.9 -83.92,73.04 -135.45,96.21 -51.52,22.93 -105.66,34.51 -162.39,34.51 -56.74,0 -110.87,-11.58 -162.4,-34.51 -51.53,-23.17 -96.68,-55.31 -135.45,-96.21 -38.77,-41.13 -69.73,-89.11 -92.9,-144.2 -22.93,-54.84 -34.51,-114.41 -34.51,-178.7 0,-63.12 11.58,-122.45 34.51,-178 23.17,-55.31 54.13,-103.54 92.9,-144.67 38.77,-41.14 83.92,-73.04 135.45,-96.21 51.52,-23.17 105.66,-34.75 162.4,-34.75 56.73,0 110.86,11.58 162.39,34.75 51.53,23.17 96.45,55.07 135.45,96.21 38.77,41.13 69.49,89.35 92.66,144.67 23.17,55.55 34.75,114.88 34.75,178z"/>
   <polygon id="32" class="fil1" points="10551.52,4141.61 10551.52,4446.32 10424.11,4446.32 10424.11,4269.03 9793.19,4269.03 9793.19,3375.73 9927.7,3375.73 9927.7,4141.61 10317.49,4141.61 10317.49,3375.73 10452.48,3375.73 10452.48,4141.61 "/>
   <polygon id="33" class="fil1" points="11232.3,4269.03 11232.3,3630.55 10799.48,4269.03 10686.49,4269.03 10686.49,3375.73 10821,3375.73 10821,4013.5 11253.82,3375.73 11367.28,3375.73 11367.28,4269.03 "/>
   <path id="34" class="fil1" d="M11615.25 4269.03l-142.07 0 340.63 -893.3 112.99 0 340.64 893.3 -141.84 0 -78.24 -205.66 -354.58 0 -77.53 205.66zm382.95 -333.07l-128.13 -354.57 -127.41 354.57 255.53 0z"/>
   <polygon id="35" class="fil1" points="13131.66,4141.61 13131.66,4446.32 13004.25,4446.32 13004.25,4269.03 12373.33,4269.03 12373.33,3375.73 12507.84,3375.73 12507.84,4141.61 12897.64,4141.61 12897.64,3375.73 13032.62,3375.73 13032.62,4141.61 "/>
   <polygon id="36" class="fil1" points="13812.44,4269.03 13812.44,3630.55 13379.62,4269.03 13266.63,4269.03 13266.63,3375.73 13401.14,3375.73 13401.14,4013.5 13833.96,3375.73 13947.42,3375.73 13947.42,4269.03 "/>
   <polygon id="37" class="fil1" points="14705.74,4269.03 14705.74,3630.55 14272.92,4269.03 14159.93,4269.03 14159.93,3375.73 14294.44,3375.73 14294.44,4013.5 14727.26,3375.73 14840.72,3375.73 14840.72,4269.03 "/>
   <path id="38" class="fil1" d="M16045.57 3375.73l0 893.3 -134.98 0 0 -765.89 -311.79 0 -35.93 496.41c-6.38,89.12 -32.38,157.44 -78,205.19 -45.39,47.52 -102.12,71.15 -169.96,71.15 -8.28,0 -16.07,-0.24 -23.17,-0.71 -7.09,-0.47 -12.99,-1.18 -17.72,-1.89 -5.44,-0.95 -10.64,-2.37 -15.84,-4.26l0 -113.46 13.94 0c42.32,0 78.25,-14.66 107.33,-43.5 29.08,-28.84 45.39,-66.19 49.17,-112.52l49.17 -623.81 567.8 0z"/>
   <polygon id="39" class="fil1" points="16803.89,4269.03 16803.89,3630.55 16371.07,4269.03 16258.07,4269.03 16258.07,3375.73 16392.59,3375.73 16392.59,4013.5 16825.41,3375.73 16938.87,3375.73 16938.87,4269.03 "/>
   <polygon id="40" class="fil1" points="17909.7,4141.61 17909.7,4446.32 17782.29,4446.32 17782.29,4269.03 17151.37,4269.03 17151.37,3375.73 17285.88,3375.73 17285.88,4141.61 17675.68,4141.61 17675.68,3375.73 17810.66,3375.73 17810.66,4141.61 "/>
   <polygon id="41" class="fil1" points="18647.22,4141.61 18647.22,4269.03 18044.67,4269.03 18044.67,3375.73 18633.27,3375.73 18633.27,3503.14 18179.18,3503.14 18179.18,3744.01 18597.34,3744.01 18597.34,3872.14 18179.18,3872.14 18179.18,4141.61 "/>
   <polygon id="42" class="fil1" points="19370.32,4269.03 19370.32,3630.55 18937.5,4269.03 18824.5,4269.03 18824.5,3375.73 18959.02,3375.73 18959.02,4013.5 19391.84,3375.73 19505.3,3375.73 19505.3,4269.03 "/>
   <path id="43" class="fil1" d="M19795.34 3822.26c0,47.99 8.51,92.42 25.06,133.08 16.54,40.66 38.29,75.88 65.48,105.67 26.95,29.78 57.91,52.94 92.66,69.49 34.98,16.54 70.91,25.06 107.8,25.06 34.03,0 65,-4.97 92.42,-14.89 27.42,-9.93 51.53,-23.88 72.33,-41.37 20.8,-17.49 38.06,-37.82 51.53,-60.99 13.7,-22.93 24.11,-47.75 31.67,-73.98l141.83 0c-10.63,42.55 -27.19,82.73 -49.87,120.55 -22.46,37.82 -50.58,70.91 -84.16,99.28 -33.32,28.38 -71.62,50.82 -114.64,67.14 -42.79,16.55 -89.82,24.59 -141.12,24.59 -56.74,0 -110.87,-11.58 -162.4,-34.51 -51.53,-23.17 -96.68,-55.31 -135.45,-96.21 -38.77,-41.13 -69.73,-89.11 -92.9,-144.2 -22.93,-54.84 -34.51,-114.41 -34.51,-178.7 0,-63.12 11.58,-122.45 34.51,-178 23.17,-55.31 54.13,-103.54 92.9,-144.67 38.77,-41.14 83.92,-73.04 135.45,-96.21 51.52,-23.17 105.66,-34.75 162.4,-34.75 48.93,0 94.78,8.28 137.33,24.59 42.79,16.54 80.38,38.77 112.99,67.37 32.62,28.37 60.28,61.46 82.98,99.28 22.93,37.83 39.47,78.01 49.63,120.56l-142.07 0c-7.33,-26.48 -17.96,-51.29 -31.67,-74.46 -13.94,-23.4 -30.96,-43.73 -51.29,-60.98 -20.33,-17.26 -43.73,-30.97 -69.97,-40.9 -26.24,-9.92 -55.54,-14.89 -87.93,-14.89 -36.88,0 -72.81,8.28 -107.8,24.59 -34.75,16.31 -65.72,39.47 -92.66,69.25 -27.19,29.78 -48.94,65.01 -65.48,105.91 -16.55,40.89 -25.06,85.34 -25.06,133.32z"/>
   <polygon id="44" class="fil1" points="20539.96,3375.73 21213.65,3375.73 21213.65,3503.14 20943.7,3503.14 20943.7,4269.03 20809.2,4269.03 20809.2,3503.14 20539.96,3503.14 "/>
   <path id="45" class="fil1" d="M21971.98 3822.26c0,-47.99 -8.28,-92.43 -24.83,-133.32 -16.54,-40.9 -38.29,-76.12 -65.24,-105.91 -26.72,-29.78 -57.68,-52.94 -92.66,-69.25 -35.22,-16.31 -71.15,-24.59 -108.03,-24.59 -36.88,0 -72.81,8.28 -107.8,24.59 -34.75,16.31 -65.72,39.47 -92.66,69.25 -27.19,29.78 -48.94,65.01 -65.48,105.67 -16.55,40.66 -25.06,85.1 -25.06,133.56 0,47.99 8.51,92.42 25.06,133.08 16.54,40.66 38.29,75.88 65.48,105.67 26.95,29.78 57.91,52.94 92.66,69.49 34.98,16.54 70.91,25.06 107.8,25.06 36.87,0 72.8,-8.52 108.03,-25.06 34.98,-16.55 65.95,-39.71 92.66,-69.49 26.95,-29.78 48.7,-65.01 65.24,-105.67 16.55,-40.66 24.83,-85.1 24.83,-133.08zm134.5 0c0,64.29 -11.58,123.86 -34.75,178.7 -23.17,55.08 -53.89,103.07 -92.66,144.2 -39,40.9 -83.92,73.04 -135.45,96.21 -51.52,22.93 -105.66,34.51 -162.39,34.51 -56.74,0 -110.87,-11.58 -162.4,-34.51 -51.53,-23.17 -96.68,-55.31 -135.45,-96.21 -38.77,-41.13 -69.73,-89.11 -92.9,-144.2 -22.93,-54.84 -34.51,-114.41 -34.51,-178.7 0,-63.12 11.58,-122.45 34.51,-178 23.17,-55.31 54.13,-103.54 92.9,-144.67 38.77,-41.14 83.92,-73.04 135.45,-96.21 51.52,-23.17 105.66,-34.75 162.4,-34.75 56.73,0 110.86,11.58 162.39,34.75 51.53,23.17 96.45,55.07 135.45,96.21 38.77,41.13 69.49,89.35 92.66,144.67 23.17,55.55 34.75,114.88 34.75,178z"/>
   <path id="46" class="fil1" d="M22780.41 3793.89c23.41,13.48 44.68,30.49 63.59,51.3 16.31,17.96 30.97,40.66 43.97,67.84 13.24,27.19 19.86,60.76 19.86,100.47 0,34.03 -7.1,66.66 -21.28,97.39 -13.94,30.49 -33.8,57.68 -59.57,80.84 -25.53,23.41 -55.54,42.08 -89.82,56.26 -34.51,13.94 -72.09,21.04 -112.75,21.04l-361.44 0 0 -893.3 354.58 0c35.22,0 68.32,6.38 99.52,19.62 30.96,13.23 58.15,31.2 81.32,53.65 22.93,22.7 41.13,48.94 54.36,78.72 13.24,29.78 19.62,61.7 19.62,95.97 0,28.14 -4.96,52.95 -14.89,74.22 -9.92,21.52 -20.33,39.24 -31.43,53.19 -13.47,17.02 -28.61,31.2 -45.63,42.78zm-382.94 -49.87l220.07 0c36.17,0 66.19,-12.05 90.77,-35.93 24.59,-24.11 36.64,-52.23 36.64,-84.39 0,-32.38 -12.29,-60.51 -36.88,-84.63 -24.82,-24.11 -54.84,-35.93 -90.53,-35.93l-220.07 0 0 240.88zm226.93 397.6c20.8,0 40.42,-3.78 58.86,-11.34 18.67,-7.8 34.51,-17.96 47.52,-30.49 13.23,-12.76 23.64,-27.66 31.2,-44.68 7.56,-17.25 11.34,-35.69 11.34,-55.55 0,-19.85 -3.79,-38.29 -11.34,-55.31 -7.57,-17.02 -17.97,-31.91 -31.2,-44.68 -13,-12.76 -28.85,-22.93 -47.52,-30.49 -18.44,-7.56 -38.06,-11.34 -58.86,-11.34l-226.93 0 0 283.9 226.93 0z"/>
   <g>
    <path class="fil2" d="M2647.27 0c1218.14,0 2205.64,987.5 2205.64,2205.64 0,860.74 -493.1,1606.23 -1212.18,1969.64l-146.97 0c251.53,-108.26 478.23,-263.24 669.06,-454.08 387.86,-387.85 627.77,-923.7 627.77,-1515.56 0,-591.86 -239.91,-1127.71 -627.77,-1515.57 -387.85,-387.85 -923.7,-627.76 -1515.56,-627.76 -591.86,0 -1127.71,239.91 -1515.57,627.76 -387.85,387.86 -627.76,923.71 -627.76,1515.57 0,591.86 239.91,1127.71 627.76,1515.56 190.84,190.84 417.53,345.82 669.07,454.08l-146.97 0c-719.08,-363.42 -1212.18,-1108.9 -1212.18,-1969.64 0,-1218.14 987.5,-2205.64 2205.64,-2205.64z"/>
    <path class="fil3" d="M2205.64 399.23c1218.14,0 2205.64,987.5 2205.64,2205.64 0,614.63 -251.48,1170.45 -657.07,1570.41l-89.92 0c19.3,-17.93 38.28,-36.22 56.91,-54.85 387.86,-387.85 627.77,-923.7 627.77,-1515.56 0,-591.86 -239.91,-1127.71 -627.77,-1515.57 -387.85,-387.85 -923.7,-627.76 -1515.56,-627.76 -591.86,0 -1127.71,239.91 -1515.57,627.76 -387.85,387.86 -627.76,923.71 -627.76,1515.57 0,591.86 239.91,1127.71 627.76,1515.56 18.63,18.63 37.61,36.92 56.91,54.85l-79.44 0 0 10.22c-411.71,-400.7 -667.54,-960.74 -667.54,-1580.64 0,-1218.14 987.5,-2205.64 2205.64,-2205.64z"/>
    <path class="fil4" d="M1349.35 1213.07c861.35,-861.36 2257.9,-861.36 3119.25,0 861.36,861.35 861.36,2257.89 0,3119.25 -7.08,7.08 -14.27,13.93 -21.42,20.89l0 -87.96c403.41,-415.51 605.13,-954.04 605.13,-1492.56 0,-548.51 -209.26,-1097.05 -627.76,-1515.55 -418.53,-418.53 -967.06,-627.78 -1515.57,-627.78 -548.52,0 -1097.05,209.25 -1515.55,627.75 -418.53,418.52 -627.78,967.06 -627.78,1515.58 0,500.45 174.22,1000.89 522.59,1402.6l-81.52 0c-715.64,-866.47 -668.16,-2151.42 142.64,-2962.22z"/>
   </g>
   <path class="fil5" d="M698.79 4175.28l3748.3 0 0 803.05 -3779.45 0c-0.13,-267.68 -0.13,-535.37 0,-803.05l31.14 0zm3685.99 39.89l-3654.84 0 0 723.27 3654.84 0 0 -723.27z"/>
   <polygon class="fil1" points="1583.71,4461.75 1583.71,4691.92 1548.93,4691.92 1548.93,4549.34 1483.27,4691.92 1461.34,4691.92 1395.5,4549.34 1395.5,4691.92 1360.84,4691.92 1360.84,4461.75 1389.96,4461.75 1472.18,4638.93 1554.47,4461.75 "/>
   <polygon id="1" class="fil1" points="1779.16,4691.92 1779.16,4527.42 1667.64,4691.92 1638.52,4691.92 1638.52,4461.75 1673.18,4461.75 1673.18,4626.09 1784.71,4461.75 1813.94,4461.75 1813.94,4691.92 "/>
   <polygon id="2" class="fil1" points="2044.11,4461.75 2044.11,4691.92 2009.33,4691.92 2009.33,4591.48 1903.36,4591.48 1903.36,4691.92 1868.69,4691.92 1868.69,4461.75 1903.36,4461.75 1903.36,4558.47 2009.33,4558.47 2009.33,4461.75 "/>
   <polygon id="3" class="fil1" points="2276.05,4461.75 2276.05,4691.92 2241.27,4691.92 2241.27,4494.58 2133.53,4494.58 2133.53,4691.92 2098.87,4691.92 2098.87,4461.75 "/>
   <path id="4" class="fil1" d="M2414.92 4461.75c9.98,0 19.43,1.89 28.26,5.79 8.9,3.84 16.63,9.08 23.21,15.72 6.64,6.58 11.87,14.31 15.71,23.2 3.9,8.84 5.79,18.27 5.79,28.27 0,9.98 -1.89,19.43 -5.79,28.39 -3.84,8.89 -9.08,16.62 -15.71,23.2 -6.58,6.52 -14.31,11.75 -23.21,15.65 -8.83,3.97 -18.27,5.92 -28.26,5.92l-49.39 0 0 84.05 -34.66 0 0 -230.17 84.06 0zm0 113.29c5.12,0 9.98,-1.04 14.55,-3.11 4.57,-2.07 8.66,-5 12.18,-8.65 3.6,-3.72 6.4,-7.98 8.53,-12.85 2.07,-4.87 3.11,-10.11 3.11,-15.71 0,-5.36 -1.04,-10.47 -3.11,-15.35 -2.13,-4.87 -4.93,-9.14 -8.53,-12.72 -3.53,-3.66 -7.62,-6.59 -12.18,-8.78 -4.57,-2.19 -9.44,-3.29 -14.55,-3.29l-49.39 0 0 80.46 49.39 0z"/>
   <path id="5" class="fil1" d="M2697.89 4576.81c0,-12.36 -2.13,-23.82 -6.4,-34.35 -4.26,-10.54 -9.87,-19.61 -16.81,-27.29 -6.88,-7.68 -14.86,-13.64 -23.88,-17.85 -9.07,-4.2 -18.33,-6.34 -27.83,-6.34 -9.51,0 -18.76,2.14 -27.78,6.34 -8.96,4.21 -16.93,10.17 -23.88,17.85 -7.01,7.68 -12.6,16.74 -16.87,27.23 -4.27,10.47 -6.46,21.92 -6.46,34.41 0,12.36 2.19,23.81 6.46,34.28 4.27,10.48 9.87,19.56 16.87,27.23 6.95,7.68 14.92,13.64 23.88,17.91 9.02,4.27 18.27,6.46 27.78,6.46 9.5,0 18.76,-2.19 27.83,-6.46 9.02,-4.27 17,-10.23 23.88,-17.91 6.95,-7.67 12.55,-16.74 16.81,-27.23 4.27,-10.47 6.4,-21.92 6.4,-34.28zm34.65 0c0,16.56 -2.98,31.91 -8.95,46.05 -5.98,14.18 -13.89,26.56 -23.88,37.15 -10.05,10.53 -21.62,18.82 -34.9,24.79 -13.27,5.91 -27.23,8.9 -41.84,8.9 -14.62,0 -28.57,-2.99 -41.85,-8.9 -13.27,-5.97 -24.91,-14.25 -34.9,-24.79 -9.98,-10.59 -17.96,-22.97 -23.94,-37.15 -5.91,-14.13 -8.89,-29.49 -8.89,-46.05 0,-16.26 2.98,-31.55 8.89,-45.87 5.98,-14.25 13.95,-26.68 23.94,-37.27 9.99,-10.6 21.63,-18.82 34.9,-24.8 13.28,-5.97 27.23,-8.95 41.85,-8.95 14.61,0 28.57,2.98 41.84,8.95 13.28,5.98 24.85,14.19 34.9,24.8 9.98,10.59 17.9,23.02 23.88,37.27 5.97,14.31 8.95,29.61 8.95,45.87z"/>
   <polygon id="6" class="fil1" points="2928.13,4659.09 2928.13,4691.92 2772.87,4691.92 2772.87,4461.75 2924.53,4461.75 2924.53,4494.58 2807.53,4494.58 2807.53,4556.65 2915.27,4556.65 2915.27,4589.66 2807.53,4589.66 2807.53,4659.09 "/>
   <polygon id="7" class="fil1" points="3099.82,4691.92 3008.47,4584.12 3008.47,4691.92 2973.8,4691.92 2973.8,4461.75 3008.47,4461.75 3008.47,4567.74 3092.45,4461.75 3134.6,4461.75 3041.29,4575.04 3141.91,4691.92 "/>
   <polygon id="8" class="fil1" points="3143.68,4461.75 3317.26,4461.75 3317.26,4494.58 3247.7,4494.58 3247.7,4691.92 3213.04,4691.92 3213.04,4494.58 3143.68,4494.58 "/>
   <path id="9" class="fil1" d="M3512.65 4576.81c0,-12.36 -2.13,-23.82 -6.4,-34.35 -4.26,-10.54 -9.87,-19.61 -16.81,-27.29 -6.88,-7.68 -14.86,-13.64 -23.88,-17.85 -9.07,-4.2 -18.33,-6.34 -27.83,-6.34 -9.51,0 -18.76,2.14 -27.78,6.34 -8.96,4.21 -16.93,10.17 -23.88,17.85 -7.01,7.68 -12.6,16.74 -16.87,27.23 -4.27,10.47 -6.46,21.92 -6.46,34.41 0,12.36 2.19,23.81 6.46,34.28 4.27,10.48 9.87,19.56 16.87,27.23 6.95,7.68 14.92,13.64 23.88,17.91 9.02,4.27 18.27,6.46 27.78,6.46 9.5,0 18.76,-2.19 27.83,-6.46 9.02,-4.27 17,-10.23 23.88,-17.91 6.95,-7.67 12.55,-16.74 16.81,-27.23 4.27,-10.47 6.4,-21.92 6.4,-34.28zm34.65 0c0,16.56 -2.98,31.91 -8.95,46.05 -5.98,14.18 -13.89,26.56 -23.88,37.15 -10.05,10.53 -21.62,18.82 -34.9,24.79 -13.27,5.91 -27.23,8.9 -41.84,8.9 -14.62,0 -28.57,-2.99 -41.85,-8.9 -13.27,-5.97 -24.91,-14.25 -34.9,-24.79 -9.98,-10.59 -17.96,-22.97 -23.94,-37.15 -5.91,-14.13 -8.89,-29.49 -8.89,-46.05 0,-16.26 2.98,-31.55 8.89,-45.87 5.98,-14.25 13.95,-26.68 23.94,-37.27 9.99,-10.6 21.63,-18.82 34.9,-24.8 13.28,-5.97 27.23,-8.95 41.85,-8.95 14.61,0 28.57,2.98 41.84,8.95 13.28,5.98 24.85,14.19 34.9,24.8 9.98,10.59 17.9,23.02 23.88,37.27 5.97,14.31 8.95,29.61 8.95,45.87z"/>
   <path id="10" class="fil1" d="M3720.96 4569.5c6.03,3.48 11.5,7.86 16.38,13.22 4.2,4.63 7.98,10.47 11.32,17.48 3.42,7 5.12,15.65 5.12,25.89 0,8.77 -1.83,17.17 -5.48,25.09 -3.6,7.86 -8.72,14.86 -15.35,20.83 -6.58,6.04 -14.31,10.84 -23.14,14.5 -8.9,3.59 -18.58,5.42 -29.06,5.42l-93.13 0 0 -230.17 91.36 0c9.08,0 17.6,1.65 25.65,5.06 7.98,3.41 14.98,8.05 20.95,13.82 5.91,5.86 10.59,12.61 14,20.29 3.42,7.68 5.06,15.89 5.06,24.73 0,7.25 -1.28,13.64 -3.84,19.12 -2.56,5.55 -5.24,10.11 -8.1,13.7 -3.48,4.39 -7.38,8.05 -11.75,11.02zm-98.67 -12.84l56.7 0c9.32,0 17.05,-3.11 23.39,-9.27 6.34,-6.21 9.45,-13.45 9.45,-21.74 0,-8.35 -3.17,-15.59 -9.51,-21.81 -6.4,-6.21 -14.13,-9.26 -23.33,-9.26l-56.7 0 0 62.07zm58.47 102.44c5.36,0 10.41,-0.97 15.16,-2.92 4.82,-2.01 8.9,-4.63 12.24,-7.86 3.41,-3.29 6.09,-7.13 8.04,-11.51 1.95,-4.45 2.93,-9.2 2.93,-14.31 0,-5.12 -0.98,-9.87 -2.93,-14.25 -1.95,-4.39 -4.63,-8.23 -8.04,-11.51 -3.35,-3.29 -7.43,-5.91 -12.24,-7.86 -4.75,-1.95 -9.81,-2.92 -15.16,-2.92l-58.47 0 0 73.14 58.47 0z"/>
  </g>
 </g>
</svg>
