<?xml version="1.0" encoding="UTF-8"?>
<!DOCTYPE svg PUBLIC "-//W3C//DTD SVG 1.1//EN" "http://www.w3.org/Graphics/SVG/1.1/DTD/svg11.dtd">
<!-- Creator: CorelDRAW 2019 (64-Bit) -->
<svg xmlns="http://www.w3.org/2000/svg" xml:space="preserve" width="51.1721mm" height="49.8086mm" version="1.1" style="shape-rendering:geometricPrecision; text-rendering:geometricPrecision; image-rendering:optimizeQuality; fill-rule:evenodd; clip-rule:evenodd"
viewBox="0 0 1141.94 1111.51"
 xmlns:xlink="http://www.w3.org/1999/xlink">
 <defs>
  <style type="text/css">
   <![CDATA[
    .fil3 {fill:#34B36E}
    .fil1 {fill:#A13941}
    .fil2 {fill:#FFD31A}
    .fil5 {fill:#3F3D41;fill-rule:nonzero}
    .fil0 {fill:#4871B3;fill-rule:nonzero}
    .fil4 {fill:url(#id0);fill-rule:nonzero}
   ]]>
  </style>
  <linearGradient id="id0" gradientUnits="userSpaceOnUse" x1="149.04" y1="1021.86" x2="992.9" y2="1021.86">
   <stop offset="0" style="stop-opacity:1; stop-color:#4871B3"/>
   <stop offset="1" style="stop-opacity:1; stop-color:#34B36E"/>
  </linearGradient>
 </defs>
 <g id="Слой_x0020_1">
  <metadata id="CorelCorpID_0Corel-Layer"/>
  <g id="_2468990338464">
   <path class="fil0" d="M330.1 749.06l-76.71 0 144.21 -386.61 67.51 0 105.86 283.79 105.86 -283.79 67.51 0 144.21 386.61 -76.71 0c-67.03,-193.62 -19.85,-57.77 -101.26,-288.43l-101.26 288.43 -76.71 0 -0.01 0 -27.62 -79.78 -147.28 0 -27.62 79.78zm150.35 -147.28l-49.09 -141.14 -49.09 141.14 98.18 0z"/>
   <g>
    <path class="fil1" d="M591.05 0c271.97,0 492.45,220.48 492.45,492.45 0,192.18 -110.09,358.62 -270.64,439.76l-32.81 0c56.16,-24.17 106.77,-58.77 149.38,-101.38 86.6,-86.6 140.16,-206.23 140.16,-338.38 0,-132.14 -53.56,-251.78 -140.16,-338.38 -86.6,-86.6 -206.23,-140.16 -338.38,-140.16 -132.14,0 -251.78,53.56 -338.38,140.16 -86.6,86.6 -140.16,206.24 -140.16,338.38 0,132.14 53.56,251.78 140.16,338.38 42.61,42.61 93.22,77.21 149.38,101.38l-32.81 0c-160.55,-81.14 -270.64,-247.58 -270.64,-439.76 0,-271.97 220.48,-492.45 492.45,-492.45z"/>
    <path class="fil2" d="M492.45 89.14c271.97,0 492.45,220.48 492.45,492.45 0,137.23 -56.15,261.33 -146.7,350.63l-20.08 0c4.31,-4 8.55,-8.09 12.71,-12.25 86.6,-86.6 140.16,-206.23 140.16,-338.38 0,-132.14 -53.56,-251.78 -140.16,-338.38 -86.6,-86.6 -206.23,-140.16 -338.38,-140.16 -132.14,0 -251.78,53.56 -338.38,140.16 -86.6,86.6 -140.16,206.24 -140.16,338.38 0,132.14 53.56,251.78 140.16,338.38 4.16,4.16 8.4,8.24 12.71,12.25l-17.74 0 0 2.28c-91.92,-89.46 -149.04,-214.5 -149.04,-352.91 0,-271.97 220.48,-492.45 492.45,-492.45z"/>
    <path class="fil3" d="M301.27 270.84c192.31,-192.32 504.12,-192.32 696.43,0 192.32,192.31 192.32,504.12 0,696.43 -1.58,1.58 -3.19,3.11 -4.78,4.66l0 -19.64c90.07,-92.77 135.11,-213.01 135.11,-333.24 0,-122.47 -46.72,-244.94 -140.16,-338.38 -93.44,-93.44 -215.92,-140.16 -338.38,-140.16 -122.47,0 -244.94,46.72 -338.38,140.16 -93.44,93.44 -140.16,215.92 -140.16,338.38 0,111.73 38.9,223.47 116.68,313.16l-18.2 0c-159.78,-193.46 -149.18,-480.35 31.85,-661.37z"/>
   </g>
   <path class="fil4" d="M156.02 932.21l836.88 0 0 179.3 -843.83 0c-0.03,-59.77 -0.03,-119.53 0,-179.3l6.95 0zm822.97 8.91l-816.01 0 0 161.48 816.01 0 0 -161.48z"/>
   <polygon class="fil5" points="353.59,996.17 353.59,1047.56 345.83,1047.56 345.83,1015.73 331.17,1047.56 326.27,1047.56 311.57,1015.73 311.57,1047.56 303.83,1047.56 303.83,996.17 310.33,996.17 328.69,1035.73 347.07,996.17 "/>
   <polygon id="1" class="fil5" points="397.23,1047.56 397.23,1010.83 372.33,1047.56 365.83,1047.56 365.83,996.17 373.57,996.17 373.57,1032.86 398.47,996.17 405,996.17 405,1047.56 "/>
   <polygon id="2" class="fil5" points="456.39,996.17 456.39,1047.56 448.62,1047.56 448.62,1025.14 424.96,1025.14 424.96,1047.56 417.22,1047.56 417.22,996.17 424.96,996.17 424.96,1017.77 448.62,1017.77 448.62,996.17 "/>
   <polygon id="3" class="fil5" points="508.17,996.17 508.17,1047.56 500.41,1047.56 500.41,1003.5 476.35,1003.5 476.35,1047.56 468.61,1047.56 468.61,996.17 "/>
   <path id="4" class="fil5" d="M539.18 996.17c2.23,0 4.34,0.42 6.31,1.29 1.99,0.86 3.71,2.03 5.18,3.51 1.48,1.47 2.65,3.2 3.51,5.18 0.87,1.97 1.29,4.08 1.29,6.31 0,2.23 -0.42,4.34 -1.29,6.34 -0.86,1.98 -2.03,3.71 -3.51,5.18 -1.47,1.45 -3.2,2.62 -5.18,3.49 -1.97,0.89 -4.08,1.32 -6.31,1.32l-11.03 0 0 18.77 -7.74 0 0 -51.39 18.77 0zm0 25.29c1.14,0 2.23,-0.23 3.25,-0.69 1.02,-0.46 1.93,-1.12 2.72,-1.93 0.8,-0.83 1.43,-1.78 1.9,-2.87 0.46,-1.09 0.69,-2.26 0.69,-3.51 0,-1.2 -0.23,-2.34 -0.69,-3.43 -0.48,-1.09 -1.1,-2.04 -1.9,-2.84 -0.79,-0.82 -1.7,-1.47 -2.72,-1.96 -1.02,-0.49 -2.11,-0.73 -3.25,-0.73l-11.03 0 0 17.96 11.03 0z"/>
   <path id="5" class="fil5" d="M602.36 1021.86c0,-2.76 -0.48,-5.32 -1.43,-7.67 -0.95,-2.35 -2.2,-4.38 -3.75,-6.09 -1.54,-1.71 -3.32,-3.05 -5.33,-3.99 -2.02,-0.94 -4.09,-1.41 -6.21,-1.41 -2.12,0 -4.19,0.48 -6.2,1.41 -2,0.94 -3.78,2.27 -5.33,3.99 -1.56,1.71 -2.81,3.74 -3.77,6.08 -0.95,2.34 -1.44,4.89 -1.44,7.68 0,2.76 0.49,5.32 1.44,7.65 0.95,2.34 2.2,4.37 3.77,6.08 1.55,1.71 3.33,3.05 5.33,4 2.01,0.95 4.08,1.44 6.2,1.44 2.12,0 4.19,-0.49 6.21,-1.44 2.01,-0.95 3.8,-2.29 5.33,-4 1.55,-1.71 2.8,-3.74 3.75,-6.08 0.95,-2.34 1.43,-4.89 1.43,-7.65zm7.74 0c0,3.7 -0.67,7.13 -2,10.28 -1.33,3.17 -3.1,5.93 -5.33,8.29 -2.24,2.35 -4.83,4.2 -7.79,5.53 -2.96,1.32 -6.08,1.99 -9.34,1.99 -3.26,0 -6.38,-0.67 -9.34,-1.99 -2.96,-1.33 -5.56,-3.18 -7.79,-5.53 -2.23,-2.37 -4.01,-5.13 -5.34,-8.29 -1.32,-3.16 -1.98,-6.58 -1.98,-10.28 0,-3.63 0.67,-7.05 1.98,-10.24 1.33,-3.18 3.12,-5.96 5.34,-8.32 2.23,-2.37 4.83,-4.2 7.79,-5.54 2.97,-1.33 6.08,-2 9.34,-2 3.26,0 6.38,0.67 9.34,2 2.97,1.33 5.55,3.17 7.79,5.54 2.23,2.37 4,5.14 5.33,8.32 1.33,3.2 2,6.61 2,10.24z"/>
   <polygon id="6" class="fil5" points="653.76,1040.23 653.76,1047.56 619.1,1047.56 619.1,996.17 652.96,996.17 652.96,1003.5 626.84,1003.5 626.84,1017.36 650.89,1017.36 650.89,1024.73 626.84,1024.73 626.84,1040.23 "/>
   <polygon id="7" class="fil5" points="692.1,1047.56 671.7,1023.49 671.7,1047.56 663.96,1047.56 663.96,996.17 671.7,996.17 671.7,1019.84 690.45,996.17 699.86,996.17 679.03,1021.47 701.49,1047.56 "/>
   <polygon id="8" class="fil5" points="701.89,996.17 740.64,996.17 740.64,1003.5 725.11,1003.5 725.11,1047.56 717.37,1047.56 717.37,1003.5 701.89,1003.5 "/>
   <path id="9" class="fil5" d="M784.27 1021.86c0,-2.76 -0.48,-5.32 -1.43,-7.67 -0.95,-2.35 -2.2,-4.38 -3.75,-6.09 -1.54,-1.71 -3.32,-3.05 -5.33,-3.99 -2.02,-0.94 -4.09,-1.41 -6.21,-1.41 -2.12,0 -4.19,0.48 -6.2,1.41 -2,0.94 -3.78,2.27 -5.33,3.99 -1.56,1.71 -2.81,3.74 -3.77,6.08 -0.95,2.34 -1.44,4.89 -1.44,7.68 0,2.76 0.49,5.32 1.44,7.65 0.95,2.34 2.2,4.37 3.77,6.08 1.55,1.71 3.33,3.05 5.33,4 2.01,0.95 4.08,1.44 6.2,1.44 2.12,0 4.19,-0.49 6.21,-1.44 2.01,-0.95 3.8,-2.29 5.33,-4 1.55,-1.71 2.8,-3.74 3.75,-6.08 0.95,-2.34 1.43,-4.89 1.43,-7.65zm7.74 0c0,3.7 -0.67,7.13 -2,10.28 -1.33,3.17 -3.1,5.93 -5.33,8.29 -2.24,2.35 -4.83,4.2 -7.79,5.53 -2.96,1.32 -6.08,1.99 -9.34,1.99 -3.26,0 -6.38,-0.67 -9.34,-1.99 -2.96,-1.33 -5.56,-3.18 -7.79,-5.53 -2.23,-2.37 -4.01,-5.13 -5.34,-8.29 -1.32,-3.16 -1.98,-6.58 -1.98,-10.28 0,-3.63 0.67,-7.05 1.98,-10.24 1.33,-3.18 3.12,-5.96 5.34,-8.32 2.23,-2.37 4.83,-4.2 7.79,-5.54 2.97,-1.33 6.08,-2 9.34,-2 3.26,0 6.38,0.67 9.34,2 2.97,1.33 5.55,3.17 7.79,5.54 2.23,2.37 4,5.14 5.33,8.32 1.33,3.2 2,6.61 2,10.24z"/>
   <path id="10" class="fil5" d="M830.78 1020.23c1.35,0.78 2.57,1.75 3.66,2.95 0.94,1.03 1.78,2.34 2.53,3.9 0.76,1.56 1.14,3.49 1.14,5.78 0,1.96 -0.41,3.83 -1.22,5.6 -0.8,1.75 -1.95,3.32 -3.43,4.65 -1.47,1.35 -3.2,2.42 -5.17,3.24 -1.99,0.8 -4.15,1.21 -6.49,1.21l-20.79 0 0 -51.39 20.4 0c2.03,0 3.93,0.37 5.73,1.13 1.78,0.76 3.35,1.8 4.68,3.09 1.32,1.31 2.37,2.82 3.13,4.53 0.76,1.71 1.13,3.55 1.13,5.52 0,1.62 -0.29,3.05 -0.86,4.27 -0.57,1.24 -1.17,2.26 -1.81,3.06 -0.78,0.98 -1.65,1.8 -2.62,2.46zm-22.03 -2.87l12.66 0c2.08,0 3.81,-0.69 5.22,-2.07 1.41,-1.39 2.11,-3 2.11,-4.85 0,-1.86 -0.71,-3.48 -2.12,-4.87 -1.43,-1.39 -3.16,-2.07 -5.21,-2.07l-12.66 0 0 13.86zm13.05 22.87c1.2,0 2.33,-0.22 3.39,-0.65 1.08,-0.45 1.99,-1.03 2.73,-1.75 0.76,-0.73 1.36,-1.59 1.79,-2.57 0.44,-0.99 0.65,-2.05 0.65,-3.2 0,-1.14 -0.22,-2.2 -0.65,-3.18 -0.44,-0.98 -1.03,-1.84 -1.79,-2.57 -0.75,-0.73 -1.66,-1.32 -2.73,-1.75 -1.06,-0.44 -2.19,-0.65 -3.39,-0.65l-13.05 0 0 16.33 13.05 0z"/>
  </g>
 </g>
</svg>
